<svg width="1601" height="900" viewBox="0 0 1601 900" fill="none" xmlns="http://www.w3.org/2000/svg">
<g clip-path="url(#clip0_398_13528)">
<rect width="1600" height="900" transform="translate(0.48877)" fill="white"/>
<g opacity="0.5">
<rect x="0.48877" y="-3.05176e-05" width="1600" height="792" fill="url(#paint0_linear_398_13528)"/>
<g opacity="0.4" filter="url(#filter0_f_398_13528)">
<path d="M329.316 546.143C481.026 719.799 129.232 674.172 36.6265 645.877C-55.979 617.582 -104.115 506.488 -70.8876 397.742C-37.6605 288.996 112.899 163.828 205.505 192.123C298.11 220.418 177.606 372.488 329.316 546.143Z" fill="#9EB3EE"/>
</g>
<g opacity="0.4" filter="url(#filter1_f_398_13528)">
<path d="M876.408 371.243C618.491 338.778 951.997 115.538 1051.86 70.3883C1151.71 25.2383 1275.04 82.3545 1327.31 197.961C1379.58 313.567 1344.06 530.084 1244.2 575.234C1144.34 620.384 1134.33 403.708 876.408 371.243Z" fill="#85B9F9"/>
</g>
</g>
<g filter="url(#filter2_f_398_13528)">
<rect x="0.48877" y="729.391" width="1600" height="179.609" fill="white"/>
</g>
<g filter="url(#filter3_f_398_13528)">
<path d="M1647.17 -26.0294H-46.1918V190.658H1647.17V-26.0294Z" fill="url(#paint1_linear_398_13528)"/>
</g>
<g opacity="0.8" filter="url(#filter4_f_398_13528)">
<ellipse cx="1481.4" cy="112.002" rx="337.627" ry="187.203" transform="rotate(12.7295 1481.4 112.002)" fill="url(#paint2_linear_398_13528)"/>
</g>
<g opacity="0.8" filter="url(#filter5_f_398_13528)">
<ellipse rx="337.627" ry="187.203" transform="matrix(-0.975421 0.220349 0.220349 0.975421 124.577 112.002)" fill="url(#paint3_linear_398_13528)"/>
</g>
<g filter="url(#filter6_f_398_13528)">
<rect x="-257.511" y="734.124" width="2116" height="201.876" fill="url(#paint4_linear_398_13528)"/>
</g>
</g>
<defs>
<filter id="filter0_f_398_13528" x="-281.403" y="-11.9342" width="848.197" height="885.116" filterUnits="userSpaceOnUse" color-interpolation-filters="sRGB">
<feFlood flood-opacity="0" result="BackgroundImageFix"/>
<feBlend mode="normal" in="SourceGraphic" in2="BackgroundImageFix" result="shape"/>
<feGaussianBlur stdDeviation="100" result="effect1_foregroundBlur_398_13528"/>
</filter>
<filter id="filter1_f_398_13528" x="580.596" y="-145.07" width="970.713" height="926.466" filterUnits="userSpaceOnUse" color-interpolation-filters="sRGB">
<feFlood flood-opacity="0" result="BackgroundImageFix"/>
<feBlend mode="normal" in="SourceGraphic" in2="BackgroundImageFix" result="shape"/>
<feGaussianBlur stdDeviation="100" result="effect1_foregroundBlur_398_13528"/>
</filter>
<filter id="filter2_f_398_13528" x="-99.5112" y="629.391" width="1800" height="379.609" filterUnits="userSpaceOnUse" color-interpolation-filters="sRGB">
<feFlood flood-opacity="0" result="BackgroundImageFix"/>
<feBlend mode="normal" in="SourceGraphic" in2="BackgroundImageFix" result="shape"/>
<feGaussianBlur stdDeviation="50" result="effect1_foregroundBlur_398_13528"/>
</filter>
<filter id="filter3_f_398_13528" x="-146.192" y="-126.029" width="1893.36" height="416.687" filterUnits="userSpaceOnUse" color-interpolation-filters="sRGB">
<feFlood flood-opacity="0" result="BackgroundImageFix"/>
<feBlend mode="normal" in="SourceGraphic" in2="BackgroundImageFix" result="shape"/>
<feGaussianBlur stdDeviation="50" result="effect1_foregroundBlur_398_13528"/>
</filter>
<filter id="filter4_f_398_13528" x="1049.46" y="-185.226" width="863.873" height="594.456" filterUnits="userSpaceOnUse" color-interpolation-filters="sRGB">
<feFlood flood-opacity="0" result="BackgroundImageFix"/>
<feBlend mode="normal" in="SourceGraphic" in2="BackgroundImageFix" result="shape"/>
<feGaussianBlur stdDeviation="50" result="effect1_foregroundBlur_398_13528"/>
</filter>
<filter id="filter5_f_398_13528" x="-307.359" y="-185.226" width="863.873" height="594.456" filterUnits="userSpaceOnUse" color-interpolation-filters="sRGB">
<feFlood flood-opacity="0" result="BackgroundImageFix"/>
<feBlend mode="normal" in="SourceGraphic" in2="BackgroundImageFix" result="shape"/>
<feGaussianBlur stdDeviation="50" result="effect1_foregroundBlur_398_13528"/>
</filter>
<filter id="filter6_f_398_13528" x="-317.511" y="674.124" width="2236" height="321.876" filterUnits="userSpaceOnUse" color-interpolation-filters="sRGB">
<feFlood flood-opacity="0" result="BackgroundImageFix"/>
<feBlend mode="normal" in="SourceGraphic" in2="BackgroundImageFix" result="shape"/>
<feGaussianBlur stdDeviation="30" result="effect1_foregroundBlur_398_13528"/>
</filter>
<linearGradient id="paint0_linear_398_13528" x1="800.489" y1="-3.05176e-05" x2="800.489" y2="792" gradientUnits="userSpaceOnUse">
<stop stop-color="#D0E4FD"/>
<stop offset="1" stop-color="white"/>
</linearGradient>
<linearGradient id="paint1_linear_398_13528" x1="800.489" y1="65.8969" x2="800.489" y2="190.658" gradientUnits="userSpaceOnUse">
<stop stop-color="white"/>
<stop offset="1" stop-color="white" stop-opacity="0"/>
</linearGradient>
<linearGradient id="paint2_linear_398_13528" x1="1481.4" y1="83.6351" x2="1481.4" y2="299.205" gradientUnits="userSpaceOnUse">
<stop stop-color="white"/>
<stop offset="1" stop-color="white" stop-opacity="0"/>
</linearGradient>
<linearGradient id="paint3_linear_398_13528" x1="337.627" y1="158.836" x2="337.627" y2="374.407" gradientUnits="userSpaceOnUse">
<stop stop-color="white"/>
<stop offset="1" stop-color="white" stop-opacity="0"/>
</linearGradient>
<linearGradient id="paint4_linear_398_13528" x1="800.489" y1="750.362" x2="800.489" y2="936" gradientUnits="userSpaceOnUse">
<stop stop-color="white" stop-opacity="0"/>
<stop offset="1" stop-color="white"/>
</linearGradient>
<clipPath id="clip0_398_13528">
<rect width="1600" height="900" fill="white" transform="translate(0.48877)"/>
</clipPath>
</defs>
</svg>
