<svg width="449" height="141" viewBox="0 0 449 141" fill="none" xmlns="http://www.w3.org/2000/svg">
<path d="M181.636 71.6629V88.0421H172V41.5547H190.244C193.756 41.5547 196.839 42.1933 199.494 43.4704C202.171 44.7475 204.227 46.5674 205.662 48.9301C207.096 51.2715 207.813 53.9429 207.813 56.944C207.813 61.4992 206.239 65.0964 203.092 67.7358C199.965 70.3539 195.629 71.6629 190.083 71.6629H181.636ZM181.636 63.9044H190.244C192.793 63.9044 194.73 63.3084 196.058 62.1164C197.407 60.9244 198.081 59.2216 198.081 57.008C198.081 54.7304 197.407 52.8892 196.058 51.4843C194.708 50.0795 192.845 49.3558 190.469 49.3132H181.636V63.9044Z" fill="black"/>
<path d="M233.606 88.0403C233.177 87.2102 232.867 86.1779 232.674 84.9433C230.425 87.4337 227.503 88.6789 223.906 88.6789C220.5 88.6789 217.674 87.6997 215.425 85.7415C213.199 83.7833 212.086 81.3141 212.086 78.3342C212.086 74.6731 213.445 71.8633 216.164 69.9051C218.905 67.9469 222.856 66.9571 228.017 66.9358H232.289V64.9563C232.289 63.3598 231.871 62.0827 231.036 61.1248C230.222 60.167 228.927 59.6881 227.149 59.6881C225.586 59.6881 224.355 60.0606 223.455 60.8056C222.577 61.5505 222.139 62.5723 222.139 63.8707H212.856C212.856 61.8698 213.478 60.018 214.719 58.3152C215.961 56.6123 217.717 55.282 219.987 54.3242C222.256 53.3451 224.805 52.8555 227.631 52.8555C231.914 52.8555 235.308 53.9304 237.813 56.0802C240.34 58.2087 241.603 61.21 241.603 65.084V80.0582C241.625 83.3362 242.085 85.816 242.984 87.4975V88.0403H233.606ZM225.929 81.6227C227.299 81.6227 228.563 81.3248 229.719 80.7287C230.876 80.1115 231.732 79.292 232.289 78.2703V72.3316H228.819C224.173 72.3316 221.699 73.928 221.4 77.1209L221.368 77.6636C221.368 78.8131 221.775 79.7603 222.588 80.5053C223.403 81.2502 224.515 81.6227 225.929 81.6227Z" fill="black"/>
<path d="M268.263 62.1465C266.999 61.9763 265.885 61.8911 264.922 61.8911C261.41 61.8911 259.108 63.0725 258.017 65.4352V88.0403H248.734V53.494H257.503L257.759 57.6127C259.622 54.4412 262.203 52.8555 265.501 52.8555C266.528 52.8555 267.492 52.9938 268.391 53.2705L268.263 62.1465Z" fill="black"/>
<path d="M291.935 88.0403C291.506 87.2102 291.196 86.1779 291.003 84.9433C288.755 87.4337 285.832 88.6789 282.234 88.6789C278.83 88.6789 276.003 87.6997 273.755 85.7415C271.528 83.7833 270.414 81.3141 270.414 78.3342C270.414 74.6731 271.775 71.8633 274.494 69.9051C277.235 67.9469 281.185 66.9571 286.346 66.9358H290.618V64.9563C290.618 63.3598 290.201 62.0827 289.365 61.1248C288.551 60.167 287.256 59.6881 285.479 59.6881C283.916 59.6881 282.684 60.0606 281.785 60.8056C280.907 61.5505 280.468 62.5723 280.468 63.8707H271.186C271.186 61.8698 271.806 60.018 273.048 58.3152C274.29 56.6123 276.046 55.282 278.316 54.3242C280.586 53.3451 283.134 52.8555 285.961 52.8555C290.243 52.8555 293.637 53.9304 296.143 56.0802C298.669 58.2087 299.933 61.21 299.933 65.084V80.0582C299.954 83.3362 300.414 85.816 301.314 87.4975V88.0403H291.935ZM284.258 81.6227C285.629 81.6227 286.892 81.3248 288.048 80.7287C289.204 80.1115 290.061 79.292 290.618 78.2703V72.3316H287.149C282.502 72.3316 280.029 73.928 279.73 77.1209L279.697 77.6636C279.697 78.8131 280.104 79.7603 280.918 80.5053C281.731 81.2502 282.845 81.6227 284.258 81.6227Z" fill="black"/>
<path d="M305.618 70.5131C305.618 65.128 306.828 60.8389 309.247 57.646C311.688 54.4533 315.018 52.8569 319.237 52.8569C322.619 52.8569 325.414 54.1126 327.62 56.6243V39H336.934V88.0417H328.551L328.102 84.37C325.789 87.2435 322.812 88.6803 319.172 88.6803C315.083 88.6803 311.796 87.0839 309.312 83.891C306.849 80.677 305.618 76.2176 305.618 70.5131ZM314.901 71.1836C314.901 74.419 315.467 76.8988 316.603 78.6228C317.737 80.347 319.386 81.209 321.549 81.209C324.419 81.209 326.442 80.0065 327.62 77.6012V63.9679C326.463 61.5626 324.462 60.3599 321.613 60.3599C317.138 60.3599 314.901 63.9679 314.901 71.1836Z" fill="black"/>
<path d="M353.925 88.0423H344.611V53.496H353.925V88.0423ZM344.065 44.5561C344.065 43.1726 344.525 42.0338 345.446 41.1398C346.389 40.2458 347.662 39.7988 349.268 39.7988C350.853 39.7988 352.117 40.2458 353.058 41.1398C354.001 42.0338 354.472 43.1726 354.472 44.5561C354.472 45.961 353.99 47.1104 353.027 48.0044C352.084 48.8983 350.831 49.3453 349.268 49.3453C347.705 49.3453 346.441 48.8983 345.478 48.0044C344.536 47.1104 344.065 45.961 344.065 44.5561Z" fill="black"/>
<path d="M360.253 70.5117C360.253 65.2116 361.517 60.944 364.043 57.7085C366.592 54.4731 370.018 52.8555 374.322 52.8555C378.133 52.8555 381.099 54.1538 383.219 56.7507L383.604 53.494H392.019V86.8909C392.019 89.9135 391.323 92.5422 389.931 94.7774C388.561 97.012 386.624 98.7151 384.118 99.8858C381.613 101.056 378.679 101.642 375.317 101.642C372.769 101.642 370.285 101.131 367.865 100.109C365.446 99.1086 363.615 97.8107 362.373 96.2143L366.484 90.5946C368.797 93.1702 371.602 94.4583 374.9 94.4583C377.363 94.4583 379.279 93.7976 380.65 92.4783C382.02 91.1799 382.705 89.328 382.705 86.9228V85.071C380.563 87.4763 377.748 88.6789 374.258 88.6789C370.082 88.6789 366.699 87.0612 364.108 83.8258C361.538 80.5692 360.253 76.2588 360.253 70.8949V70.5117ZM369.536 71.1822C369.536 74.3112 370.168 76.7697 371.431 78.5576C372.695 80.3244 374.429 81.2076 376.634 81.2076C379.461 81.2076 381.484 80.1541 382.705 78.0468V63.5195C381.463 61.4122 379.461 60.3585 376.699 60.3585C374.471 60.3585 372.715 61.2632 371.431 63.0725C370.168 64.8818 369.536 67.585 369.536 71.1822Z" fill="black"/>
<path d="M407.887 53.494L408.176 57.3574C410.638 54.3561 413.968 52.8555 418.165 52.8555C422.641 52.8555 425.713 54.6115 427.383 58.1236C429.824 54.6115 433.304 52.8555 437.822 52.8555C441.591 52.8555 444.396 53.9516 446.238 56.144C448.079 58.3152 449 61.5931 449 65.9779V88.0403H439.686V66.0098C439.686 64.0516 439.3 62.6254 438.529 61.7315C437.758 60.8162 436.398 60.3585 434.45 60.3585C431.666 60.3585 429.739 61.6783 428.668 64.3177L428.701 88.0403H419.418V66.0418C419.418 64.041 419.021 62.5935 418.229 61.6996C417.437 60.8056 416.088 60.3585 414.182 60.3585C411.548 60.3585 409.643 61.4441 408.465 63.6152V88.0403H399.182V53.494H407.887Z" fill="black"/>
<path d="M51.2986 140.563C79.63 140.563 102.597 117.332 102.597 88.6741C102.597 60.0166 79.63 36.7852 51.2986 36.7852C22.9672 36.7852 0 60.0166 0 88.6741C0 117.332 22.9672 140.563 51.2986 140.563Z" fill="url(#paint0_linear_25349_86969)"/>
<path d="M85.2986 103.778C113.63 103.778 136.597 80.5464 136.597 51.8889C136.597 23.2315 113.63 0 85.2986 0C56.9672 0 34 23.2315 34 51.8889C34 80.5464 56.9672 103.778 85.2986 103.778Z" fill="url(#paint1_linear_25349_86969)"/>
<mask id="mask0_25349_86969" style="mask-type:alpha" maskUnits="userSpaceOnUse" x="0" y="37" width="103" height="104">
<path d="M51.2986 140.778C79.63 140.778 102.597 117.546 102.597 88.8889C102.597 60.2315 79.63 37 51.2986 37C22.9672 37 0 60.2315 0 88.8889C0 117.546 22.9672 140.778 51.2986 140.778Z" fill="url(#paint2_linear_25349_86969)"/>
</mask>
<g mask="url(#mask0_25349_86969)">
</g>
<mask id="mask1_25349_86969" style="mask-type:alpha" maskUnits="userSpaceOnUse" x="34" y="0" width="103" height="104">
<path d="M85.2986 103.778C113.63 103.778 136.597 80.5464 136.597 51.8889C136.597 23.2315 113.63 0 85.2986 0C56.9672 0 34 23.2315 34 51.8889C34 80.5464 56.9672 103.778 85.2986 103.778Z" fill="url(#paint3_linear_25349_86969)"/>
</mask>
<g mask="url(#mask1_25349_86969)">
</g>
<defs>
<linearGradient id="paint0_linear_25349_86969" x1="10.2153" y1="36.7851" x2="131.572" y2="49.1319" gradientUnits="userSpaceOnUse">
<stop stop-color="#3D89FB"/>
<stop offset="1" stop-color="#5F49E4" stop-opacity="0.62"/>
</linearGradient>
<linearGradient id="paint1_linear_25349_86969" x1="44.2153" y1="-9.84413e-05" x2="165.572" y2="12.3467" gradientUnits="userSpaceOnUse">
<stop stop-color="#3D89FB"/>
<stop offset="1" stop-color="#5F49E4" stop-opacity="0.62"/>
</linearGradient>
<linearGradient id="paint2_linear_25349_86969" x1="10.2153" y1="36.9999" x2="131.572" y2="49.3467" gradientUnits="userSpaceOnUse">
<stop stop-color="#3D89FB"/>
<stop offset="1" stop-color="#5F49E4" stop-opacity="0.62"/>
</linearGradient>
<linearGradient id="paint3_linear_25349_86969" x1="44.2153" y1="-9.84413e-05" x2="165.572" y2="12.3467" gradientUnits="userSpaceOnUse">
<stop stop-color="#3D89FB"/>
<stop offset="1" stop-color="#5F49E4" stop-opacity="0.62"/>
</linearGradient>
</defs>
</svg>
