<svg width="447" height="149" viewBox="0 0 447 149" fill="none" xmlns="http://www.w3.org/2000/svg">
<path fill-rule="evenodd" clip-rule="evenodd" d="M61.702 0.337675C48.2 2.00029 33.3402 8.95306 20.6679 19.6845C18.1033 21.8006 12.7477 27.0151 12.7477 27.3174C12.7477 27.4686 15.3124 30.1892 18.4804 33.3633L24.2131 39.1825L21.7994 41.9031C12.8986 51.9544 6.86415 62.1568 3.2435 72.9638C0.980591 79.7654 0 85.3579 0 91.6305C0 97.2985 0.7543 101.909 2.4892 106.367L3.16807 108.181L19.989 125.034C34.0191 139.091 37.1871 142.114 38.922 143.247C42.5427 145.666 46.7668 147.328 51.4435 148.311C54.5361 148.991 61.702 149.218 65.0964 148.764C78.5229 147.101 92.4021 140.753 104.546 130.626C107.714 127.981 113.07 122.918 113.07 122.616C113.07 122.465 110.43 119.744 107.262 116.494L101.454 110.599L103.264 108.71C107.714 104.025 113.145 96.5428 116.314 90.6481C120.839 82.4105 123.781 73.4929 124.762 65.3309C125.139 61.779 124.913 54.2216 124.309 51.3498C123.253 46.5131 121.594 42.5833 119.104 38.8046C117.822 36.8397 115.258 34.1946 101.077 19.9112L84.4819 3.28505L82.7471 2.60488C80.4087 1.62242 75.5812 0.488824 72.6394 0.18653C69.6976 -0.115764 65.0964 -0.040193 61.702 0.337675ZM75.9583 4.79652C77.1652 5.09881 79.1264 5.55225 80.1824 5.93012C82.1436 6.61028 82.219 6.61028 85.3117 9.7088C88.0272 12.4294 88.4043 12.8073 87.7254 12.7317C84.1048 12.0516 78.2967 11.9004 73.7708 12.505C59.2882 14.3188 44.353 21.6494 30.6247 33.7412C29.267 34.9503 28.0601 36.0084 27.8338 36.1595C27.6075 36.3107 26.4006 35.3282 22.8554 31.7763L18.1787 27.0907L21.1959 24.4456C33.7928 13.4119 47.672 6.45913 61.2494 4.49422C64.8701 3.9652 72.9411 4.19193 75.9583 4.79652ZM95.7211 28.8289C102.359 29.8113 108.167 32.6831 112.467 36.9908C116.691 41.223 119.406 46.6642 120.688 53.4659C121.217 56.4888 121.217 63.2904 120.688 66.8424C118.954 77.8006 113.9 89.061 106.055 99.339C104.245 101.757 99.9452 106.821 99.2663 107.35C98.8891 107.652 98.4366 107.274 94.5142 103.344C92.1004 100.926 90.1392 98.8856 90.1392 98.81C90.1392 98.7344 90.8181 97.9031 91.6478 96.9962C105.301 81.8815 111.712 62.9881 107.186 51.2742C105.376 46.7398 101.605 43.339 96.7017 41.8275C94.2125 41.0718 89.8375 40.6939 86.594 41.0718C81.6156 41.5253 75.5057 43.4902 69.6222 46.362C63.7386 49.2338 58.3831 52.8613 53.1784 57.5468L50.84 59.5873L46.3896 55.1285L41.9393 50.6696L43.825 48.9315C55.3658 38.1244 70.6782 30.4159 83.8031 28.6777C86.4431 28.451 93.2319 28.451 95.7211 28.8289ZM33.3402 54.9018C31.6807 56.7911 29.5687 59.4362 28.5127 60.7965C15.9912 77.4983 10.2585 95.6359 12.5969 111.28L12.7477 112.262L9.65508 109.239C6.71329 106.367 6.56244 106.141 5.959 104.327C0.0754313 87.3984 7.46759 64.0462 24.892 44.4726L26.9286 42.2054L31.6053 46.891L36.282 51.5765L33.3402 54.9018ZM92.2513 45.2284L92.8547 45.3795L92.7039 48.5536C92.553 52.3323 92.025 55.4308 91.2707 58.0759C88.8569 66.0111 84.4065 73.9463 77.9195 81.4281L75.4303 84.2999L70.6782 79.5387L65.9261 74.7776L68.1136 72.3592C72.7902 67.2202 77.0898 61.2499 79.7298 56.1865C81.163 53.4659 83.0488 48.8559 83.5768 46.7398C83.8785 45.4551 83.8785 45.4551 85.01 45.3039C85.6134 45.2284 86.2923 45.1528 86.5186 45.0772C87.122 45.0772 91.7233 45.0772 92.2513 45.2284ZM78.7492 48.5536C77.6932 51.501 75.3549 56.0354 73.092 59.4362C70.6028 63.2148 68.8679 65.4821 65.3981 69.4119L62.9843 72.2081L58.2322 67.447L53.4801 62.6858L55.0641 61.2499C59.9671 56.8667 65.6998 52.9369 70.9799 50.2162C73.8463 48.7803 78.5229 46.891 79.2018 46.8154C79.2772 46.8154 79.1264 47.5711 78.7492 48.5536ZM151.011 51.4254C150.785 51.6521 150.71 57.9247 150.71 80.899C150.71 108.861 150.71 110.07 151.162 110.448C151.539 110.826 152.746 110.826 162.929 110.826C169.115 110.826 175.828 110.675 177.789 110.599C185.709 110.07 191.819 107.501 196.496 102.815C200.192 99.1123 202.53 93.9733 203.737 87.1717C204.265 83.8464 204.265 76.8937 203.737 73.644C201.776 62.6858 195.515 55.5819 185.483 52.7101C180.58 51.3498 180.203 51.2742 165.268 51.1987C154.18 51.1987 151.238 51.1987 151.011 51.4254ZM425.653 52.4078C425.427 52.6346 425.351 54.5239 425.351 59.3606V66.0111H422.485C420.599 66.0111 419.543 66.0866 419.317 66.3134C418.94 66.6912 418.94 74.5509 419.317 75.0043C419.543 75.231 420.599 75.3066 422.485 75.3066H425.351L425.427 88.7587C425.502 101.909 425.502 102.286 426.03 103.798C427.464 107.954 430.405 110.222 435.157 110.826C438.401 111.204 443.002 111.053 446.17 110.448L446.849 110.297L446.774 104.78L446.698 99.2634L443.681 99.1123C440.438 98.9611 439.91 98.81 439.532 98.1298C439.382 97.8275 439.306 93.2931 439.306 86.5671V75.4578L443.153 75.3822L447 75.3066V70.6966V66.0867L443.153 66.0111L439.306 65.9355V59.4362C439.306 55.4308 439.231 52.7857 439.08 52.4834C438.854 52.03 438.476 52.03 432.442 52.03C427.69 52.1811 425.88 52.2567 425.653 52.4078ZM178.77 65.1798C183.371 66.3889 186.388 69.6386 187.595 74.3997C188.5 78.0273 188.5 84.0731 187.52 87.8518C186.539 91.5549 184.276 94.5023 181.259 95.9382C178.619 97.2229 177.035 97.4497 171.604 97.6008L166.701 97.752V81.1258V64.4996L171.981 64.6507C175.828 64.7263 177.714 64.8775 178.77 65.1798ZM224.858 65.4821C217.315 66.8424 211.507 71.8302 208.942 79.0853C205.548 88.6076 207.207 99.4902 212.94 105.612C215.957 108.786 218.823 110.448 223.198 111.582C231.571 113.698 240.547 111.506 246.506 105.914C247.939 104.629 251.636 99.9436 251.636 99.4901C251.636 98.9611 250.579 98.281 246.28 96.0893C243.64 94.729 241.452 93.5954 241.377 93.5954C241.302 93.5954 240.849 94.2756 240.396 95.1069C239.34 97.1474 237.153 99.4146 235.569 100.246C230.817 102.589 225.235 101.228 222.821 97.1474C222.142 95.9382 221.463 93.8221 221.463 92.6885V91.8572H236.549C247.939 91.8572 251.636 91.7816 251.862 91.5549C252.239 91.1771 252.239 88.1541 251.786 85.1312C250.58 77.0448 247.185 71.2257 241.754 67.976C239.944 66.918 236.474 65.7088 234.211 65.3309C231.948 64.9531 227.121 65.0286 224.858 65.4821ZM274.415 65.1798C272.303 65.4821 270.569 65.8599 269.211 66.3134C261.592 68.7317 256.538 75.0043 254.954 83.922C254.351 87.3228 254.577 92.7641 255.407 96.0138C256.538 100.397 258.198 103.269 261.215 106.141C263.855 108.635 266.948 110.373 271.097 111.506C272.303 111.884 273.51 111.96 276.603 111.96C280.148 111.96 280.676 111.884 282.637 111.28C286.56 110.07 289.577 108.257 292.292 105.385C294.103 103.496 296.139 100.699 296.139 100.095C296.139 99.868 295.762 99.4902 295.385 99.1879C293.801 98.2054 286.484 94.5779 286.107 94.5779C285.881 94.5779 285.504 95.1069 285.127 95.8626C284.221 97.8275 283.015 99.1123 281.129 100.019C279.696 100.699 279.243 100.85 277.659 100.775C275.547 100.775 274.189 100.246 272.454 98.7344C267.928 94.729 267.627 83.6197 271.926 78.5563C274.642 75.3822 279.696 75.3822 282.939 78.4807C283.467 79.0097 284.221 79.9922 284.599 80.6723C284.976 81.3525 285.428 81.9571 285.655 81.9571C286.183 82.1082 295.461 76.7425 295.611 76.2135C295.687 75.7601 294.706 74.2486 293.273 72.4348C290.935 69.563 286.333 66.7668 282.336 65.8599C280.299 65.3309 275.924 65.0286 274.415 65.1798ZM395.406 65.7088C392.916 66.1622 390.654 67.0691 388.843 68.4294L387.41 69.4875L387.335 67.976L387.259 66.4645L381.451 66.3889C376.322 66.3134 375.568 66.3889 375.19 66.7668C374.738 67.1447 374.738 68.2783 374.738 96.2405C374.738 118.535 374.813 125.336 375.039 125.563C375.492 126.016 388.164 126.016 388.542 125.563C388.768 125.336 388.843 123.069 388.843 116.948V108.635L391.182 109.844C394.35 111.431 396.311 111.809 400.007 111.657C404.306 111.431 406.871 110.599 409.662 108.483C413.584 105.536 416.149 101.002 417.582 94.729C418.336 91.4038 418.336 85.5846 417.582 82.0327C416.602 77.3471 415.018 74.173 412.151 71.1501C407.927 66.4645 401.742 64.5752 395.406 65.7088ZM55.215 70.1676C59.2882 74.2486 59.5145 74.5509 59.2128 75.0043C58.9865 75.231 58.0059 76.3646 56.9499 77.5738C52.7258 82.4105 48.8034 88.3053 46.1634 93.7465C44.2776 97.6008 43.1461 100.775 42.0147 105.083C40.5815 110.751 40.5815 117.023 42.1655 121.406C45.1073 129.72 52.8766 133.649 63.7386 132.365C74.2234 131.08 86.2923 125.034 96.6262 115.89L98.8137 113.925L103.264 118.384L107.714 122.842L105.829 124.581C96.1736 133.574 83.2751 140.904 72.1114 143.625C67.5856 144.759 64.4175 145.137 60.118 145.137C54.3853 145.137 50.1612 144.381 45.7108 142.416C39.9781 139.922 34.6979 135.01 31.9825 129.568C28.5881 122.842 27.6075 114.529 29.1161 105.536C31.2281 92.9908 38.2432 79.5387 48.5771 67.976C49.6331 66.7668 50.6137 65.7843 50.6892 65.7843C50.7646 65.7843 52.8012 67.7493 55.215 70.1676ZM323.596 66.0867C320.654 66.5401 316.958 67.9004 314.544 69.4875L313.79 70.0165V68.4294C313.79 67.5225 313.639 66.7668 313.488 66.5401C313.262 66.3134 311.527 66.2378 307.077 66.2378C301.495 66.2378 300.892 66.2378 300.59 66.6912C300.213 67.0691 300.213 68.9584 300.213 88.6076C300.213 109.088 300.213 110.07 300.665 110.448C301.042 110.826 301.872 110.826 307.303 110.826C312.131 110.826 313.564 110.751 313.79 110.524C313.941 110.297 314.092 105.838 314.092 96.6939C314.167 83.9976 314.167 83.0907 314.62 82.2594C315.525 80.4456 317.109 79.6899 321.71 78.9342C323.445 78.6319 325.18 78.3295 325.557 78.254L326.236 78.1028V72.2081C326.236 66.3134 326.161 65.6332 325.406 65.7843C325.105 65.8599 324.35 65.9355 323.596 66.0867ZM329.781 66.6157C329.63 66.8424 329.555 67.2203 329.63 67.5981C329.706 67.9004 331.743 74.5509 334.156 82.2594C343.811 113.396 343.283 111.582 342.604 112.791C342.001 114 340.945 114.227 337.174 114.227C334.835 114.227 333.628 114.303 333.477 114.529C333.251 114.756 333.176 116.267 333.176 119.971C333.176 123.674 333.251 125.185 333.477 125.412C333.855 125.79 343.434 125.79 345.923 125.487C350.072 124.883 353.466 121.935 355.428 117.25C355.88 116.267 359.727 104.554 364.027 91.2526C370.589 71.1501 371.871 66.9935 371.57 66.6912C371.343 66.3889 370.212 66.3134 364.253 66.3134H357.238L357.012 67.3714C356.861 67.976 355.428 74.2486 353.768 81.4281C352.109 88.6076 350.751 94.5779 350.6 94.6534C350.525 94.729 348.941 88.3808 347.206 80.5968L343.962 66.3134H336.947C331.139 66.3134 330.008 66.3134 329.781 66.6157ZM233.457 76.0623C235.72 77.1204 237.228 79.1609 237.681 81.6548L237.832 82.5617H229.761H221.69L221.841 81.8059C222.142 80.4456 223.425 78.254 224.481 77.3471C226.291 75.7601 227.875 75.231 230.364 75.3822C231.571 75.4578 232.476 75.6845 233.457 76.0623ZM399.931 76.4402C402.044 77.5738 403.628 79.9166 404.382 83.0907C404.91 85.4335 404.91 91.0259 404.306 93.3687C403.778 95.4092 402.722 97.5252 401.591 98.9611C399.781 101.153 396.235 101.757 393.369 100.321C390.05 98.6588 388.466 94.9557 388.466 88.7587C388.466 83.0151 389.975 78.9341 392.766 76.8937C394.953 75.3822 397.593 75.231 399.931 76.4402ZM69.9993 88.6831C63.814 94.5023 55.8939 99.7169 49.3314 102.362C47.9737 102.891 46.7668 103.344 46.6914 103.344C46.6159 103.344 46.9177 102.513 47.2948 101.455C50.1612 93.5198 55.1396 85.4335 61.0985 79.0097L62.5317 77.4982L67.2838 82.1838L72.0359 86.8694L69.9993 88.6831ZM79.5035 94.5779L84.1048 99.1879L82.6716 100.548C75.1286 107.652 63.5123 114.076 55.2904 115.814C53.2538 116.267 48.728 116.721 46.5405 116.721H45.1073V113.245C45.1073 111.355 45.1827 109.315 45.2582 108.861L45.409 107.954L48.3508 106.972C55.8184 104.554 65.3226 98.5833 72.3377 91.9328C73.4691 90.8748 74.5251 89.9679 74.676 89.9679C74.8269 89.9679 77.0143 92.0084 79.5035 94.5779Z" fill="black"/>
</svg>
