<svg width="29" height="28" viewBox="0 0 29 28" fill="none" xmlns="http://www.w3.org/2000/svg">
<path d="M2.76116 0.438579C2.40242 0.864991 2.22101 1.41072 2.25378 1.96488V26.0384C2.22286 26.5923 2.40406 27.1374 2.76116 27.5647L2.84418 27.6469L16.4511 14.157V13.8371L2.84418 0.356323L2.76116 0.438579Z" fill="url(#paint0_linear_120_332)"/>
<path d="M20.9899 18.6537L16.4512 14.157V13.8371L20.9899 9.34964L21.0914 9.40448L26.4696 12.4297C28.0102 13.2888 28.0102 14.7054 26.4696 15.5737L21.0914 18.5988L20.9899 18.6537Z" fill="url(#paint1_linear_120_332)"/>
<path d="M21.0913 18.5988L16.4788 14.0291L2.76111 27.5647C3.0773 27.8222 3.47096 27.9683 3.88013 27.9799C4.28929 27.9914 4.69073 27.8679 5.02125 27.6287L21.0636 18.5988" fill="url(#paint2_linear_120_332)"/>
<path d="M21.0913 9.4045L5.02125 0.365518C4.69428 0.116467 4.29017 -0.0123951 3.87796 0.000940221C3.46574 0.0142755 3.07098 0.168981 2.76111 0.438634L16.4511 14.0017L21.0913 9.4045Z" fill="url(#paint3_linear_120_332)"/>
<path opacity="0.1" d="M20.9899 18.4983L5.02134 27.4733C4.7028 27.7084 4.31618 27.8354 3.91894 27.8354C3.52171 27.8354 3.13508 27.7084 2.81655 27.4733L2.73352 27.5555L2.81655 27.6378C3.13508 27.8729 3.52171 27.9999 3.91894 27.9999C4.31618 27.9999 4.7028 27.8729 5.02134 27.6378L21.0637 18.6079L20.9899 18.4983Z" fill="black"/>
<path opacity="0.07" d="M2.76113 27.4184C2.40343 26.9879 2.22231 26.4398 2.25375 25.883V26.0384C2.22283 26.5923 2.40402 27.1374 2.76113 27.5647L2.84415 27.4824L2.76113 27.4184Z" fill="black"/>
<path opacity="0.07" d="M26.4696 15.4092L20.9899 18.4984L21.0913 18.5989L26.4696 15.5372C26.785 15.3997 27.058 15.1818 27.2606 14.9056C27.4632 14.6294 27.5881 14.3049 27.6227 13.9652C27.5597 14.2792 27.4224 14.5739 27.2219 14.825C27.0214 15.076 26.7635 15.2763 26.4696 15.4092Z" fill="black"/>
<path opacity="0.3" d="M5.0213 0.530001L26.4696 12.585C26.7607 12.7147 27.0168 12.9105 27.2172 13.1567C27.4175 13.4028 27.5565 13.6923 27.6227 14.0016C27.59 13.6614 27.4658 13.336 27.263 13.0595C27.0602 12.783 26.7862 12.5655 26.4696 12.4297L5.0213 0.36549C3.50839 -0.493625 2.25378 0.219258 2.25378 1.96491V2.12028C2.25378 0.383769 3.50839 -0.338253 5.0213 0.530001Z" fill="white"/>
<defs>
<linearGradient id="paint0_linear_120_332" x1="15.2519" y1="1.70897" x2="-3.01721" y2="20.1491" gradientUnits="userSpaceOnUse">
<stop stop-color="#008EFF"/>
<stop offset="0.01" stop-color="#008FFF"/>
<stop offset="0.26" stop-color="#00ACFF"/>
<stop offset="0.51" stop-color="#00C0FF"/>
<stop offset="0.76" stop-color="#00CDFF"/>
<stop offset="1" stop-color="#00D1FF"/>
</linearGradient>
<linearGradient id="paint1_linear_120_332" x1="26.6541" y1="14.0017" x2="0.0674656" y2="14.0017" gradientUnits="userSpaceOnUse">
<stop stop-color="#FFD800"/>
<stop offset="1" stop-color="#FF8A00"/>
</linearGradient>
<linearGradient id="paint2_linear_120_332" x1="18.5729" y1="16.4967" x2="-6.19415" y2="41.4956" gradientUnits="userSpaceOnUse">
<stop stop-color="#FF3A44"/>
<stop offset="1" stop-color="#B11162"/>
</linearGradient>
<linearGradient id="paint3_linear_120_332" x1="-0.689065" y1="-7.57672" x2="10.3785" y2="3.5852" gradientUnits="userSpaceOnUse">
<stop stop-color="#328E71"/>
<stop offset="0.07" stop-color="#2D9571"/>
<stop offset="0.48" stop-color="#15BD74"/>
<stop offset="0.8" stop-color="#06D575"/>
<stop offset="1" stop-color="#00DE76"/>
</linearGradient>
</defs>
</svg>
