<svg width="25" height="22" viewBox="0 0 25 22" fill="none" xmlns="http://www.w3.org/2000/svg">
<path fill-rule="evenodd" clip-rule="evenodd" d="M18.4726 0.224635L24.3453 3.61006C24.4159 3.65303 24.4746 3.71307 24.516 3.78465C24.5574 3.85623 24.5802 3.93706 24.5822 4.01973L24.5774 17.845L18.7088 21.231C18.6337 21.2743 18.5486 21.2971 18.462 21.2971C18.3753 21.2971 18.2902 21.2743 18.2152 21.231L12.3584 17.8497L6.26547 21.3694V21.3789L0.396837 17.993C0.324075 17.9487 0.264015 17.8863 0.222499 17.8119C0.180983 17.7376 0.159424 17.6537 0.15992 17.5685V3.74879L6.02855 0.362847C6.09893 0.319115 6.18014 0.29594 6.263 0.29594C6.34586 0.29594 6.42707 0.319115 6.49745 0.362847L18.4716 7.27292L24.3453 3.61006L18.4717 7.27208L12.3668 3.74836L18.4717 0.224636V0.224121L18.4721 0.224378L18.4726 0.224121V0.224635Z" fill="#2853C3"/>
<path d="M0.160165 3.74561V17.5658C0.159669 17.6509 0.181227 17.7348 0.222743 17.8092C0.264259 17.8836 0.324319 17.9459 0.397082 17.9902L6.26571 21.3762V7.25987L0.160165 3.74561Z" fill="#60BEFF"/>
<path d="M18.4719 0.223145L24.3455 3.60908C24.4162 3.65205 24.4749 3.71209 24.5163 3.78367C24.5577 3.85525 24.5804 3.93608 24.5824 4.01875V17.8389L18.4719 14.3197V0.223145Z" fill="#1A4199"/>
<path d="M6.26489 21.3688L12.3657 17.8446L6.26489 14.3203V21.3688Z" fill="#3CA9E5"/>
<path d="M6.49769 0.359876L18.4719 7.26995V14.3182L0.160156 3.74581L6.02879 0.359876C6.09917 0.316144 6.18038 0.292969 6.26324 0.292969C6.3461 0.292969 6.42731 0.316144 6.49769 0.359876V0.359876Z" fill="#3CA9E5"/>
<path d="M18.4727 0.223145L12.3669 3.74738L18.4727 7.27162V0.223145Z" fill="#2853C3"/>
<path d="M24.5778 17.844L18.7092 21.2299C18.6341 21.2733 18.549 21.2961 18.4624 21.2961C18.3757 21.2961 18.2906 21.2733 18.2156 21.2299L6.24634 14.3199V7.26172L24.5778 17.844Z" fill="#2853C3"/>
</svg>
