<svg width="149" height="27" viewBox="0 0 149 27" fill="none" xmlns="http://www.w3.org/2000/svg">
<path fill-rule="evenodd" clip-rule="evenodd" d="M0.586474 4.58227C0.320824 4.58407 0.0875707 4.44405 0.0195384 4.24247C-0.048494 4.04089 0.0652527 3.82852 0.296706 3.72629L8.45878 0.0608228C8.59521 -1.03526e-05 8.75251 -0.0158484 8.90153 0.016188C9.05056 0.0482244 9.17762 0.125615 9.25393 0.231083C9.29116 0.279956 9.31579 0.33724 9.32565 0.397881C9.3355 0.458522 9.33028 0.520658 9.31045 0.578804C9.26977 0.696151 9.17114 0.79586 9.03688 0.855973L0.875161 4.5218C0.784301 4.56218 0.6859 4.58279 0.586474 4.58227Z" fill="#6E6E6E"/>
<path fill-rule="evenodd" clip-rule="evenodd" d="M16.9102 4.58273C16.8087 4.58309 16.709 4.56221 16.6212 4.52226L8.45908 0.856789C8.32481 0.796676 8.22618 0.696967 8.18551 0.579621C8.14483 0.462274 8.16535 0.337008 8.24202 0.2319C8.31869 0.126792 8.4454 0.048681 8.59442 0.0170045C8.74344 -0.0146719 8.90039 0.000806533 9.03717 0.0616397L17.1992 3.72711C17.4307 3.82934 17.5448 4.04171 17.4764 4.24293C17.408 4.44415 17.1755 4.58453 16.9098 4.58273" fill="#6E6E6E"/>
<path fill-rule="evenodd" clip-rule="evenodd" d="M16.9107 4.58227C16.645 4.58407 16.4118 4.44405 16.3438 4.24247C16.2757 4.04089 16.3895 3.82852 16.6209 3.72629L24.783 0.0608228C24.9194 -1.03526e-05 25.0767 -0.0158484 25.2258 0.016188C25.3748 0.0482244 25.5018 0.125615 25.5782 0.231083C25.6545 0.336551 25.6753 0.461818 25.6347 0.578804C25.594 0.695791 25.4954 0.79586 25.3611 0.855973L17.1994 4.52216C17.1085 4.56254 17.0101 4.58315 16.9107 4.58263" fill="#6E6E6E"/>
<path fill-rule="evenodd" clip-rule="evenodd" d="M33.2338 4.58273C33.1323 4.58309 33.0326 4.56221 32.9448 4.52226L24.7827 0.856789C24.6484 0.796676 24.5498 0.696967 24.5091 0.579621C24.4684 0.462274 24.4889 0.337008 24.5656 0.2319C24.6423 0.126792 24.769 0.048681 24.918 0.0170045C25.067 -0.0146719 25.224 0.000806533 25.3608 0.0616397L33.5229 3.72711C33.7543 3.82934 33.8684 4.04171 33.8 4.24293C33.7316 4.44415 33.4991 4.58453 33.2334 4.58273H33.2338ZM8.74757 7.78997C8.65758 7.78997 8.56903 7.77377 8.48696 7.74173L0.325238 4.5345C0.0487895 4.41643 -0.0588383 4.14754 0.0815458 3.92653C0.22193 3.70551 0.560292 3.61156 0.846459 3.71451L9.00854 6.92175C9.24971 7.01714 9.37606 7.23023 9.31378 7.43685C9.25151 7.64347 9.01754 7.78925 8.74757 7.79033" fill="#6E6E6E"/>
<path fill-rule="evenodd" clip-rule="evenodd" d="M8.74841 7.78985C8.47773 7.79021 8.24231 7.64407 8.18004 7.43709C8.11777 7.23011 8.24483 7.01666 8.48744 6.92163L16.6495 3.71439C16.9379 3.60136 17.2881 3.69315 17.4317 3.91957C17.5753 4.14598 17.4587 4.42135 17.1707 4.53438L9.00867 7.74161C8.92695 7.77329 8.8384 7.78985 8.74877 7.78985H8.74841ZM8.74806 15.1205C8.65807 15.1205 8.56951 15.1043 8.48744 15.0722L0.325727 11.865C0.0492778 11.7469 -0.0583501 11.478 0.0820341 11.257C0.222418 11.036 0.56078 10.942 0.846948 11.045L9.00903 14.2522C9.2502 14.3476 9.37654 14.5607 9.31427 14.7673C9.252 14.9739 9.01802 15.1197 8.74806 15.1208" fill="#6E6E6E"/>
<path fill-rule="evenodd" clip-rule="evenodd" d="M8.74863 15.1206C8.47794 15.121 8.24253 14.9748 8.18026 14.7679C8.11798 14.5609 8.24505 14.3474 8.48766 14.2524L16.6497 11.0452C16.9341 10.9487 17.2653 11.0437 17.4039 11.2615C17.5424 11.4793 17.4402 11.7442 17.171 11.8651L9.00888 15.0724C8.92717 15.1041 8.83862 15.1206 8.74899 15.1206H8.74863ZM25.0724 7.79003C24.9824 7.79003 24.8939 7.77383 24.8118 7.7418L16.6497 4.53456C16.3733 4.41649 16.2657 4.1476 16.406 3.92659C16.5464 3.70557 16.8848 3.61162 17.171 3.71457L25.333 6.92181C25.5742 7.0172 25.7006 7.23029 25.6383 7.43691C25.576 7.64353 25.342 7.78931 25.0721 7.79039" fill="#6E6E6E"/>
<path fill-rule="evenodd" clip-rule="evenodd" d="M25.0725 7.78985C24.8018 7.79021 24.5664 7.64407 24.5042 7.43709C24.4419 7.23011 24.5689 7.01666 24.8116 6.92163L32.9736 3.71439C33.262 3.60136 33.6122 3.69315 33.7558 3.91957C33.8995 4.14598 33.7828 4.42135 33.4949 4.53438L25.3328 7.74161C25.2511 7.77329 25.1625 7.78985 25.0729 7.78985H25.0725ZM0.585576 11.9136C0.263772 11.9136 0.00244141 11.7084 0.00244141 11.4553V4.12474C0.00244141 3.87169 0.263412 3.66652 0.585576 3.66652C0.90774 3.66652 1.16871 3.87169 1.16871 4.12474V11.4553C1.16871 11.7084 0.90774 11.9136 0.585576 11.9136ZM16.9094 11.9136C16.5876 11.9136 16.3262 11.7084 16.3262 11.4553V4.12474C16.3262 3.87169 16.5872 3.66652 16.9094 3.66652C17.2315 3.66652 17.4925 3.87169 17.4925 4.12474V11.4553C17.4925 11.7084 17.2315 11.9136 16.9094 11.9136ZM8.74765 15.1208C8.42585 15.1208 8.16452 14.9156 8.16452 14.6626V7.33198C8.16452 7.07893 8.42549 6.87375 8.74765 6.87375C9.06982 6.87375 9.33079 7.07893 9.33079 7.33198V14.6626C9.33079 14.9156 9.06982 15.1208 8.74765 15.1208Z" fill="#6E6E6E"/>
<path fill-rule="evenodd" clip-rule="evenodd" d="M25.0729 15.1203C24.8022 15.1206 24.5667 14.9745 24.5045 14.7675C24.4422 14.5605 24.5693 14.3471 24.8119 14.252L32.974 11.0448C33.2601 10.9419 33.5981 11.0358 33.7389 11.2568C33.8796 11.4778 33.7716 11.7467 33.4952 11.8648L25.3331 15.072C25.2514 15.1037 25.1628 15.1203 25.0732 15.1203H25.0729ZM16.9108 11.913C16.589 11.913 16.3276 11.7079 16.3276 11.4548V4.12425C16.3276 3.8712 16.5886 3.66602 16.9108 3.66602C17.2329 3.66602 17.4939 3.8712 17.4939 4.12425V11.4548C17.4939 11.7079 17.2329 11.913 16.9108 11.913Z" fill="#6E6E6E"/>
<path fill-rule="evenodd" clip-rule="evenodd" d="M33.2341 11.913C32.9123 11.913 32.651 11.7079 32.651 11.4548V4.12425C32.651 3.8712 32.912 3.66602 33.2341 3.66602C33.5563 3.66602 33.8173 3.8712 33.8173 4.12425V11.4548C33.8173 11.7079 33.5563 11.913 33.2341 11.913ZM25.0721 15.1203C24.7503 15.1203 24.4889 14.9151 24.4889 14.662V7.33148C24.4889 7.07843 24.7499 6.87326 25.0721 6.87326C25.3942 6.87326 25.6552 7.07843 25.6552 7.33148V14.662C25.6552 14.9151 25.3942 15.1203 25.0721 15.1203ZM8.74863 15.1203C8.47794 15.1206 8.24253 14.9745 8.18026 14.7675C8.11798 14.5605 8.24505 14.3471 8.48766 14.252L16.6497 11.0448C16.9341 10.9483 17.2653 11.0434 17.4039 11.2611C17.5424 11.4789 17.4402 11.7438 17.171 11.8648L9.00924 15.072C8.92753 15.1037 8.83898 15.1203 8.74935 15.1203" fill="#6E6E6E"/>
<path fill-rule="evenodd" clip-rule="evenodd" d="M25.0722 15.1201C24.9823 15.1201 24.8937 15.1039 24.8116 15.0718L16.6499 11.8646C16.3735 11.7465 16.2658 11.4776 16.4062 11.2566C16.5466 11.0356 16.885 10.9417 17.1711 11.0446L25.3332 14.2518C25.5744 14.3472 25.7007 14.5603 25.6385 14.7669C25.5762 14.9736 25.3422 15.1193 25.0722 15.1204V15.1201ZM16.9102 18.3277C16.8202 18.3277 16.7316 18.3115 16.6496 18.2794L8.48784 15.0722C8.21139 14.9541 8.10376 14.6852 8.24414 14.4642C8.38453 14.2432 8.72289 14.1493 9.00906 14.2522L17.1708 17.4594C17.4119 17.5548 17.5383 17.7679 17.476 17.9745C17.4137 18.1812 17.1798 18.3269 16.9098 18.328" fill="#6E6E6E"/>
<path fill-rule="evenodd" clip-rule="evenodd" d="M16.9109 18.328C16.6402 18.3283 16.4048 18.1822 16.3425 17.9752C16.2802 17.7683 16.4073 17.5548 16.6499 17.4598L24.812 14.2525C25.1003 14.1395 25.4506 14.2313 25.5942 14.4577C25.7378 14.6841 25.6212 14.9595 25.3332 15.0725L17.1711 18.2798C17.0894 18.3114 17.0009 18.328 16.9112 18.328H16.9109ZM16.9105 26.575C16.8205 26.575 16.732 26.5588 16.6499 26.5268L8.48784 23.3195C8.21139 23.2015 8.10376 22.9326 8.24414 22.7116C8.38453 22.4906 8.72289 22.3966 9.00906 22.4996L17.1711 25.7068C17.4123 25.8022 17.5387 26.0153 17.4764 26.2219C17.4141 26.4285 17.1801 26.5743 16.9102 26.5754" fill="#6E6E6E"/>
<path fill-rule="evenodd" clip-rule="evenodd" d="M16.91 26.5741C16.6332 26.5741 16.3949 26.4211 16.3392 26.208C16.2834 25.995 16.4263 25.7808 16.6804 25.6947L24.8425 22.9457C25.035 22.8748 25.2618 22.8917 25.4339 22.9904C25.6059 23.089 25.6956 23.2539 25.6682 23.4194C25.6409 23.585 25.5001 23.7265 25.3018 23.787L17.1397 26.536C17.0658 26.5613 16.9882 26.5741 16.91 26.5741Z" fill="#6E6E6E"/>
<path fill-rule="evenodd" clip-rule="evenodd" d="M25.072 23.8254C24.7502 23.8254 24.4888 23.6203 24.4888 23.3672V14.6623C24.4888 14.4093 24.7498 14.2041 25.072 14.2041C25.3941 14.2041 25.6551 14.4093 25.6551 14.6623V23.3676C25.6551 23.6206 25.3941 23.8258 25.072 23.8258V23.8254ZM8.74817 23.3676C8.42637 23.3676 8.16504 23.1624 8.16504 22.9093V14.6623C8.16504 14.4093 8.42601 14.2041 8.74817 14.2041C9.07034 14.2041 9.33131 14.4093 9.33131 14.6623V22.9093C9.33131 23.1624 9.07034 23.3676 8.74817 23.3676ZM16.9103 26.5748C16.5884 26.5748 16.3271 26.3696 16.3271 26.1166V17.8692C16.3271 17.6161 16.5881 17.411 16.9103 17.411C17.2324 17.411 17.4934 17.6161 17.4934 17.8692V26.1162C17.4934 26.3693 17.2324 26.5744 16.9103 26.5744" fill="#6E6E6E"/>
<path d="M50.1605 21.6631C48.7034 21.6631 47.3874 21.3005 46.2135 20.5752C45.043 19.8499 44.1239 18.8529 43.4557 17.5849C42.7914 16.3124 42.459 14.8809 42.459 13.2903C42.459 11.6997 42.7914 10.2682 43.4557 8.99575C44.1239 7.72328 45.0469 6.72439 46.2248 5.99909C47.4067 5.27378 48.7261 4.91113 50.1832 4.91113C51.3231 4.91113 52.3651 5.12554 53.3091 5.55372C54.2531 5.98191 55.0572 6.61814 55.7215 7.46242L54.368 8.93849C53.2734 7.64057 51.9064 6.99161 50.2681 6.99161C49.1848 6.99161 48.2051 7.26519 47.3291 7.81235C46.453 8.35951 45.7701 9.11218 45.2791 10.071C44.7847 11.0298 44.5373 12.1024 44.5373 13.2903C44.5373 14.4737 44.7847 15.5445 45.2791 16.5033C45.7701 17.4659 46.453 18.2192 47.3291 18.7619C48.2051 19.3091 49.1848 19.5826 50.2681 19.5826C51.8917 19.5826 53.2581 18.9273 54.368 17.6167L55.7215 19.0927C55.0572 19.9326 54.2491 20.5707 53.2977 21.0078C52.3464 21.4449 51.3004 21.6631 50.1605 21.6631ZM69.2416 21.4786L67.6333 17.3813H59.8865L58.2839 21.4786H56.1377L62.7406 5.102H64.8019L71.4275 21.4786H69.2416ZM60.617 15.5107H66.9085L63.7599 7.48787L60.617 15.5107ZM73.5913 21.4786V5.102H79.7355C81.2758 5.102 82.6439 5.44365 83.8411 6.12633C85.0337 6.81346 85.9607 7.77863 86.6215 9.0212C87.2784 10.2599 87.6069 11.6825 87.6069 13.2903C87.6069 14.8981 87.2784 16.3207 86.6215 17.5594C85.9607 18.7982 85.0337 19.7608 83.8411 20.4479C82.6439 21.1351 81.2758 21.4786 79.7355 21.4786H73.5913ZM75.6752 19.4427H79.6109C80.7922 19.4427 81.8308 19.1863 82.7255 18.6728C83.6202 18.1556 84.3111 17.4322 84.7981 16.5033C85.2851 15.5788 85.5286 14.5074 85.5286 13.2903C85.5286 12.0732 85.2851 10.9999 84.7981 10.071C84.3111 9.14208 83.6202 8.42123 82.7255 7.90779C81.8308 7.39435 80.7922 7.13795 79.6109 7.13795H75.6752V19.4427ZM92.8779 19.4427H101.372V21.4786H90.794V5.102H101.083V7.13795H92.8779V12.1642H100.189V14.1556H92.8779V19.4427ZM115.202 5.102H117.285V21.4786H115.581L106.832 9.26296V21.4786H104.748V5.102H106.458L115.202 17.3113V5.102ZM123.16 19.4427H132.554V21.4786H120.368V19.888L129.53 7.13795H120.515V5.102H132.283V6.69258L123.16 19.4427ZM146.238 21.4786L144.629 17.3813H136.882L135.28 21.4786H133.134L139.737 5.102H141.798L148.423 21.4786H146.238ZM137.613 15.5107H143.904L140.756 7.48787L137.613 15.5107Z" fill="#6E6E6E"/>
</svg>
