<svg width="500" height="64" viewBox="0 0 500 64" fill="none" xmlns="http://www.w3.org/2000/svg">
<path d="M88.7499 13.3331L90.333 13.6664C94.0829 14.4164 94.5832 16.6664 94.5832 18.6664V44.7497C94.5832 46.9163 94.0829 48.9997 90.333 49.7497L88.7499 50.083V50.9164H107.25V50.083L105.667 49.7497C101.917 48.9997 101.416 46.9163 101.416 44.7497V18.7497C101.416 16.6664 101.917 14.4997 105.667 13.7497L107.25 13.4163V12.583H88.7499V13.3331Z" fill="#94A8B6"/>
<path d="M466 12.5V25.4166H466.75L468.667 20.6666C470.583 16 472.5 13.4166 477.5 13.4166H479.584V44.75C479.584 46.75 479.083 49.1667 475.334 49.75L473.75 49.9999V50.8333H492.25V49.9999L490.667 49.75C486.916 49.1667 486.417 46.75 486.417 44.75V13.4166H488.5C493.5 13.4166 495.417 16 497.333 20.6666L499.25 25.4166H500V12.5H466Z" fill="#94A8B6"/>
<path d="M449.417 13.3333L450.916 13.5C453.75 13.9167 456.333 15.3333 456.417 22.5833L456.583 40.0833L441.75 22.5C437.333 17.25 435.5 15 434.167 12.6666L434.083 12.5H420.5V13.3333L420.749 13.4166C423.583 13.9167 425.333 15.0833 428.25 18.25L428.833 18.8333V38.9166C428.833 47.5 426.166 48.9167 422.833 49.75L421.75 49.9999V50.8333H437V49.9999L435.917 49.75C433 49 430 48.1666 429.916 38.9166L429.75 19.8333L456.667 51.5L456.75 51.5833H457.583V22.5833C457.583 15.2499 460.333 13.9167 463.083 13.5L464.583 13.3333V12.5H449.499L449.417 13.3333Z" fill="#94A8B6"/>
<path d="M293.5 44.0003C290.916 48.3336 287.833 50.0003 282 50.0003H280.417C277.166 50.0003 275.75 48.417 275.75 44.8336V31.5837L278.166 31.6669C283.999 31.7503 285.583 32.0003 287.416 37.667L288.082 39.7503H288.916V22.5837H288.082L287.416 24.6669C285.666 30.2503 283.916 30.5837 278.166 30.6669L275.75 30.7503V13.5003H279.833C286.749 13.5003 289.833 14.917 292.083 19.167L294.666 23.917H295.416V12.667H262.916V13.5003L264.499 13.8336C267.999 14.5836 268.749 16.2503 268.749 18.667V44.7503C268.749 46.7503 268.25 49.1669 264.499 49.7503L262.916 50.0003V50.8336H296.833V39.5836H296.083L293.5 44.0003Z" fill="#94A8B6"/>
<path d="M414.917 44.0003C412.334 48.3336 409.251 50.0003 403.416 50.0003H401.833C398.583 50.0003 397.166 48.417 397.166 44.8336V31.5837L399.583 31.6669C405.417 31.7503 407 32.0003 408.834 37.667L409.5 39.7503H410.333V22.5837H409.5L408.834 24.6669C407.084 30.2503 405.334 30.5837 399.583 30.6669L397.166 30.7503V13.5003H401.25C408.083 13.5003 411.25 14.917 413.5 19.167L416.084 23.917H416.834V12.667H384.333V13.5003L385.917 13.8336C389.417 14.5836 390.167 16.2503 390.167 18.667V44.7503C390.167 46.7503 389.667 49.1669 385.917 49.7503L384.333 50.0003V50.8336H418.25V39.5836H417.5L414.917 44.0003Z" fill="#94A8B6"/>
<path d="M164.417 44.6666V13.4166H169.25C178.918 13.4166 184.751 20.25 184.751 31.6667C184.751 43.25 179.251 49.9167 169.75 49.9167H168.583C165.167 50 164.417 47.8333 164.417 44.6666ZM170.917 12.5H136.668V13.3333L138.167 13.5C141.584 14 143.667 15.5 143.667 21.5L143.834 40.0833L129.001 22.5833C124.667 17.4167 122.751 15.0833 121.418 12.75L121.334 12.5833H107.75V13.4166L108 13.5C110.834 14 112.584 15.1667 115.501 18.3333L116.084 18.9167V39C116.084 47.5833 113.417 49 110.084 49.8333L109 50.0833V50.9166H124.25V50.0833L123.167 49.8333C120.251 49.0833 117.251 48.25 117.167 39L117 19.9167L144 51.75H144.834V20.75C144.834 15.9166 147.001 13.5 151.25 13.5C155.5 13.5 157.667 15.9166 157.667 20.75V44.75C157.667 47 157.167 49.1667 153.417 49.75L151.834 49.9999V50.8333H171C177.667 50.8333 183.167 48.75 187.084 44.9166C190.584 41.4166 192.5 36.6666 192.5 31.5C192.5 26.3334 190.584 21.6666 187.084 18.25C183.084 14.5 177.583 12.5 170.917 12.5Z" fill="#94A8B6"/>
<path d="M355.75 44.6666V13.4166H360.583C370.25 13.4166 376.083 20.25 376.083 31.6667C376.083 43.25 370.583 49.9167 361.084 49.9167H359.917C356.417 50 355.75 47.8333 355.75 44.6666ZM362.25 12.5H328V13.3333L329.5 13.5C332.917 14 334.917 15.5 335 21.5L335.167 40.0833L320.333 22.5C315.917 17.25 314.083 15 312.75 12.6666L312.666 12.5H299.084V13.3333L299.333 13.4166C302.167 13.9167 303.917 15.0833 306.833 18.25L307.417 18.8333V38.9166C307.417 47.5 304.75 48.9167 301.417 49.75L300.333 49.9999V50.8333H315.583V49.9999L314.5 49.75C311.584 49 308.583 48.1666 308.5 38.9166L308.333 19.8333L335.25 51.5L335.333 51.5833H336.167V20.5834C336.167 15.75 338.333 13.3333 342.583 13.3333C346.834 13.3333 349.001 15.75 349.001 20.5834V44.75C349.001 47 348.5 49.1667 344.75 49.75L343.166 49.9999V50.8333H362.333C369 50.8333 374.5 48.75 378.417 44.9166C381.917 41.4166 383.833 36.6666 383.833 31.5C383.833 26.3334 381.917 21.6666 378.417 18.25C374.417 14.5 368.833 12.5 362.25 12.5Z" fill="#94A8B6"/>
<path d="M247.417 12.5H230.833V13.3333L232.416 13.6666C236.166 14.4167 236.667 16.5 236.667 18.6667V44.75C236.667 46.9166 236.166 49 232.416 49.75L230.833 50.0833V50.9166H250.083V50.0833L248.833 49.8333C244.5 48.9167 243.667 48 243.667 44.2499V13.4166H245.333C251.25 13.4166 254.75 17.4167 254.75 24.0834C254.75 30.75 251.25 34.75 245.333 34.75H244.916V35.6666H247.5C256.166 35.6666 262.166 30.9166 262.166 24.0834C262.083 17.25 256.083 12.5 247.417 12.5Z" fill="#94A8B6"/>
<path d="M223.666 44.0003C221.084 48.3336 218 50.0003 212.084 50.0003H210.5C207.25 50.0003 205.834 48.417 205.834 44.8336V31.5837L208.25 31.6669C214.083 31.7503 215.666 32.0003 217.5 37.667L218.167 39.7503H219V22.5837H218.167L217.5 24.6669C215.75 30.2503 214 30.5837 208.25 30.6669L205.834 30.7503V13.5003H209.917C216.75 13.5003 219.917 14.917 222.25 19.167L224.833 23.917H225.584V12.667H193.084V13.5003L194.667 13.8336C198.167 14.5836 198.917 16.2503 198.917 18.667V44.7503C198.917 46.7503 198.417 49.1669 194.667 49.7503L193.084 50.0003V50.8336H227V39.5836H226.25L223.666 44.0003Z" fill="#94A8B6"/>
<path fill-rule="evenodd" clip-rule="evenodd" d="M0 32C0 14.3334 14.3333 0 32 0C49.75 0 64 14.3334 64 32C64 49.6667 49.6666 64 32 64C14.3333 64 0 49.6667 0 32ZM49.6843 43.9867C50.1372 44.2655 50.2355 44.3259 50.5834 44.4999C51.6668 45.1666 51.6668 47.0832 49.5001 46.8332C47.8334 46.8332 44.75 47.1666 42.9167 47.4999L44.5834 46L44.5 45.9166C43.3334 46.7499 42.1668 47.4166 40.9167 48.0832C39.8334 48.4999 38.3335 49.1666 36.6668 49.9166L39.0834 47.6665L39.0001 47.5833C39.0001 47.5833 35.9167 50.0833 33.7501 51.2499C33.1182 51.5263 32.5425 51.8028 32.0407 52.0438C31.4836 52.3112 31.0175 52.535 30.6668 52.6666C29.7501 53.0832 29.0835 53.1666 28.0834 52.8332C26.8384 52.4401 26.2117 52.2015 25.3525 51.8744C25.1191 51.7855 24.8683 51.6901 24.5834 51.5832C23.8334 51.2499 23.75 50.1666 24.5834 49.9166C24.7604 49.8724 25.1255 49.7575 25.5164 49.6347C25.8615 49.5262 26.2266 49.4114 26.5001 49.3332L27.3334 49.6666C27.6319 49.7661 27.9006 49.8952 28.1573 50.0187C28.3308 50.102 28.4988 50.1827 28.6668 50.2499C28.7501 50.2916 28.8542 50.3332 28.9584 50.3749C29.0626 50.4166 29.1667 50.4583 29.2501 50.4999L29.4168 50.5832H29.5C29.5417 50.6249 29.5834 50.6457 29.6251 50.6666C29.6668 50.6874 29.7085 50.7083 29.7501 50.75C29.8334 50.8332 29.9167 50.9166 30.0001 51.0833C30.0834 51.1665 30.0834 51.3333 30.0834 51.4166V51.6666V51.7499H30.1667V51.6666C30.2501 51.5832 30.2501 51.4999 30.2501 51.4166C30.3039 51.3089 30.2882 51.236 30.2704 51.153C30.2606 51.1075 30.2501 51.0589 30.2501 50.9999C30.2501 50.8332 30.1667 50.7499 30.0001 50.5832C29.9584 50.5415 29.9168 50.5207 29.8751 50.4999C29.8334 50.4791 29.7917 50.4583 29.7501 50.4166H29.6668C29.6251 50.4166 29.6043 50.3958 29.5834 50.3749C29.5626 50.3541 29.5417 50.3333 29.5 50.3333C29.4168 50.2916 29.3126 50.2291 29.2084 50.1666C29.1043 50.1041 29.0001 50.0416 28.9167 49.9999C28.5 49.8333 28.0834 49.5832 27.6667 49.3332C27.2579 49.1102 26.849 48.8706 26.4623 48.644C25.9821 48.3626 25.5361 48.1012 25.1668 47.9166C25.1668 47.9166 28.4168 46.9166 32.5834 45.7499L33.2501 46.0832V46L32.8334 45.6666L31.8334 44.8332L31.3335 44.6666L31.0001 43.7499L30.5001 43.4999L30.0834 41.4166H30.0001L30.1667 43.6666L28.9167 44.4166V41.4166H28.8334L28.5 44.5832L26.7501 44.9166L27.3334 41.4999H27.25L26.1668 44.9999L24.5001 45.0832L25.7501 41.4166H25.6667L23.8334 45.1666L22.1667 45.2499L24.0834 41.4166H24.0001L20.8334 45.8332L19.0834 46.0832L22.0001 41.8333L21.9167 41.7499L17.0001 47.4166L16.7501 47.2499L21.0834 40.4166L27.7501 37.9166C27.7501 37.9166 28.2501 37.6666 28.5 37.5832C28.6221 37.5832 28.6995 37.5386 28.7975 37.482C28.8334 37.4613 28.8721 37.439 28.9167 37.4166C28.9584 37.4166 29.0001 37.3958 29.0418 37.375C29.0835 37.3541 29.1251 37.3333 29.1667 37.3333C29.1667 37.2817 29.1986 37.2621 29.2426 37.2349C29.2697 37.2181 29.3016 37.1984 29.3334 37.1665L29.6668 36.8332L29.7501 36.7499L29.8334 36.6666L30.0001 36.4999C30.0001 36.4583 30.0209 36.4375 30.0418 36.4166C30.0626 36.3958 30.0834 36.3749 30.0834 36.3332C30.0834 36.2916 30.1042 36.2707 30.125 36.2499C30.1459 36.2291 30.1667 36.2082 30.1667 36.1665C30.1667 36.125 30.1876 36.1041 30.2084 36.0833C30.2292 36.0624 30.2501 36.0416 30.2501 35.9999C30.2501 35.9582 30.2709 35.9374 30.2918 35.9166C30.3126 35.8957 30.3334 35.8749 30.3334 35.8332C30.3334 35.7356 30.362 35.6666 30.3857 35.6094C30.4024 35.5689 30.4167 35.5344 30.4167 35.4999C30.5001 35.4166 30.5001 35.3332 30.5001 35.2499V35.0833V34.9999H30.4167V35.0833V35.2499C30.4167 35.2916 30.3959 35.3332 30.3751 35.3749C30.3543 35.4166 30.3334 35.4583 30.3334 35.4999C30.3334 35.5832 30.3334 35.6666 30.2501 35.7499C30.2501 35.7916 30.2292 35.8125 30.2084 35.8332C30.1876 35.854 30.1667 35.8749 30.1667 35.9165C30.1667 35.9582 30.1459 35.9791 30.125 35.9999C30.1042 36.0208 30.0834 36.0416 30.0834 36.0833C30.0834 36.1186 30.0834 36.139 30.077 36.1571C30.0683 36.1817 30.048 36.202 30.0001 36.2499L29.8334 36.4166L29.6668 36.5832L29.5834 36.6666L29.5 36.7499C29.4584 36.7915 29.396 36.8332 29.3334 36.8749C29.2709 36.9166 29.2084 36.9583 29.1667 36.9999C29.1667 36.9999 29.0835 37.0833 29.0001 37.0833C29.0001 37.0833 28.9167 37.1665 28.8334 37.1665C28.7501 37.2082 28.6876 37.2291 28.6251 37.2499C28.5626 37.2708 28.5 37.2916 28.4168 37.3333C28.3334 37.361 28.2408 37.3888 28.1482 37.4166C27.963 37.4721 27.7778 37.5277 27.6667 37.5832C27.5903 37.6214 27.4963 37.6421 27.409 37.6614C27.3059 37.6841 27.2118 37.7048 27.1668 37.7499L26.7501 36.9166L27.5834 36.1665V36.0833L25.2501 37.4999L24.6667 36.4166L27.8335 34.0833L27.7501 33.9999L23.0001 36.8332L22.5834 35.6666L27.0834 32.6665V32.5833L21.2501 35.7499L21.0001 34.6666L25.9168 31.5833V31.4999L19.9167 34.5832L19.7501 33.3332L24.6667 30.6666V30.5833L18.5001 33.1666V31.9166L23.5001 29.9999V29.9166L17.4167 31.5833L17.5001 30.2499L22.0835 29.1665V29.0833L16.1667 29.9166L16.3335 28.7499L20.6667 28.2499V28.1666L14.5834 28.2499L14.6668 27.2499H19.5001V27.1666L10.8334 26.4999V26.4166L12.25 25.9166V25.8332L8.66676 24.4166V24.3333L10.0834 24.2499V24.1666L7.00009 22.2499V22.1665L9.16672 22.3333V22.2499L6.66676 19.9166V19.8333L7.83342 20.0833V19.9999L6.66676 18.4999L5.91676 16.4165H6.0001L7.16676 17.8333L8.75702 18.7567L11.5834 21.4999L18.4167 22.9999V22.9166L11.8334 21.0833L8.76543 18.7616L9.75012 19.3332L9.8334 19.2499L8.16676 16.8332L7.58342 14.1666H7.66675L9.00007 16.1666L10.2456 17.171L10.1668 17.2499L12.6667 20.1666L18.5835 21.6666V21.5832L13.0001 19.7499L10.3109 17.2237L11.5834 18.25L11.6667 18.1666L10.0834 15.3333L9.5001 11.8333H9.58339L11.0834 14.8332L14.3334 17.4999L14.4168 17.4166L12.1668 13.8333L11.6667 9.58328H11.7501L13.1668 13.4166L14.3867 14.5035L16.5834 18.0832L21.1667 19.8333L21.2501 19.7499L17.0001 17.7499L14.873 14.9367L17.7501 17.4999L23.5001 20.4166L29.8334 29.2499L32.3334 31.3333L32.4167 31.2499L31.3335 29.8332L33.8334 29.1665V29.0833L31.6668 28.9166V28.8332L34.9167 28.2499V28.1666L30.9168 27.8333V27.7499L36.0834 26.9165L38.1667 27.4166V27.3332L36.2501 26.4166L33.0834 26.4999V26.4166L36.5 25.7499L38.5834 26.4999V26.4166L36.6668 25.1666L34.4168 25.0832V24.9999L36.9167 24.5833L39.1667 25.5833V25.4999L37.3334 23.7499H35.3334V23.6666L37.75 23.0832L39.9168 24.8333L40 24.7499L38.3335 22.3333L36.5 21.9999V21.9166L38.75 21.7499L40.8334 24.2499L40.9167 24.1666L39.4167 21.0833L37.4167 20.4166V20.3332L39.9168 20.4999L41.8335 23.7499H41.9167L40.6667 19.9166L38.1667 18.9999V18.9166L41.1668 19.4166L42.8334 23.4165H42.9167L41.8335 18.9999L39.1667 17.4999V17.4166L42.3334 18.5833L43.8334 22.9999H43.9167L43.0001 18.1666L40.0834 16.0832L40.1668 15.9999L43.5 17.8333L44.8334 22.4999H44.9167L44.0835 17.4999L41.0834 14.8332L41.1668 14.75L44.6668 17.1666L45.6668 21.9166H45.75L45.2501 16.8332L42.25 13.5832L42.3334 13.5L45.8334 16.4999L46.5834 21.0833H46.6667L46.3334 16.2499L43.5 12.4999L43.5834 12.4166L46.9168 15.9166L47.4167 19.9166H47.5001L47.3334 15.7499L44.75 11.7499L44.8334 11.6665L47.8334 15.4999L48.25 18.3332H48.3334L48.1668 15.2499L46.3334 11.0832H46.4167L48.7501 14.9999L49.0001 16.5833H49.0834L49.1668 14.75L48.1668 10.8332H48.25L49.5834 14.0833H49.6667L50.5 10.8332H50.5834L50.3334 14.0833H50.4168L52.6668 10.8332H52.75L51.3334 13.7499L51.4168 13.8333L54.8334 11.4166L54.9168 11.4999L49.6667 18.4999C49.6667 18.4999 48.0001 22.9999 47.4167 24.4999C47.3334 24.7499 47.0834 24.9999 46.8334 25.0832L42.5834 26.7499L41.5001 27.7499L37.75 28.1666V28.2499H41.5001C41.5001 28.2499 42.6667 28.6666 44.2501 29.3333C44.9168 29.5832 45.3334 30.2499 45.2501 30.9999C45.2501 30.9999 45.8334 31.5833 46.1667 31.9999C46.5834 32.4999 46.6667 33.1666 46.3334 33.5833C46.1667 33.9166 45.8334 34.0832 45.4167 34.1666V34.0833C45.6668 33.9166 45.5834 33.4999 45.3334 33.1666C45.0834 32.8333 44.9168 32.7499 44.6668 32.9166C44.5834 32.9999 44.4167 33.0832 44.4167 33.0832L45.0001 33.9999V34.0833C44.5 34.2499 43.9167 34.1666 43.5834 33.7499H40.6667V33.8333L42.25 34.0833L42.3334 34.1666L36.8334 40.6665L36.9167 40.7499L38.75 39.0832V40.5833L38.5834 40.9999L38.75 41.9999L38.6668 42.4166L40.4167 43.9166H40.5001H40.5834C40.5834 43.9999 40.6667 43.9999 40.6667 43.9999C40.6667 44.0833 40.7501 44.0833 40.7501 44.0833L40.8334 44.1665L40.9167 44.2499L41.0001 44.3333L41.0834 44.4166C41.1668 44.4166 41.1668 44.4999 41.1668 44.4999C41.2085 44.4999 41.2085 44.5207 41.2085 44.5416C41.2085 44.5624 41.2085 44.5832 41.25 44.5832C41.3334 44.5832 41.3334 44.6666 41.3334 44.6666V44.7499V44.8332V44.9166H41.4168V44.8332V44.7499V44.6666V44.5832V44.4999V44.3333C41.4168 44.2916 41.3959 44.2707 41.3751 44.2499C41.3542 44.2291 41.3334 44.2082 41.3334 44.1665C41.3334 44.1249 41.3126 44.1041 41.2917 44.0833C41.2709 44.0624 41.25 44.0416 41.25 43.9999C41.25 43.9999 41.25 43.9166 41.1668 43.9166C41.1251 43.9166 41.1043 43.8957 41.0834 43.8749C41.0626 43.854 41.0417 43.8332 41.0001 43.8332C40.9167 43.7499 40.9167 43.7499 40.8334 43.7499H40.7501L41.4168 43.5832H41.5001C41.5001 43.6666 41.5834 43.6666 41.5834 43.6666C41.5834 43.75 41.6667 43.7499 41.6667 43.7499L41.7501 43.8332L41.8335 43.9166L41.9167 43.9999L42.0001 44.0833C42.0834 44.0833 42.0834 44.1665 42.0834 44.1665C42.1668 44.1665 42.1668 44.2499 42.1668 44.2499C42.2501 44.2499 42.25 44.3333 42.25 44.3333V44.4166V44.4999V44.5832H42.3334V44.4999V44.4166V44.3333V44.2499V44.1665V43.9999C42.3334 43.9166 42.2501 43.8332 42.1668 43.7499C42.1668 43.7499 42.1668 43.6666 42.0834 43.6666C42.0417 43.6666 42.0209 43.6458 42.0001 43.6249C41.9792 43.6041 41.9584 43.5832 41.9167 43.5832C41.8335 43.4999 41.8334 43.4999 41.7501 43.4999C44.75 42.8333 47.0834 42.4166 47.0834 42.4166C48.5574 43.293 49.2696 43.7314 49.6843 43.9867ZM14.873 14.9367L14.4168 14.3333L14.3334 14.4166L14.3867 14.5035L14.873 14.9367ZM10.3109 17.2237L10.2501 17.1666L10.2456 17.171L10.3109 17.2237ZM8.76543 18.7616L8.75009 18.7499L8.75702 18.7567L8.76543 18.7616ZM45.4584 31.9166C45.3126 31.7707 45.1667 31.625 45.0001 31.4999L44.6668 31.9166L45.6668 32.6665L45.75 32.7499V32.8333V32.9166C45.8334 32.9166 45.8334 32.9999 45.8334 32.9999C45.9168 32.9999 45.9168 33.0832 45.9168 33.0832V33.1666V33.25V33.3332V33.4166V33.4999V33.5833H46.0001V33.4999V33.4166C46.048 33.3686 46.0683 33.3483 46.077 33.3238C46.0834 33.3057 46.0834 33.2853 46.0834 33.25V33.1666V33.0832V32.9166V32.7499C46.0001 32.6665 46.0001 32.6665 46.0001 32.5833V32.4999V32.4166L45.9168 32.3332C45.75 32.2083 45.6043 32.0624 45.4584 31.9166ZM43.4168 30.4166L43.3334 30.4999C43.2501 30.5832 43.2501 30.5833 43.2501 30.6666C43.2501 30.7499 43.1667 30.7499 43.0001 30.5833V30.6666V30.7499L43.0834 30.8332L43.1667 30.9166H43.2501C43.2501 30.9999 43.3334 30.9999 43.3334 30.9999C43.3334 31.0832 43.4168 31.0832 43.5 31.0832H43.5834H43.6668C43.6986 31.0514 43.7304 31.0318 43.7576 31.015C43.8016 30.9878 43.8334 30.9681 43.8334 30.9166C43.8813 30.8687 43.9017 30.8483 43.9103 30.8238C43.9167 30.8057 43.9167 30.7853 43.9167 30.7499V30.6666V30.5833V30.4999C43.8334 30.4999 43.8334 30.4166 43.8334 30.4166H43.7501V30.4999V30.5833H43.6668H43.5834V30.4999L43.6668 30.4166L43.5834 30.3333H43.5C43.5 30.4166 43.4168 30.4166 43.4168 30.4166ZM43.1251 32.7499C43.1043 32.7707 43.0834 32.7916 43.0834 32.8333V32.9166V32.9999V33.0832V33.1666V33.25C43.1667 33.3332 43.1667 33.3332 43.1667 33.3332H43.2501V33.25V33.1666V33.0832V32.9999V32.9166C43.3334 32.9166 43.3334 32.8333 43.3334 32.8333C43.3334 32.7499 43.4168 32.7499 43.4168 32.7499H43.5H43.5834H43.6668H43.7501H43.8334H43.9167L44.0001 32.6665V32.5833V32.4999H43.9167H43.8334H43.7501H43.6668H43.4168C43.3751 32.4999 43.3543 32.5207 43.3334 32.5416C43.3126 32.5624 43.2917 32.5833 43.2501 32.5833C43.1667 32.5833 43.1667 32.6665 43.1667 32.6665C43.1667 32.7082 43.1459 32.7291 43.1251 32.7499ZM9.25009 22.2499V22.3333L11.6667 23.3333L18.4167 24.3333V24.1666L9.25009 22.2499ZM14.1667 25.0832L19.0001 25.4999V25.4166L11.7501 24.2499V24.3333L14.1667 25.0832ZM14.3334 18.9999L19.2501 20.5832V20.4999L14.7501 18.6666L12.4168 16.1666L12.3334 16.2499L14.3334 18.9999ZM19.7501 21.2499L19.8335 22.3333L22.1667 20.9165L22.0835 20.8333L19.9167 21.9166L19.8335 21.2499H19.7501ZM20.1668 22.8332V23.9166L23.2501 22.0833L23.1667 21.9999L20.3334 23.4999L20.2501 22.8332H20.1668ZM21.0001 24.3333L21.0834 25.4166L24.2501 23.4165L24.1667 23.3333L21.1667 24.9999L21.0834 24.3333H21.0001ZM22.1667 26.6665H22.2501L25.3334 24.8333L25.2501 24.7499L22.3334 26.2499L22.2501 25.5833H22.1667V26.6665ZM23.6668 26.6665L23.75 27.7499L26.5001 26.0832L26.4168 25.9999L23.8334 27.3332L23.75 26.6665H23.6668ZM25.2501 27.6666L25.3334 28.7499L27.6667 27.2499L27.5834 27.1666L25.4167 28.2499L25.3334 27.6666H25.2501ZM26.8335 29.75H26.9167L28.5834 28.6666L28.5 28.5832L27.0001 29.3333L26.9167 28.7499H26.8335V29.75ZM28.2501 29.8332V30.7499L29.5834 29.8332L29.5 29.75L28.4168 30.2499L28.3334 29.8332H28.2501ZM29.2501 30.9166V31.7499L30.8334 30.8332L30.75 30.7499L29.4168 31.3333L29.3334 30.9166H29.2501ZM30.0001 33.4999V34.1666L30.8334 33.5833L30.75 33.4999L30.0834 33.7499V33.4999H30.0001ZM29.7501 32.2499V32.9166L30.8334 32.1666L30.75 32.0832L29.8334 32.4999V32.2499H29.7501ZM26.2501 39.7499L26.1668 40.0832L26.7501 39.6665V39.5833H26.0001V39.6665L26.2501 39.7499ZM28.3334 39.7499L28.2501 40.0832L28.8334 39.6665V39.5833H28.0834V39.6665L28.3334 39.7499ZM28.0001 51.8332L28.7501 52.0832L28.0001 51.6666C27.875 51.6249 27.7501 51.5624 27.6251 51.4999C27.5001 51.4374 27.3751 51.3749 27.25 51.3332L26.2501 50.8332L27.25 50.3333V50.2499L25.7501 50.6666C25.7183 50.6984 25.6864 50.7181 25.6593 50.7349C25.6153 50.7621 25.5835 50.7817 25.5835 50.8332C25.5835 50.9165 25.6667 51.0833 25.7501 51.0833L27.25 51.5832L28.0001 51.8332ZM36.7501 38.6666L36.6668 39.0832L37.2501 38.4165V38.3333L36.3334 38.4999V38.5833L36.7501 38.6666ZM36.4168 36.3332L35.0834 36.8332L35.6668 36.9166L35.5834 37.5832H35.6668L36.5 36.4166L36.4168 36.3332ZM35.2501 39.4999L34.5001 39.6665L34.7501 39.8333L34.6667 40.1666H34.7501L35.2501 39.5833V39.4999ZM35.8334 34.1666L34.5001 34.6666L35.0834 34.7499L34.9167 35.4166H35.0001L35.8334 34.2499V34.1666ZM38.1667 36.9999L38.0834 37.4166L38.6668 36.7499V36.6666L37.75 36.8332V36.9166L38.1667 36.9999ZM39.3334 33.5833L39.1667 33.9166L39.8334 33.3332V33.25L38.9168 33.3332V33.4166L39.3334 33.5833ZM41.1668 29.8332H40.4167L40.6667 29.9999L40.5001 30.2499L40.5834 30.3333L41.1668 29.9166V29.8332ZM39.5001 35.7499L40 35.2499H39.1667V35.3332L39.5001 35.4166L39.4167 35.7499H39.5001ZM39.0834 31.9166L40 31.2499L38.75 31.1666V31.2499L39.2501 31.4165L39.0001 31.8332L39.0834 31.9166ZM39.2501 29.4166H38.3335L38.5834 29.6666L38.4167 29.9999L38.5001 30.0833L39.2501 29.4999V29.4166ZM37.4167 35.4999L38.1667 34.5832L37.0001 34.8333V34.9166L37.5001 34.9999L37.3334 35.4999H37.4167ZM37.2501 33.4999L38.0834 32.4166L36.7501 32.6665V32.7499L37.3334 32.9166L37.1667 33.4999H37.2501ZM36.6668 31.4165L37.5834 30.7499L36.3334 30.6666V30.7499L36.8334 30.9166L36.5834 31.3333L36.6668 31.4165ZM36.6668 29.4166H35.9167L36.1667 29.5832L36.0001 29.8332L36.0834 29.9166L36.6668 29.4999V29.4166ZM34.5834 33.1666L35.5834 32.0832L34.0834 32.3332V32.4166L34.7501 32.5833L34.5001 33.1666H34.5834ZM34.3334 37.7499L33.2501 38.0832L33.6667 38.2499L33.5001 38.7499H33.5834L34.3334 37.8332V37.7499ZM34.9167 30.4166H33.7501L34.1668 30.6666L33.9167 31.0832L34.0001 31.1666L34.9167 30.4999V30.4166ZM33.0834 36.9166L33.7501 35.9999L32.5834 36.2499V36.3332L33.0834 36.4166L33 36.9166H33.0834ZM32.5834 34.9999H32.6667L33.4167 34.1666L32.2501 34.3332V34.4166L32.7501 34.5L32.5834 34.9999ZM33 32.3332L32.0834 32.4999L32.5001 32.6665L32.3334 33.0832H32.4167L33 32.4166V32.3332ZM29.8334 38.4999L29.7501 38.8332L30.3334 38.4165V38.3333H29.5834V38.4165L29.8334 38.4999ZM30.4167 40.1666L30.3334 40.4999L30.9168 39.9999V39.9166H30.1667V39.9999L30.4167 40.1666ZM31.3335 37.3333L31.1667 37.7499L31.8334 37.1665V37.0833H30.9168V37.1665L31.3335 37.3333ZM31.9168 38.9166L31.7501 39.3332L32.5001 38.7499V38.6666H31.5834V38.7499L31.9168 38.9166ZM32.6667 40.3332L32.5834 40.6665L33.1668 40.1666V40.0832H32.4167V40.1666L32.6667 40.3332ZM29.0835 48.4166L29.2501 48.3332H29.1667L28.9167 48.4166C28.7501 48.4999 28.6668 48.4999 28.6668 48.4999V48.5832L28.9167 48.4999C28.9167 48.4166 29.0001 48.4166 29.0835 48.4166ZM29.6638 48.1954C29.7827 48.1752 29.9139 48.1934 30.0834 48.2499C30.125 48.2499 30.1876 48.2291 30.2501 48.2083C30.3126 48.1874 30.3751 48.1666 30.4167 48.1666L31.1667 47.9166L31.4167 47.8333C31.5834 47.7916 31.7501 47.7291 31.9168 47.6665C32.0834 47.6041 32.2501 47.5416 32.4167 47.4999C32.4584 47.4999 32.5209 47.4791 32.5835 47.4582C32.6459 47.4374 32.7084 47.4166 32.7501 47.4166H32.8334L33.2501 47.2499C33.3334 47.2083 33.3959 47.1874 33.4584 47.1666C33.5209 47.1457 33.5834 47.1249 33.6667 47.0832C33.7501 46.9999 33.7501 46.9999 33.8334 46.9999L34.0834 46.9166V46.8332C34.0834 46.8332 34.0001 46.9166 33.8334 46.9166H33.7501C33.6667 46.9583 33.5834 46.9791 33.5001 46.9999C33.4167 47.0207 33.3334 47.0415 33.2501 47.0832L32.8334 47.1666C32.7917 47.1666 32.7292 47.1874 32.6667 47.2083C32.6043 47.2291 32.5418 47.2499 32.5001 47.2499L32.3334 47.3332C32.2577 47.3585 32.1668 47.3914 32.0674 47.4272C31.8387 47.5098 31.5658 47.6085 31.3335 47.6665C31.0001 47.7499 30.75 47.8332 30.5001 47.9166L30.3334 47.9999H30.2501L29.6638 48.1954ZM36.8902 46.9276C36.8025 46.9442 36.71 46.9781 36.6013 47.0179C36.5447 47.0386 36.4837 47.0609 36.4168 47.0832C36.3334 47.1249 36.2292 47.1457 36.1251 47.1666C36.0209 47.1874 35.9167 47.2083 35.8334 47.2499L35.5001 47.3332L35.1668 47.4166C34.9167 47.4999 34.6876 47.5833 34.4584 47.6665C34.2292 47.7499 34.0001 47.8332 33.7501 47.9166C33.5409 47.9689 33.3316 48.0541 33.143 48.1308C33.0311 48.1764 32.9264 48.2189 32.8334 48.2499L32.3334 48.4166C32.2501 48.4583 32.1876 48.4791 32.1251 48.4999C32.0626 48.5208 32 48.5416 31.9168 48.5832C31.9168 48.5832 31.8334 48.6666 31.7501 48.6666C31.6668 48.7082 31.6043 48.7291 31.5418 48.7499C31.4792 48.7708 31.4167 48.7916 31.3335 48.8333L31.2501 48.9165C31.0001 48.9999 30.8334 49.0832 30.6668 49.1666C30.6251 49.1666 30.5834 49.1874 30.5417 49.2083C30.5001 49.229 30.4584 49.2499 30.4167 49.2499C30.1667 49.3332 30.0834 49.4166 30.0834 49.4166L30.1667 49.5L30.5001 49.4166C30.5417 49.4166 30.5834 49.3958 30.6251 49.3749C30.6668 49.3541 30.7085 49.3332 30.75 49.3332C30.9168 49.2499 31.0834 49.1666 31.3335 49.0833L31.5001 48.9999C31.5834 48.9582 31.646 48.9374 31.7084 48.9165C31.7709 48.8957 31.8334 48.8749 31.9168 48.8333L32.0834 48.7499C32.1302 48.7031 32.2033 48.6826 32.2878 48.6589C32.3539 48.6403 32.427 48.6198 32.5001 48.5832C32.5834 48.5416 32.6667 48.5208 32.7501 48.4999C32.8334 48.4791 32.9168 48.4583 33 48.4166C33.1668 48.3749 33.3125 48.3124 33.4584 48.2499C33.6042 48.1874 33.7501 48.1249 33.9167 48.0832L35.2501 47.5833L35.2503 47.5832C35.5002 47.4999 35.7502 47.4165 35.9167 47.3332C36.0001 47.2916 36.0626 47.2708 36.1251 47.2499C36.1876 47.2291 36.2501 47.2083 36.3334 47.1666L36.5 47.0832C36.6558 47.0313 36.779 46.9795 36.8902 46.9276ZM37.4406 46.7857L37.5834 46.7499V46.8332L37.4406 46.7857ZM34.25 45.2499C34.25 45.2499 34.1668 45.2499 34.1668 45.3333C34.2203 45.3868 34.2394 45.3716 34.2462 45.3758C34.25 45.3782 34.25 45.3868 34.25 45.4165C34.25 45.4999 34.3334 45.4999 34.3334 45.4999C34.3334 45.5832 34.4168 45.5833 34.4168 45.5833L34.5001 45.6666L34.5834 45.7499L34.6667 45.8332L34.7501 45.9166L34.8335 46C34.9167 46 34.9167 46.0832 34.9167 46.0832C35.0001 46.0832 35.0001 46.1666 35.0001 46.1666V46.2499V46.3333V46.4165H35.0834V46.3333V46.2499V46.1666V46.0832V46V45.8332C35.0834 45.7915 35.0626 45.7707 35.0418 45.7499C35.0209 45.729 35.0001 45.7083 35.0001 45.6666L34.9167 45.5833V45.4999C34.9167 45.4999 34.9167 45.4165 34.8335 45.4165C34.7918 45.4165 34.7709 45.3957 34.7501 45.375C34.7293 45.3541 34.7084 45.3333 34.6667 45.3333C34.5834 45.2499 34.5834 45.2499 34.5001 45.2499H34.4168H34.3334H34.25ZM36.5834 44.8332C36.5 44.7499 36.5 44.7499 36.4168 44.7499C36.5834 44.7221 36.7593 44.6851 36.9353 44.6481C37.2871 44.574 37.639 44.4999 37.9168 44.4999L36.2501 43.5832H35.5834L33.6667 41.2499L33.5834 41.3332L34.0834 44.0833L35.0834 45.2499H35.1668H35.2501L35.3334 45.3333C35.3334 45.4165 35.4168 45.4165 35.4168 45.4165L35.5001 45.4999L35.5834 45.5833L35.6668 45.6666L35.7501 45.7499C35.7501 45.7499 35.7501 45.8332 35.8334 45.8332C35.9167 45.8332 35.9167 45.9166 35.9167 45.9166C36.0001 45.9166 36.0001 46 36.0001 46V46.0832V46.1666V46.2499H36.0834V46.1666V46.0832V46V45.9166V45.8332V45.6666C36.0834 45.6249 36.0626 45.6041 36.0418 45.5833C36.0209 45.5624 36.0001 45.5416 36.0001 45.4999C36.0001 45.4582 35.9792 45.4374 35.9584 45.4165C35.9376 45.3957 35.9167 45.375 35.9167 45.3333C35.9167 45.3333 35.9167 45.2499 35.8334 45.2499C35.7918 45.2499 35.771 45.2291 35.7501 45.2082C35.7293 45.1874 35.7084 45.1666 35.6668 45.1666C35.5834 45.0832 35.5834 45.0832 35.5001 45.0832C35.6097 45.0467 35.7033 45.0262 35.7879 45.0076C35.8963 44.9839 35.9899 44.9633 36.0834 44.9166H36.1667C36.1667 44.9583 36.1875 44.9583 36.2084 44.9583C36.2292 44.9583 36.2501 44.9582 36.2501 44.9999C36.2501 45.0832 36.3334 45.0832 36.3334 45.0832L36.4168 45.1666L36.5 45.2499L36.5834 45.3333L36.6668 45.4165L36.7501 45.4999C36.8334 45.4999 36.8334 45.5833 36.8334 45.5833C36.9167 45.5833 36.9167 45.6666 36.9167 45.6666V45.7499V45.8332V45.9166H37.0001V45.8332V45.7499V45.6666V45.5833V45.4999V45.3333C37.0001 45.2916 36.9793 45.2708 36.9584 45.2499C36.9376 45.2291 36.9167 45.2082 36.9167 45.1666C36.9167 45.1249 36.8959 45.104 36.8751 45.0832C36.8542 45.0624 36.8334 45.0416 36.8334 44.9999C36.8334 44.9999 36.8334 44.9166 36.7501 44.9166C36.7084 44.9166 36.6876 44.8957 36.6668 44.8749C36.6459 44.8541 36.6251 44.8332 36.5834 44.8332ZM39.5834 43.9999C39.5834 43.9999 39.5001 43.9999 39.4167 44.0833C39.4433 44.0833 39.4529 44.0833 39.4537 44.0859C39.4555 44.0917 39.4167 44.1097 39.4167 44.1665C39.4167 44.2499 39.5001 44.2499 39.5001 44.2499L39.5834 44.3333L39.6667 44.4166L39.7501 44.4999H39.8334L39.9168 44.5832L40 44.6666C40.0834 44.6666 40.0834 44.7499 40.0834 44.7499C40.1668 44.7499 40.1668 44.8332 40.1668 44.8332C40.2501 44.8332 40.2501 44.9166 40.2501 44.9166V44.9999V45.0832V45.1666H40.3334V45.0832V44.9999V44.9166V44.8332V44.7499V44.5832C40.3334 44.5415 40.3125 44.5207 40.2917 44.4999C40.271 44.479 40.2501 44.4582 40.2501 44.4166C40.2501 44.3749 40.2293 44.3541 40.2084 44.3333C40.1876 44.3124 40.1668 44.2916 40.1668 44.2499L40.0834 44.1665C40 44.0833 39.9168 43.9999 39.8334 43.9999H39.7501H39.6667H39.5834ZM41.7501 45.5833H41.8335V45.4165H41.7501H41.6667H41.4168C41.3822 45.4165 41.3334 45.4309 41.2762 45.4477C41.1954 45.4713 41.0977 45.4999 41.0001 45.4999C40.9167 45.4999 40.8334 45.5207 40.7501 45.5416C40.6667 45.5624 40.5835 45.5833 40.5001 45.5833C40.3751 45.6249 40.2084 45.6666 40.0417 45.7082C39.8751 45.7499 39.7084 45.7915 39.5834 45.8332C39.5418 45.8332 39.5001 45.8541 39.4584 45.8749C39.4167 45.8957 39.375 45.9166 39.3334 45.9166H39.2501H39.1667V46H39.2501H39.3334H39.5834C39.6179 46 39.6667 45.9856 39.7239 45.9688C39.8048 45.9452 39.9025 45.9166 40 45.9166C40.0346 45.9166 40.0834 45.9023 40.1406 45.8856C40.2214 45.8618 40.3191 45.8332 40.4167 45.8332H40.5001C40.5835 45.8332 40.6667 45.8124 40.7501 45.7916C40.8334 45.7707 40.9167 45.7499 41.0001 45.7499C41.0977 45.7499 41.1954 45.7213 41.2762 45.6977C41.3334 45.6809 41.3822 45.6666 41.4168 45.6666C41.4584 45.6666 41.5001 45.6458 41.5418 45.6249C41.5834 45.6041 41.625 45.5833 41.6667 45.5833H41.7501ZM42.8334 44.4166L42.9167 44.4999H43.2501C43.6667 44.4999 44.0834 44.4166 44.4999 44.3333H44.5H44.5834C44.7211 44.3333 44.8334 44.3079 44.9344 44.2853C45.017 44.2667 45.0918 44.2499 45.1667 44.2499C45.2501 44.1665 45.3334 44.1665 45.4167 44.1665C45.5143 44.1665 45.5834 44.138 45.6406 44.1143C45.6811 44.0976 45.7155 44.0833 45.75 44.0833C45.8477 44.0833 45.9168 44.0546 45.9739 44.031C46.0144 44.0142 46.0489 43.9999 46.0834 43.9999H46.1667H46.3334V43.9166H46.1667H46.0834H45.75C45.7155 43.9166 45.6524 43.9309 45.5785 43.9476C45.474 43.9714 45.3477 43.9999 45.2501 43.9999C45.1251 43.9999 45.0209 44.0208 44.9167 44.0416C44.8126 44.0625 44.7084 44.0833 44.5834 44.0833C44.4445 44.1111 44.2963 44.1388 44.1482 44.1666C43.8519 44.2222 43.5556 44.2777 43.3334 44.3333C43.2917 44.3333 43.2501 44.3541 43.2084 44.3749C43.1667 44.3958 43.1251 44.4166 43.0834 44.4166H43.0001H42.8334ZM47.4167 44.7499C47.5001 44.6666 47.6667 44.6666 47.7501 44.6666H47.9168L48.1668 44.4999V44.4166H47.9168H47.8334C47.6667 44.4999 47.5001 44.4999 47.3334 44.4999H47.0834C46.9168 44.5832 46.7501 44.5832 46.5836 44.5832H46.5834L46.1667 44.6666L45.6668 44.7499L45.1667 44.9999C45.0834 44.9999 45.0209 45.0208 44.9584 45.0416C44.8959 45.0624 44.8334 45.0832 44.75 45.0832C44.6668 45.1665 44.5834 45.1666 44.5 45.1666H44.3334H44.1667H44.0001C43.9024 45.1666 43.8048 45.1951 43.7239 45.2189C43.6668 45.2356 43.6179 45.2499 43.5834 45.2499H43.4168L43.1667 45.3333V45.4165H43.4168H43.5834C43.7501 45.3333 43.8333 45.3333 44 45.3333H44.0001C44.1667 45.2499 44.2501 45.2499 44.4167 45.2499H44.5C44.5834 45.1666 44.75 45.1666 44.8334 45.1666C44.971 45.1666 45.0834 45.1413 45.1844 45.1186C45.2669 45.1 45.3418 45.0832 45.4167 45.0832L45.75 44.9999C45.8334 44.9166 46 44.9166 46.0833 44.9166H46.0834H46.1667L46.5834 44.8332C46.7211 44.8332 46.8334 44.808 46.9344 44.7853C47.0169 44.7667 47.0919 44.7499 47.1668 44.7499H47.4167Z" fill="#94A8B6"/>
</svg>
