<svg width="32" height="32" viewBox="0 0 32 32" fill="none" xmlns="http://www.w3.org/2000/svg">
<path d="M16 32C24.8366 32 32 24.8366 32 16C32 7.16344 24.8366 0 16 0C7.16344 0 0 7.16344 0 16C0 24.8366 7.16344 32 16 32Z" fill="url(#paint0_linear_26761_88970)"/>
<path d="M8.12415 20.8001V13.2695L13.8351 17.5676V20.8001H15.2927V17.2641C15.2924 17.1327 15.2617 17.0032 15.2029 16.8857C15.1442 16.7681 15.059 16.6658 14.954 16.5868L8.02815 11.3724C7.90147 11.2783 7.75118 11.2212 7.59399 11.2074C7.4368 11.1936 7.27886 11.2236 7.13772 11.2942C6.99658 11.3648 6.87777 11.4731 6.7945 11.6071C6.71123 11.7412 6.66675 11.8957 6.66602 12.0535V20.8001H8.12415ZM23.9183 20.8001V13.2695L18.2073 17.5676V20.8001H16.7498V17.2641C16.75 17.1327 16.7807 17.0032 16.8395 16.8857C16.8983 16.7681 16.9835 16.6658 17.0884 16.5868L24.0143 11.3745C24.1408 11.2805 24.2909 11.2234 24.4479 11.2095C24.6049 11.1957 24.7627 11.2255 24.9038 11.2958C25.0448 11.3661 25.1637 11.4742 25.2471 11.6079C25.3305 11.7416 25.3753 11.8958 25.3764 12.0535V20.8001H23.9183Z" fill="white"/>
<defs>
<linearGradient id="paint0_linear_26761_88970" x1="16" y1="0" x2="16" y2="32" gradientUnits="userSpaceOnUse">
<stop stop-color="#4FA89B"/>
<stop offset="1" stop-color="#6ACEBB"/>
</linearGradient>
</defs>
</svg>
