<svg width="1600" height="900" viewBox="0 0 1600 900" fill="none" xmlns="http://www.w3.org/2000/svg">
<mask id="mask0_139_6158" style="mask-type:alpha" maskUnits="userSpaceOnUse" x="0" y="0" width="1600" height="900">
<rect width="1600" height="900" fill="#C4C4C4"/>
</mask>
<g mask="url(#mask0_139_6158)">
<rect y="3.05176e-05" width="1600" height="900" fill="white"/>
<g opacity="0.3" filter="url(#filter0_f_139_6158)">
<path d="M1035.39 650.877C822.542 624.026 1097.77 439.389 1180.17 402.046C1262.58 364.704 1364.35 411.943 1407.49 507.559C1450.62 603.175 1421.31 782.251 1338.91 819.594C1256.5 856.936 1248.23 677.728 1035.39 650.877Z" fill="#AACEFB"/>
</g>
<g opacity="0.3" filter="url(#filter1_f_139_6158)">
<path d="M130.761 360.27C-71.7871 334.718 190.123 159.012 268.544 123.476C346.964 87.9393 443.814 132.894 484.863 223.884C525.912 314.875 498.019 485.289 419.599 520.825C341.178 556.361 333.31 385.822 130.761 360.27Z" fill="#85B9F9"/>
</g>
<g filter="url(#filter2_f_139_6158)">
<rect x="-0.000488281" y="731.016" width="1600" height="180.009" fill="white"/>
</g>
<g filter="url(#filter3_f_139_6158)">
<path d="M1646.68 -26.0873H-46.6805V191.083H1646.68V-26.0873Z" fill="url(#paint0_linear_139_6158)"/>
</g>
</g>
<defs>
<filter id="filter0_f_139_6158" x="756.318" y="189.261" width="870.976" height="835.429" filterUnits="userSpaceOnUse" color-interpolation-filters="sRGB">
<feFlood flood-opacity="0" result="BackgroundImageFix"/>
<feBlend mode="normal" in="SourceGraphic" in2="BackgroundImageFix" result="shape"/>
<feGaussianBlur stdDeviation="100" result="effect1_foregroundBlur_139_6158"/>
</filter>
<filter id="filter1_f_139_6158" x="-144.482" y="-88.6909" width="848.194" height="814.366" filterUnits="userSpaceOnUse" color-interpolation-filters="sRGB">
<feFlood flood-opacity="0" result="BackgroundImageFix"/>
<feBlend mode="normal" in="SourceGraphic" in2="BackgroundImageFix" result="shape"/>
<feGaussianBlur stdDeviation="100" result="effect1_foregroundBlur_139_6158"/>
</filter>
<filter id="filter2_f_139_6158" x="-100" y="631.016" width="1800" height="380.009" filterUnits="userSpaceOnUse" color-interpolation-filters="sRGB">
<feFlood flood-opacity="0" result="BackgroundImageFix"/>
<feBlend mode="normal" in="SourceGraphic" in2="BackgroundImageFix" result="shape"/>
<feGaussianBlur stdDeviation="50" result="effect1_foregroundBlur_139_6158"/>
</filter>
<filter id="filter3_f_139_6158" x="-146.681" y="-126.087" width="1893.36" height="417.17" filterUnits="userSpaceOnUse" color-interpolation-filters="sRGB">
<feFlood flood-opacity="0" result="BackgroundImageFix"/>
<feBlend mode="normal" in="SourceGraphic" in2="BackgroundImageFix" result="shape"/>
<feGaussianBlur stdDeviation="50" result="effect1_foregroundBlur_139_6158"/>
</filter>
<linearGradient id="paint0_linear_139_6158" x1="800" y1="66.0437" x2="800" y2="191.082" gradientUnits="userSpaceOnUse">
<stop stop-color="white"/>
<stop offset="1" stop-color="white" stop-opacity="0"/>
</linearGradient>
</defs>
</svg>
