<svg width="103" height="33" viewBox="0 0 103 33" fill="none" xmlns="http://www.w3.org/2000/svg">
<g clip-path="url(#clip0)">
<path d="M5.6825 27.6633C6.61871 27.6633 7.57226 27.2819 8.35243 26.8138V24.0398C7.34687 24.2305 6.30664 24.3172 5.2664 24.5426C4.43422 24.716 3.82741 25.1494 3.82741 26.1029C3.82741 27.2472 4.69428 27.6633 5.6825 27.6633ZM8.47379 28.8942C7.60693 29.8131 6.35865 30.3159 5.14504 30.3159C2.70049 30.3159 0.880083 28.6689 0.810734 26.259C0.758722 24.0051 2.45777 22.5141 4.36487 22.2541L8.42178 21.6646C8.3351 20.4683 6.44534 20.0349 5.61315 20.0349C4.55558 20.0349 3.25529 20.3123 2.33641 20.7631H2.007V18.0238C3.18594 17.6944 4.36487 17.417 5.66516 17.417C8.49113 17.417 11.2478 18.4746 11.3518 21.5953V30.0212H8.47379V28.8942Z" fill="#14171A"/>
<path d="M20.3844 20.243H19.9856C18.9454 19.8269 17.4023 20.2603 16.4488 20.8498V30.0212H13.4668V17.6771H16.3621V18.4746C17.6104 17.8331 18.9454 17.417 20.3844 17.417V20.243Z" fill="#000100"/>
<path d="M34.3928 22.4626C34.3928 21.4917 34.2714 20.1741 32.9711 20.2261C32.1909 20.2435 31.5321 20.8849 31.0467 21.4224V30.0217H28.0993V22.4626C28.0993 21.5264 28.0127 20.2261 26.7644 20.2261C26.0362 20.2261 25.204 20.7462 24.6839 21.2143V30.0217H21.6846V17.6775H24.6146V18.5097C25.204 17.9203 26.1402 17.4175 26.9898 17.4175C28.2554 17.4001 29.3303 17.9203 30.0758 18.8218C30.908 18.0763 31.9829 17.3828 33.1792 17.3828C35.7797 17.3828 37.3574 19.4113 37.3748 22.0292V30.0217H34.3754V22.4626H34.3928Z" fill="#000100"/>
<path d="M43.4081 27.6633C44.3443 27.6633 45.2978 27.2819 46.078 26.8138V24.0398C45.0725 24.2305 44.0322 24.3172 42.992 24.5426C42.1598 24.716 41.553 25.1494 41.553 26.1029C41.553 27.2472 42.4199 27.6633 43.4081 27.6633ZM46.1994 28.8942C45.3325 29.8131 44.0842 30.3159 42.8706 30.3159C40.4261 30.3159 38.6057 28.6689 38.5363 26.259C38.4843 24.0051 40.1834 22.5141 42.0905 22.2541L46.1474 21.6646C46.0607 20.4683 44.1709 20.0349 43.3387 20.0349C42.2812 20.0349 40.9809 20.3123 40.062 20.7631H39.7326V18.0238C40.9115 17.6944 42.0905 17.417 43.3907 17.417C46.2167 17.417 48.9733 18.4746 49.0774 21.5953V30.0212H46.1994V28.8942V28.8942Z" fill="#000100"/>
<path d="M62.0453 22.0114V30.0212H59.0633V22.3234C59.0806 21.1445 58.5258 20.1736 57.2082 20.1736C56.2199 20.1736 54.9717 20.6244 54.1395 21.1792V30.0212H51.1401V17.6771H54.0355V18.4746C55.1624 17.9024 56.4107 17.417 57.6416 17.417C60.2422 17.417 62.0453 19.2547 62.0453 22.0114Z" fill="#000100"/>
<path d="M67.1082 30.0209H64.1089V17.6768H67.1082V30.0209ZM67.1429 16.4805H64.1262V13.5332H67.1429V16.4805Z" fill="#000100"/>
<path d="M80.2325 22.0114V30.0212H77.2332V22.3234C77.2505 21.1445 76.6957 20.1736 75.3781 20.1736C74.3899 20.1736 73.1416 20.6244 72.3094 21.1792V30.0212H69.3101V17.6771H72.2054V18.4746C73.3323 17.9024 74.5806 17.417 75.8115 17.417C78.4294 17.417 80.2325 19.2547 80.2325 22.0114Z" fill="#000100"/>
<path d="M87.6183 27.6103C89.3173 27.6103 90.4269 26.154 90.4269 23.8481C90.4269 21.5423 89.3 20.086 87.6183 20.086C85.9539 20.086 84.8097 21.5423 84.8097 23.8481C84.8097 26.154 85.9366 27.6103 87.6183 27.6103ZM87.6356 17.416C91.1204 17.416 93.4956 19.9299 93.4956 23.8481C93.4956 27.7663 91.1378 30.2802 87.6356 30.2802C84.1335 30.2802 81.7236 27.7663 81.7236 23.8481C81.7236 19.9299 84.1335 17.416 87.6356 17.416Z" fill="#000100"/>
<path d="M97.4833 8.53994L94.1372 0.998244C94.0332 0.77286 93.8425 0.599487 93.6344 0.530138C93.4264 0.460789 93.2357 0.512801 93.1316 0.668836L85.2085 13.221C85.0872 13.4117 85.1392 13.7238 85.3472 13.9492C85.5379 14.1919 85.8327 14.2959 86.058 14.2266L97.4833 8.53994Z" fill="#CC7C2D"/>
<path d="M94.3624 16.2029C94.241 16.3416 94.241 16.5669 94.345 16.775C94.449 17.0004 94.6398 17.1737 94.8478 17.2431L101.557 19.4623C101.765 19.5316 101.939 19.4796 102.043 19.3409C102.147 19.2022 102.147 18.9942 102.06 18.7861L99.1994 12.3887L94.3624 16.2029Z" fill="#918F3C"/>
<path d="M102.841 7.1008C102.65 6.84075 102.338 6.71939 102.112 6.80607L97.4834 8.5398L99.1998 12.3887L102.927 7.86364C103.083 7.67293 103.049 7.36086 102.841 7.1008Z" fill="#000100"/>
</g>
<defs>
<clipPath id="clip0">
<rect width="102" height="32" fill="white" transform="translate(0.916992 0.5)"/>
</clipPath>
</defs>
</svg>
