<svg width="48" height="48" viewBox="0 0 48 48" fill="none" xmlns="http://www.w3.org/2000/svg">
<rect width="48" height="48" rx="12" fill="#1E4DD8"/>
<path fill-rule="evenodd" clip-rule="evenodd" d="M28.1647 28.2358V24.1375C28.1647 23.6646 27.6392 23.4019 27.2714 23.6646L19.4426 29.1816C19.1799 29.3918 19.1799 29.8121 19.4426 30.0223L27.2714 35.5392C27.6392 35.8019 28.1647 35.5392 28.1647 35.0663V30.8629H34.207C34.9426 30.8629 35.5206 30.285 35.5206 29.5494C35.5206 28.8138 34.9426 28.2358 34.207 28.2358H28.1647Z" fill="white"/>
<path fill-rule="evenodd" clip-rule="evenodd" d="M18.6545 18.2524V14.1541C18.6545 13.6812 19.1799 13.4185 19.5477 13.6812L27.3765 19.1982C27.6392 19.4084 27.6392 19.8287 27.3765 20.0389L19.5477 25.5558C19.1799 25.8185 18.6545 25.5558 18.6545 25.0829V20.8795H12.6121C11.8765 20.8795 11.2986 20.3016 11.2986 19.566C11.2986 18.8304 11.8765 18.2524 12.6121 18.2524H18.6545Z" fill="white"/>
</svg>
