<svg width="340" height="64" viewBox="0 0 340 64" fill="none" xmlns="http://www.w3.org/2000/svg">
<path d="M111.56 18.9705C113.429 20.3118 114.34 22.1801 114.34 24.4795C114.34 26.1562 113.861 27.5933 112.95 28.7909C111.992 29.9885 110.746 30.8029 109.068 31.1861C111.081 31.5693 112.662 32.4316 113.813 33.7729C114.963 35.1142 115.538 36.7909 115.538 38.8029C115.538 41.3897 114.531 43.4017 112.519 44.8867C110.506 46.3717 107.775 47.0903 104.324 47.0903H90.5229V16.9106H103.941C107.152 16.9585 109.691 17.6292 111.56 18.9705ZM107.152 28.2639C108.014 27.5933 108.445 26.6831 108.445 25.4855C108.445 24.3358 108.014 23.4256 107.152 22.8029C106.289 22.1801 105.139 21.8927 103.653 21.8927H96.3214V29.222H103.653C105.139 29.2699 106.289 28.9346 107.152 28.2639ZM107.966 41.1023C109.02 40.3837 109.5 39.3777 109.5 38.0843C109.5 36.8388 108.973 35.8807 107.966 35.1621C106.912 34.4436 105.474 34.1082 103.653 34.1562H96.3214V42.1082H103.653C105.474 42.1562 106.912 41.8208 107.966 41.1023Z" fill="black"/>
<path d="M138.156 22.7548C136.719 22.0842 135.233 21.7009 133.748 21.7009C131.879 21.7009 130.154 22.1321 128.62 23.0423C127.087 23.9524 125.841 25.15 124.978 26.7309C124.068 28.3117 123.636 30.0363 123.636 31.9045C123.636 33.7728 124.068 35.4974 124.978 37.0782C125.889 38.659 127.087 39.9045 128.62 40.7668C130.154 41.677 131.879 42.1081 133.748 42.1081C135.185 42.1081 136.623 41.7728 138.061 41.15C139.498 40.5273 140.792 39.665 141.942 38.5153L145.345 42.2997C143.763 43.9285 141.942 45.174 139.834 46.1321C137.725 47.0902 135.617 47.5213 133.46 47.5213C130.537 47.5213 127.901 46.8506 125.505 45.4614C123.109 44.0722 121.192 42.2039 119.803 39.8566C118.413 37.4614 117.742 34.8746 117.742 32.0003C117.742 29.1261 118.461 26.4914 119.851 24.1441C121.24 21.7968 123.157 19.9285 125.601 18.5872C128.045 17.2459 130.729 16.5752 133.7 16.5752C135.856 16.5752 137.965 17.0063 140.025 17.8686C142.086 18.7309 143.859 19.9285 145.345 21.4614L141.99 25.677C140.888 24.4315 139.594 23.4255 138.156 22.7548Z" fill="black"/>
<path d="M169.784 18.9705C171.653 20.3118 172.564 22.1801 172.564 24.4795C172.564 26.1562 172.085 27.5933 171.174 28.7909C170.216 29.9885 168.97 30.8029 167.293 31.1861C169.305 31.5693 170.887 32.4316 172.037 33.7729C173.187 35.1142 173.762 36.7909 173.762 38.8029C173.762 41.3897 172.756 43.4017 170.743 44.8867C168.73 46.3717 165.999 47.0903 162.548 47.0903H148.747V16.9106H162.165C165.424 16.9585 167.963 17.6292 169.784 18.9705ZM165.424 28.2639C166.286 27.5933 166.717 26.6831 166.717 25.4855C166.717 24.3358 166.286 23.4256 165.424 22.8029C164.561 22.1801 163.411 21.8927 161.925 21.8927H154.593V29.222H161.925C163.363 29.2699 164.561 28.9346 165.424 28.2639ZM166.19 41.1023C167.245 40.3837 167.724 39.3777 167.724 38.0843C167.724 36.8388 167.197 35.8807 166.19 35.1621C165.136 34.4436 163.698 34.1082 161.877 34.1562H154.546V42.1082H161.877C163.746 42.1562 165.184 41.8208 166.19 41.1023Z" fill="black"/>
<path d="M212.29 32.3834H214.926V43.4014C213.44 44.6469 211.763 45.605 209.798 46.3235C207.882 47.0421 205.869 47.3774 203.856 47.3774C201.029 47.3774 198.393 46.7068 195.997 45.3176C193.601 43.9283 191.684 42.0601 190.295 39.7128C188.905 37.3655 188.186 34.7786 188.186 32.0002C188.186 29.2217 188.905 26.6349 190.295 24.3355C191.684 21.9882 193.601 20.1678 196.045 18.7786C198.489 17.4373 201.125 16.7188 204 16.7188C206.061 16.7188 208.025 17.102 209.942 17.7726C211.859 18.4912 213.536 19.4972 215.022 20.7906L213.297 22.8984C212.051 21.7487 210.613 20.8864 209.032 20.2637C207.402 19.6409 205.773 19.3535 204.048 19.3535C201.7 19.3535 199.591 19.9283 197.626 21.078C195.662 22.2277 194.128 23.7607 192.978 25.6768C191.828 27.593 191.253 29.7008 191.253 32.0002C191.253 34.3475 191.828 36.4553 192.978 38.4193C194.128 40.3834 195.71 41.9164 197.674 43.0182C199.639 44.1679 201.796 44.7427 204.144 44.7427C205.581 44.7427 207.019 44.5032 208.457 44.0241C209.894 43.5451 211.188 42.8744 212.386 42.0122V32.3834H212.29Z" fill="black"/>
<path d="M241.762 47.1381L235.244 37.3178C234.334 37.3657 233.615 37.4136 233.136 37.4136H224.846V47.1381H221.875V16.9585H233.136C236.922 16.9585 239.797 17.8208 241.858 19.5453C243.918 21.2699 244.925 23.7609 244.925 26.9226C244.925 29.4136 244.302 31.5214 243.104 33.1501C241.906 34.8268 240.18 35.9765 237.928 36.6471L245.164 47.0423H241.762V47.1381ZM233.136 34.683C236.011 34.683 238.216 34.0124 239.797 32.719C241.33 31.4256 242.145 29.5094 242.145 27.0663C242.145 24.6711 241.378 22.8028 239.797 21.5573C238.264 20.3118 236.011 19.6411 233.136 19.6411H224.846V34.683H233.136Z" fill="black"/>
<path d="M272.24 18.7786C274.636 20.1678 276.552 21.9882 277.942 24.3355C279.332 26.6828 280.051 29.2217 280.051 32.0002C280.051 34.7786 279.332 37.3655 277.942 39.7128C276.552 42.0601 274.636 43.9283 272.24 45.3176C269.844 46.7068 267.208 47.3774 264.333 47.3774C261.457 47.3774 258.822 46.7068 256.426 45.3176C254.03 43.9283 252.113 42.0601 250.723 39.7128C249.333 37.3655 248.615 34.7786 248.615 32.0002C248.615 29.2217 249.333 26.6349 250.723 24.3355C252.113 21.9882 254.03 20.1678 256.426 18.7786C258.822 17.4373 261.457 16.7188 264.333 16.7188C267.208 16.7188 269.844 17.3894 272.24 18.7786ZM258.007 21.078C256.042 22.1798 254.509 23.7128 253.359 25.6289C252.209 27.5451 251.634 29.6529 251.634 31.9523C251.634 34.2517 252.209 36.3595 253.359 38.3235C254.509 40.2876 256.042 41.8205 258.007 42.9702C259.972 44.1199 262.08 44.6948 264.381 44.6948C266.633 44.6948 268.741 44.1199 270.706 42.9702C272.623 41.8205 274.204 40.2876 275.354 38.3235C276.505 36.3595 277.08 34.2517 277.08 31.9523C277.08 29.6529 276.505 27.5451 275.354 25.6289C274.204 23.7128 272.671 22.1798 270.706 21.078C268.789 19.9762 266.681 19.4014 264.381 19.4014C262.08 19.4014 259.924 19.9762 258.007 21.078Z" fill="black"/>
<path d="M290.354 42.1082C292.031 43.8327 294.379 44.695 297.35 44.695C300.322 44.695 302.67 43.8327 304.347 42.1082C306.024 40.3836 306.839 37.9884 306.839 34.8747V16.9585H309.81V34.8747C309.81 38.8028 308.708 41.8687 306.503 44.0723C304.299 46.2759 301.232 47.3777 297.35 47.3777C293.421 47.3777 290.402 46.2759 288.15 44.0723C285.945 41.8687 284.843 38.8028 284.843 34.8747V16.9585H287.814V34.8747C287.862 37.9884 288.677 40.3836 290.354 42.1082Z" fill="black"/>
<path d="M336.933 19.5932C338.994 21.3178 340 23.8088 340 26.9705C340 30.2759 338.994 32.8148 336.933 34.6351C334.872 36.4555 331.997 37.3657 328.259 37.3657H320.113V47.0902H317.142V16.9585H328.259C331.997 16.9585 334.872 17.8687 336.933 19.5932ZM334.777 32.719C336.358 31.4256 337.125 29.5094 337.125 27.0663C337.125 24.6711 336.358 22.8028 334.777 21.5573C333.243 20.3118 330.991 19.6411 328.068 19.6411H320.065V34.683H328.068C330.991 34.683 333.243 34.0603 334.777 32.719Z" fill="black"/>
<path d="M26.2607 53.2695L21.8041 60.982L20.031 64H55.4926L73.2234 33.3413H60.8118L49.3108 53.2695H26.2607Z" fill="black"/>
<path d="M23.9126 51.976L12.4116 32L23.9126 12.0718L17.7308 1.34131L0 32L17.7308 62.7066L19.5039 59.6407L23.9126 51.976Z" fill="black"/>
<path d="M60.8118 30.6587H73.2234L55.4926 0H20.031L26.2607 10.7305H49.3108L60.8118 30.6587Z" fill="black"/>
<path d="M16.2452 33.3413L26.2607 50.6347H46.1959L36.2283 33.3413H16.2452Z" fill="black"/>
<path d="M48.4961 49.2934L58.5117 32L48.4961 14.7065L38.5286 32L48.4961 49.2934Z" fill="black"/>
<path d="M46.1959 13.3652H26.2607L16.2452 30.6586H36.2283L46.1959 13.3652Z" fill="black"/>
</svg>
