<svg width="290" height="452" viewBox="0 0 290 452" fill="none" xmlns="http://www.w3.org/2000/svg">
<g clip-path="url(#clip0_1931_50584)">
<path d="M0 14.31C0 6.40681 6.40454 0 14.3049 0H275.696C283.595 0 290 6.4068 290 14.31V437.105C290 445.008 283.595 451.415 275.696 451.415H14.3049C6.40454 451.415 0 445.008 0 437.105V14.31Z" fill="#183EAD"/>
<path d="M0 14.31C0 6.40681 6.40454 0 14.3049 0H275.696C283.595 0 290 6.4068 290 14.31V437.105C290 445.008 283.595 451.415 275.696 451.415H14.3049C6.40454 451.415 0 445.008 0 437.105V14.31Z" fill="url(#paint0_linear_1931_50584)"/>
<path d="M148.146 54.4983V54.4962C148.126 50.3151 151.477 46.9198 155.584 46.9198H183.662C187.767 46.9198 191.099 50.2931 191.099 54.4761V97.3635C191.099 101.547 187.767 104.92 183.662 104.92H155.584C151.478 104.92 148.146 101.547 148.146 97.3635V54.4983Z" fill="url(#paint1_linear_1931_50584)" stroke="#334463" stroke-width="0.6"/>
<path d="M149.949 88.7098C150.79 88.7098 151.473 88.0279 151.473 87.1865C152.11 86.4267 153.588 84.7275 155.544 83.2968C157.501 81.8662 159.592 80.5546 159.592 80.5546C159.687 80.5739 159.787 80.5839 159.89 80.5839C160.731 80.5839 161.414 79.9018 161.414 79.0606C161.414 78.2193 160.731 77.5372 159.89 77.5372C159.049 77.5372 158.366 78.2193 158.366 79.0606C158.366 79.0606 156.366 80.3502 154.409 81.781C152.452 83.2115 150.922 84.9403 150.284 85.6999C150.186 85.68 150.053 85.6631 149.949 85.6631C149.108 85.6631 148.425 86.3452 148.425 87.1865C148.425 88.0279 149.108 88.7098 149.949 88.7098Z" stroke="#334463" stroke-width="0.6" stroke-miterlimit="10" stroke-linejoin="round"/>
<path d="M147.736 65.6604C147.736 65.6604 155.488 63.6085 162.783 67.0213H176.462C176.462 67.0213 179.882 64.2925 190.825 64.9764" stroke="#334463" stroke-width="0.6" stroke-miterlimit="10" stroke-linejoin="round"/>
<path d="M162.099 84.8113V84.4009C161.99 84.4009 161.886 84.4442 161.809 84.5212L162.099 84.8113ZM176.462 84.8113H176.873C176.873 84.7024 176.829 84.5981 176.752 84.5212C176.676 84.4442 176.572 84.4009 176.462 84.4009V84.8113ZM151.803 87.2718C155.619 87.6189 158.246 87.1003 159.932 86.4788C160.775 86.1684 161.38 85.8334 161.779 85.5711C161.979 85.4399 162.126 85.327 162.228 85.2447C162.277 85.2035 162.315 85.17 162.343 85.1456C162.356 85.1335 162.366 85.1236 162.374 85.1161C162.378 85.1124 162.381 85.1094 162.384 85.1069C162.385 85.1057 162.386 85.1046 162.388 85.1036C162.388 85.1032 162.388 85.1028 162.388 85.1026C162.389 85.1023 162.389 85.102 162.389 85.102C162.389 85.1017 162.389 85.1015 162.099 84.8113C161.809 84.5212 161.809 84.5209 161.809 84.5208C161.809 84.5206 161.809 84.5205 161.809 84.5204C161.81 84.5202 161.81 84.5201 161.81 84.52C161.81 84.5197 161.81 84.5197 161.81 84.5197C161.81 84.52 161.809 84.5208 161.808 84.5221C161.805 84.525 161.8 84.5305 161.79 84.5382C161.774 84.5535 161.746 84.5781 161.706 84.6104C161.627 84.6749 161.503 84.7706 161.329 84.8852C160.98 85.1143 160.43 85.4206 159.649 85.7087C158.087 86.2842 155.584 86.7915 151.877 86.4545L151.803 87.2718ZM162.099 85.2217H176.462V84.4009H162.099V85.2217ZM176.052 84.8113V104.694H176.873V84.8113H176.052Z" fill="#334463"/>
<path d="M176.462 67.0283V46.5094" stroke="#334463" stroke-width="0.6" stroke-miterlimit="10" stroke-linejoin="round"/>
<path d="M162.783 67.0283V46.5094" stroke="#334463" stroke-width="0.6" stroke-miterlimit="10" stroke-linejoin="round"/>
<path d="M162.669 84.8113V104.694" stroke="#334463" stroke-width="0.6" stroke-miterlimit="10"/>
<path d="M191.017 86.1842L181.934 86.1792" stroke="#334463" stroke-width="0.6" stroke-miterlimit="10" stroke-linecap="round"/>
<path d="M144.393 273.828C143.856 267.369 138.501 262.274 131.944 262.219C130.075 262.219 128.246 262.614 126.553 263.408C121.909 265.588 119.313 270.216 119.313 275.274C119.568 282.136 125.406 287.772 132.245 287.772H139.42C139.803 287.772 140.122 287.461 140.122 287.067V282.942C140.122 282.557 139.813 282.237 139.42 282.237H131.935C128.803 282.237 126.143 279.895 125.187 277.068H143.546C144.047 277.068 144.447 276.693 144.447 276.235C144.439 275.659 144.393 273.828 144.393 273.828ZM138.491 272.503H125.214C126.298 269.437 129.313 267.472 132.527 267.781C135.314 268.046 137.563 269.968 138.491 272.503Z" fill="white"/>
<path d="M103.24 262.23C100.865 262.287 98.5584 263.044 96.6082 264.408V262.971C96.6082 262.855 96.5625 262.744 96.4811 262.662C96.3998 262.581 96.2896 262.535 96.1747 262.535H91.5364C91.4215 262.535 91.3113 262.581 91.2299 262.662C91.1486 262.744 91.103 262.855 91.103 262.971V274.577C91.0921 274.772 91.0921 274.969 91.103 275.165V287.01C91.103 287.197 91.1753 287.376 91.3047 287.51C91.4343 287.644 91.6106 287.722 91.7965 287.729H95.9145C96.0075 287.729 96.0994 287.71 96.1851 287.673C96.2707 287.638 96.3481 287.584 96.4128 287.517C96.4775 287.45 96.5281 287.371 96.5616 287.283C96.5952 287.196 96.611 287.103 96.6082 287.01V274.882C96.6094 273.886 96.818 272.901 97.2206 271.991C97.623 271.08 98.2105 270.265 98.9453 269.597C99.68 268.929 100.546 268.421 101.487 268.109C102.428 267.797 103.424 267.685 104.411 267.782C106.206 267.972 107.866 268.826 109.068 270.179C110.27 271.532 110.928 273.285 110.913 275.099V287.053C110.91 287.147 110.926 287.24 110.959 287.327C110.993 287.415 111.043 287.494 111.108 287.561C111.173 287.628 111.25 287.681 111.336 287.717C111.421 287.754 111.513 287.772 111.606 287.772H115.703C115.892 287.772 116.074 287.696 116.208 287.562C116.343 287.427 116.418 287.244 116.418 287.053V274.882C116.414 273.172 116.065 271.48 115.394 269.908C114.723 268.336 113.743 266.916 112.512 265.736C111.281 264.554 109.825 263.635 108.232 263.031C106.639 262.429 104.941 262.157 103.24 262.23Z" fill="white"/>
<path d="M168.515 262.399C168.45 262.338 168.364 262.304 168.277 262.304C168.188 262.304 168.101 262.338 168.037 262.399L159.259 271.109L150.591 262.399C150.526 262.338 150.44 262.304 150.351 262.304C150.264 262.304 150.178 262.338 150.113 262.399L146.58 266.079C146.52 266.143 146.486 266.23 146.486 266.319C146.486 266.407 146.52 266.494 146.58 266.558L155.25 275.267L146.45 284.108C146.39 284.173 146.356 284.259 146.356 284.348C146.356 284.437 146.39 284.523 146.45 284.587L149.918 288.049C149.957 288.092 150.004 288.126 150.056 288.149C150.108 288.172 150.165 288.183 150.221 288.183C150.279 288.183 150.335 288.172 150.387 288.149C150.44 288.126 150.487 288.092 150.525 288.049L159.195 279.34L167.863 288.049C167.929 288.111 168.014 288.145 168.103 288.145C168.192 288.145 168.277 288.111 168.341 288.049L171.874 284.523C171.934 284.457 171.969 284.372 171.969 284.282C171.969 284.193 171.934 284.108 171.874 284.043L163.204 275.333L172.004 266.624C172.064 266.559 172.099 266.473 172.099 266.384C172.099 266.295 172.064 266.209 172.004 266.145L168.515 262.399Z" fill="white"/>
<path d="M186.131 262.219C183.565 262.185 181.045 262.918 178.893 264.325C176.741 265.734 175.056 267.753 174.049 270.125C173.042 272.499 172.762 275.12 173.242 277.653C173.721 280.188 174.941 282.522 176.744 284.357C178.547 286.193 180.853 287.45 183.369 287.966C185.885 288.482 188.496 288.234 190.872 287.256C193.247 286.277 195.279 284.61 196.709 282.467C198.14 280.325 198.903 277.804 198.903 275.224C198.904 271.805 197.564 268.522 195.174 266.089C192.783 263.655 189.534 262.264 186.131 262.219ZM186.131 282.638C185.119 282.693 184.106 282.539 183.154 282.188C182.202 281.836 181.332 281.293 180.595 280.593C179.859 279.891 179.273 279.047 178.873 278.111C178.472 277.176 178.265 276.168 178.265 275.148C178.265 274.129 178.472 273.121 178.873 272.186C179.273 271.25 179.859 270.406 180.595 269.704C181.332 269.004 182.202 268.461 183.154 268.109C184.106 267.758 185.119 267.604 186.131 267.659C188.039 267.763 189.835 268.596 191.148 269.99C192.463 271.383 193.195 273.229 193.195 275.148C193.195 277.068 192.463 278.914 191.148 280.307C189.835 281.701 188.039 282.534 186.131 282.638Z" fill="white"/>
<path d="M145.056 170.569L171.973 154.949L197.863 169.967C198.174 170.156 198.431 170.422 198.613 170.738C198.795 171.052 198.895 171.409 198.903 171.774V233.026L172.904 248.044C172.576 248.236 172.201 248.337 171.821 248.337C171.441 248.337 171.067 248.236 170.737 248.044L144.992 233.056L118.134 248.654L92.1347 233.636C91.8248 233.446 91.5669 233.181 91.3853 232.866C91.2036 232.55 91.1037 232.193 91.0948 231.829V170.554L107.781 180.173L91.2047 170.554L117.204 155.558C117.509 155.4 117.847 155.32 118.189 155.32C118.532 155.32 118.87 155.4 119.175 155.558L145.056 170.569Z" fill="white"/>
<path d="M119.177 155.558L171.977 186.184V217.419L91.2064 170.556L117.205 155.558C117.511 155.402 117.848 155.32 118.191 155.32C118.534 155.32 118.872 155.402 119.177 155.558Z" fill="#D9EEFF"/>
<path d="M171.974 154.948L145.042 170.576L171.974 186.184V154.948Z" fill="#BBDDFF"/>
<path d="M171.974 154.948L197.865 169.967C198.174 170.156 198.433 170.422 198.614 170.738C198.795 171.053 198.895 171.409 198.904 171.774V233.026L171.974 217.419V154.948Z" fill="#A0CCFF"/>
<path d="M198.904 233.026L172.906 248.046C172.576 248.236 172.203 248.337 171.822 248.337C171.442 248.337 171.069 248.236 170.739 248.046L118.134 217.419V186.14L198.904 233.026Z" fill="#BBDDFF"/>
<path d="M91.0948 170.556V231.829C91.1037 232.194 91.2036 232.55 91.3853 232.866C91.5669 233.182 91.8248 233.446 92.1347 233.636L118.134 248.654V186.14L91.0948 170.556Z" fill="white"/>
<path d="M118.134 248.654L145.042 233.026L118.134 217.419V248.654Z" fill="#D9EEFF"/>
<path d="M237.12 382.137H210.707V429.821H237.12V382.137Z" fill="#E25011"/>
<path d="M212.373 405.978C212.362 401.393 213.391 396.864 215.381 392.737C217.37 388.61 220.269 384.991 223.857 382.156C219.403 378.631 214.051 376.435 208.414 375.822C202.777 375.209 197.082 376.204 191.98 378.691C186.879 381.176 182.578 385.056 179.567 389.883C176.558 394.711 174.963 400.292 174.963 405.988C174.963 411.684 176.558 417.265 179.567 422.092C182.578 426.92 186.879 430.799 191.98 433.286C197.082 435.773 202.777 436.766 208.414 436.153C214.051 435.54 219.403 433.346 223.857 429.821C220.269 426.981 217.37 423.359 215.38 419.229C213.391 415.098 212.362 410.568 212.373 405.978Z" fill="#D71016"/>
<path d="M272.74 405.978C272.745 411.669 271.157 417.247 268.154 422.073C265.152 426.899 260.856 430.779 255.762 433.267C250.667 435.754 244.977 436.751 239.344 436.141C233.713 435.532 228.364 433.341 223.914 429.82C227.505 426.983 230.408 423.363 232.404 419.235C234.399 415.106 235.436 410.577 235.436 405.988C235.436 401.398 234.399 396.869 232.404 392.741C230.408 388.612 227.505 384.993 223.914 382.154C228.363 378.635 233.71 376.445 239.34 375.835C244.971 375.224 250.658 376.219 255.753 378.704C260.848 381.19 265.142 385.067 268.146 389.89C271.15 394.713 272.742 400.289 272.74 405.978Z" fill="#F29E00"/>
<path d="M269.006 423.533V423.726H269.41V424.706H269.621V423.726H270.004V423.533H269.006ZM271.251 423.533L270.905 424.36L270.56 423.533H270.254V424.726H270.465V423.821L270.79 424.59H271.021L271.347 423.821V424.726H271.558V423.533H271.251Z" fill="#F29E00"/>
</g>
<defs>
<linearGradient id="paint0_linear_1931_50584" x1="227.075" y1="-36.25" x2="0.151301" y2="451.485" gradientUnits="userSpaceOnUse">
<stop stop-color="#2663FF"/>
<stop offset="1" stop-color="#1E57FF" stop-opacity="0"/>
</linearGradient>
<linearGradient id="paint1_linear_1931_50584" x1="157.356" y1="41.5719" x2="191.994" y2="104.243" gradientUnits="userSpaceOnUse">
<stop stop-color="#CFCFCF"/>
<stop offset="0.455668" stop-color="#FEFEFE"/>
<stop offset="1" stop-color="#DFDFDF"/>
</linearGradient>
<clipPath id="clip0_1931_50584">
<rect width="290" height="451.415" fill="white"/>
</clipPath>
</defs>
</svg>
