<svg width="32" height="32" viewBox="0 0 32 32" fill="none" xmlns="http://www.w3.org/2000/svg">
<path d="M31.5174 19.8706C29.3804 28.442 20.699 33.6585 12.1266 31.521C3.55769 29.384 -1.65875 20.7021 0.479225 12.1312C2.6152 3.55876 11.2966 -1.65819 19.8665 0.478793C28.4384 2.61577 33.6544 11.2987 31.5174 19.8706Z" fill="#F7931A"/>
<path fill-rule="evenodd" clip-rule="evenodd" d="M22.9608 14.0404C23.2729 11.9388 21.6844 10.8091 19.5124 10.0555L20.217 7.2087L18.4967 6.77684L17.8107 9.5486C17.3585 9.43509 16.894 9.32799 16.4324 9.22187L17.1233 6.43185L15.404 6L14.6989 8.84579C14.3246 8.75991 13.9571 8.67502 13.6004 8.58569L13.6023 8.57681L11.2299 7.98011L10.7723 9.83091C10.7723 9.83091 12.0486 10.1256 12.0217 10.1438C12.7184 10.319 12.8444 10.7835 12.8233 11.1516C12.1794 13.7534 11.5372 16.3479 10.8928 18.9502C10.8075 19.1634 10.5915 19.4832 10.1044 19.3618C10.1216 19.387 8.85402 19.0474 8.85402 19.0474L8 21.031L10.2387 21.5931C10.4887 21.6562 10.7357 21.7211 10.9801 21.7853C11.1428 21.828 11.3045 21.8705 11.4651 21.912L10.7532 24.7913L12.4715 25.2232L13.1766 22.3744C13.6459 22.5027 14.1016 22.6212 14.5475 22.7327L13.8449 25.5681L15.5652 26L16.2771 23.1261C19.2106 23.6853 21.4164 23.4597 22.3449 20.7872C23.0931 18.6353 22.3077 17.394 20.7643 16.5846C21.8882 16.3235 22.7349 15.5788 22.9608 14.0404ZM19.0299 19.5922C18.5421 21.5665 15.4743 20.7503 14.0706 20.3768C13.9443 20.3432 13.8315 20.3132 13.7352 20.2891L14.6799 16.4745C14.7971 16.5039 14.9403 16.5363 15.1025 16.573C16.5543 16.9011 19.5296 17.5736 19.0299 19.5922ZM15.3945 14.8028C16.5648 15.1174 19.1176 15.8036 19.5622 14.0092C20.0163 12.1739 17.5352 11.6206 16.3235 11.3504C16.1872 11.32 16.067 11.2932 15.9688 11.2686L15.1123 14.7283C15.1932 14.7486 15.2882 14.7742 15.3945 14.8028Z" fill="white"/>
</svg>
