<svg width="32" height="32" viewBox="0 0 32 32" fill="none" xmlns="http://www.w3.org/2000/svg">
<path fill-rule="evenodd" clip-rule="evenodd" d="M16 32C24.8366 32 32 24.8366 32 16C32 7.16344 24.8366 0 16 0C7.16344 0 0 7.16344 0 16C0 24.8366 7.16344 32 16 32Z" fill="white"/>
<path fill-rule="evenodd" clip-rule="evenodd" d="M16 31.5C24.5604 31.5 31.5 24.5604 31.5 16C31.5 7.43959 24.5604 0.5 16 0.5C7.43959 0.5 0.5 7.43959 0.5 16C0.5 24.5604 7.43959 31.5 16 31.5ZM32 16C32 24.8366 24.8366 32 16 32C7.16344 32 0 24.8366 0 16C0 7.16344 7.16344 0 16 0C24.8366 0 32 7.16344 32 16Z" fill="#E6E9EC"/>
<g clip-path="url(#clip0_26761_89033)">
<path d="M10.2106 17.6209L10.8455 12.9741L5.33789 9.25014L10.3701 10.9104L11.5586 9.13439L15.8982 6.51172L25.4635 11.6446L25.9593 19.4762L21.6978 25.2441L18.3294 25.7468L20.0713 22.6413V19.6515L18.8048 17.3166L17.5179 16.4865L15.5382 18.4741V20.5776L13.9932 21.9865L12.0306 22.218L11.1613 22.6975L9.73517 22.2544L9.14095 20.1708L10.2106 18.7056V17.6209Z" fill="white"/>
<path d="M19.0057 9.21104C17.9565 8.99937 16.8088 9.0556 16.8088 9.0556C16.8088 9.0556 16.4319 10.7522 14.0957 11.1987C14.1127 11.1987 17.1823 12.2207 19.0057 9.21104Z" fill="#94A6C3"/>
<path d="M19.9563 24.6064C21.2228 23.6407 22.1736 22.3111 22.6116 20.8063C22.632 20.7501 22.8086 20.6509 22.9274 20.5748C23.1244 20.4591 23.3247 20.3632 23.3621 20.2077C23.4401 19.7645 23.4809 19.3015 23.4809 18.8385C23.4809 18.6665 23.3009 18.4912 23.1244 18.3193C22.9851 18.2035 22.8459 18.0679 22.8459 17.972C22.649 16.2158 21.8171 14.5754 20.4894 13.3815L20.3502 13.5171C21.6371 14.6945 22.469 16.2952 22.649 17.9918C22.6694 18.1473 22.8255 18.2994 22.9851 18.4549C23.1244 18.5706 23.284 18.7459 23.284 18.822C23.284 19.2651 23.2432 19.7083 23.1651 20.1515C23.1447 20.2276 22.9682 20.3069 22.8289 20.383C22.632 20.4789 22.452 20.5748 22.4147 20.7303C21.9393 22.3707 20.8493 23.7994 19.4028 24.7255C19.6609 24.1864 20.4724 22.4302 20.907 21.5406L20.8289 18.6864L18.3128 16.3151L16.8867 16.5069L15.3213 18.9774C15.3213 18.9774 16.0548 19.8836 15.0225 20.9452C14.014 21.987 13.2194 22.2185 13.2194 22.2185L12.486 21.8316C12.7033 21.5604 13.1413 21.1569 13.4775 20.8857C14.0514 20.4227 14.6252 20.383 14.6252 19.8836C14.649 18.8385 13.4979 19.1262 13.4979 19.1262L13.0802 19.5132L12.9037 20.9419L12.0344 22.0036L11.9359 21.9837L10.5098 21.6762C10.5098 21.6762 11.3824 21.233 11.5216 20.7303C11.6609 20.2474 11.2432 18.6467 11.2228 18.5508C11.2432 18.5706 11.6405 18.898 11.8171 19.4371C12.1329 18.5872 12.5505 17.7769 12.6694 17.7008C12.7882 17.6247 14.3909 16.7946 14.3909 16.7946L13.8578 18.1638L14.2551 17.9522L15.2059 15.6768C15.2059 15.6768 16.1362 15.2336 16.8289 15.2336C18.0751 15.2137 19.9189 13.7288 19.087 11.0664C19.3247 11.1623 23.4435 13.1698 24.1566 17.1055C24.6897 20.1317 22.9274 22.966 19.9563 24.6064Z" fill="#94A6C3"/>
<path d="M15.2432 9.63396C15.6982 9.11141 15.5216 8.34082 15.5216 8.34082L14.194 10.2524C14.1736 10.2524 14.666 10.2723 15.2432 9.63396Z" fill="#1B314F"/>
<path d="M10.7856 20.0714L10.9452 19.3008C10.9452 19.3008 10.2898 20.4186 10.2321 20.5741C10.171 20.7494 10.2728 21.057 10.5275 21.0371C10.7856 21.0173 11.1014 20.6502 11.1014 20.3823C11.1014 20.035 10.7856 20.0714 10.7856 20.0714Z" fill="#1B314F"/>
<path d="M22.5504 7.8022C22.5504 7.8022 23.5419 7.84189 24.5707 7.95764C22.2516 6.18163 20.0546 5.66239 18.2719 5.66239C15.8169 5.66239 14.1531 6.64796 14.0512 6.70418L14.8254 5.50695C14.8254 5.50695 11.7354 5.21591 10.6455 8.40082C10.367 7.72613 10.1123 6.74056 10.1123 6.74056C10.1123 6.74056 8.50623 8.11308 9.26005 10.3885C7.41625 9.73365 4.78467 8.82415 4.6828 8.80761C4.54358 8.78777 4.50284 8.8473 4.50284 8.8473C4.50284 8.8473 4.46209 8.90352 4.58093 9.00274C4.80165 9.17141 8.96124 12.1645 9.87465 12.7433C9.67771 13.4378 9.67771 13.7652 9.87465 14.0926C10.1531 14.5358 10.1701 14.7673 10.1327 15.0947C10.092 15.4222 9.73543 18.2598 9.65734 18.6071C9.57924 18.9543 8.74732 20.188 8.78467 20.5551C8.82542 20.9222 9.33815 22.4832 9.79655 22.6585C10.1327 22.7742 10.9646 23.0256 11.5181 23.0256C11.7151 23.0256 11.895 22.9859 11.9731 22.9098C12.3093 22.6221 12.4078 22.5626 12.6455 22.5626C12.6658 22.5626 12.6862 22.5626 12.7032 22.5626C12.8016 22.5626 12.9205 22.5824 13.0597 22.5824C13.3755 22.5824 13.7932 22.5229 14.0886 22.255C14.5232 21.8317 15.277 21.2529 15.5147 20.9817C15.8135 20.6146 15.9697 20.1152 15.8916 19.6125C15.8305 19.1495 16.0886 18.7427 16.3874 18.3392C16.7643 17.8563 17.457 16.9898 17.457 16.9898C18.8254 17.9886 19.6777 19.5133 19.6777 21.2099C19.6777 24.2195 16.985 26.6504 13.6573 26.6504C13.1412 26.6504 12.6488 26.5941 12.1531 26.4784C13.6777 26.9976 14.9646 27.1729 16.0173 27.1729C18.255 27.1729 19.4434 26.3825 19.4434 26.3825C19.4434 26.3825 19.0292 26.905 18.3534 27.5003C18.3738 27.5003 18.3738 27.5003 18.3738 27.5003C22.0784 26.9976 23.8814 24.0277 23.8814 24.0277C23.8814 24.0277 23.7422 24.9934 23.5657 25.6483C28.4927 22.04 27.6607 17.5256 27.6404 17.3735C27.6811 17.4297 28.1769 18.0085 28.4315 18.3193C29.2261 10.3686 22.5504 7.8022 22.5504 7.8022ZM14.9646 20.4988C14.8865 20.5947 14.5504 20.8858 14.3127 21.0975C14.075 21.3091 13.8169 21.5208 13.62 21.7159C13.5419 21.792 13.3823 21.8317 13.1446 21.8317C13.0665 21.8317 12.985 21.8317 12.9273 21.8317C12.8865 21.8317 12.8492 21.8317 12.8084 21.8317C12.7677 21.8317 12.7473 21.8317 12.7303 21.8317C12.6692 21.8317 12.6115 21.8317 12.5504 21.8317C12.8492 21.4447 13.7185 20.5584 14.0173 20.3665C14.3738 20.135 14.5538 19.9035 14.3331 19.5C14.1157 19.0932 13.5419 19.1925 13.5419 19.1925C13.5419 19.1925 13.878 19.0569 14.1769 19.0569C13.8 18.961 13.3246 19.0569 13.1073 19.2685C12.8696 19.4802 12.9103 20.2343 12.8118 20.7138C12.7134 21.2165 12.3772 21.4679 11.8611 21.9309C11.5826 22.1822 11.3857 22.2583 11.2261 22.2583C10.8899 22.2021 10.4927 22.1029 10.2142 22.007C10.0173 21.7556 9.71846 20.9255 9.64036 20.5782C9.69808 20.3864 9.93577 19.9796 10.0546 19.7481C10.2923 19.3049 10.4315 19.0536 10.4723 18.822C10.5504 18.4946 10.8084 16.4673 10.9069 15.6206C11.165 15.948 11.5215 16.4904 11.44 16.8377C12.0139 16.0472 11.5996 15.2733 11.3993 14.9658C11.2227 14.6582 10.985 14.0397 11.182 13.3849C11.3789 12.73 12.092 10.9143 12.092 10.9143C12.092 10.9143 12.3297 11.3211 12.6658 11.2418C13.002 11.1657 15.7151 7.19035 15.7151 7.19035C15.7151 7.19035 16.4485 8.75139 15.6743 9.8924C14.8831 11.0301 14.1089 11.2418 14.1089 11.2418C14.1089 11.2418 15.1989 11.4336 16.2074 10.7192C16.6217 11.6651 17.019 12.6474 17.0393 12.783C16.9782 12.9186 16.187 14.7706 16.1089 14.8864C16.0682 14.9261 15.7932 15.0021 15.5928 15.0418C15.2567 15.1377 15.0597 15.1973 14.9782 15.2535C14.839 15.3693 14.204 17.0659 13.9086 17.896C13.5521 17.9919 13.1955 18.1871 12.9375 18.5707C13.0767 18.4748 13.5113 18.4153 13.8305 18.3789C14.1089 18.359 14.9578 18.8022 15.1786 19.6323C15.1786 19.6522 15.1786 19.6522 15.1786 19.672C15.2227 19.9763 15.1242 20.2673 14.9646 20.4988ZM13.1039 20.7303C13.2838 20.479 13.2634 20.0557 13.2838 19.9201C13.3042 19.7845 13.3415 19.5331 13.5011 19.4967C13.6607 19.457 14.0376 19.5166 14.0376 19.7845C14.0376 20.0358 13.7592 20.092 13.5623 20.2673C13.4196 20.3996 13.1412 20.6907 13.1039 20.7303ZM21.0054 17.0427C21.2023 16.0605 21.2227 15.2105 21.165 14.516C21.9358 15.5181 22.4112 16.7352 22.5504 17.9886C22.5707 18.1441 22.7269 18.2962 22.8865 18.4516C23.0258 18.5674 23.1854 18.7228 23.1854 18.8187C23.1854 19.2619 23.1446 19.7051 23.0665 20.1516C23.0461 20.2078 22.8696 20.307 22.7303 20.3831C22.5334 20.479 22.3534 20.5749 22.3161 20.7303C21.8814 22.2153 20.9477 23.5283 19.7015 24.4543C21.5419 22.5824 22.4315 19.4934 21.0054 17.0427ZM19.7592 24.6263C21.0461 23.6606 22.0376 22.3112 22.4723 20.7866C22.4927 20.7303 22.6692 20.6311 22.7881 20.5551C22.985 20.4592 23.1854 20.3434 23.2227 20.188C23.3008 19.7448 23.3415 19.2818 23.3415 18.8187C23.3415 18.6468 23.1616 18.4715 22.985 18.2995C22.8865 18.1837 22.7269 18.0481 22.7269 17.9522C22.5674 16.5433 21.9935 15.2138 21.1039 14.1125C20.7066 11.7974 19.1242 11.083 19.0835 11.0632C19.1242 11.1227 20.1531 12.568 19.44 14.2646C18.7066 15.9811 16.8254 15.7132 16.6658 15.7297C16.5062 15.7297 15.895 16.5003 15.1208 17.9291C15.0224 17.8894 14.6047 17.7935 14.1293 17.8729C14.4859 16.9071 15.0224 15.5379 15.1208 15.4222C15.1616 15.3825 15.457 15.3064 15.6573 15.2502C16.0342 15.1543 16.2108 15.0947 16.2719 15.0187C16.3127 14.9591 16.5096 14.516 16.7066 14.053C16.8865 14.053 17.3415 14.0133 17.3789 13.9934C17.4196 13.9537 17.7966 13.0112 17.7966 12.8954C17.7966 12.7995 17.0224 10.9276 16.7269 10.2132C16.8662 10.0578 17.0054 9.86594 17.1412 9.65427C21.2023 10.0809 24.3738 13.4378 24.3738 17.5058C24.3738 20.6311 22.4927 23.353 19.7592 24.6263Z" fill="#1B314F"/>
<path d="M14.4901 14.2077C14.867 13.7843 14.6701 12.9939 13.974 12.8583C14.154 12.4548 14.4086 11.6445 14.4086 11.6445C14.4086 11.6445 12.3883 14.7302 12.2117 14.7898C12.0317 14.8493 11.8551 14.1713 11.8551 14.1713C11.4782 15.5802 12.4901 15.772 12.609 15.3288C13.1625 15.1899 14.1132 14.6112 14.4901 14.2077Z" fill="#1B314F"/>
<path d="M12.7656 14.9587L13.7945 13.2422C13.7945 13.2422 14.3887 13.5332 14.0899 13.9962C13.7164 14.5353 12.7656 14.9587 12.7656 14.9587Z" fill="#FFD923"/>
<path d="M25.5015 22.9091C25.2027 23.296 24.8665 23.6995 24.4727 24.0864C27.0261 19.3008 24.5915 14.922 24.493 14.75C24.673 14.9253 24.8496 15.1171 25.0092 15.2891C26.9684 17.409 27.2061 20.594 25.5015 22.9091Z" fill="#D82122"/>
<path d="M27.8794 16.7543C26.9864 14.4194 25.7198 12.4317 22.9287 10.6391C20.236 8.90283 17.3429 9.03842 17.1833 9.05827C17.163 9.05827 17.1426 9.05827 17.1426 9.05827C17.2411 9.01858 17.3395 8.99874 17.438 8.9822C18.0526 8.79038 18.8438 8.63494 19.6383 8.53903C21.7402 8.24468 23.8591 8.93921 25.3056 10.4275C25.3259 10.4473 25.3259 10.4473 25.3463 10.4672C26.9898 12.1638 27.8421 14.2838 27.8794 16.7543Z" fill="#D82122"/>
<path d="M22.2932 7.20296C19.3424 6.66388 17.4409 6.93177 16.0724 7.43447C16.0317 7.27903 15.8925 6.97145 15.7736 6.7201C15.3628 7.20296 14.9247 7.78174 14.6497 8.14884C13.8959 8.65155 13.5801 9.13441 13.5801 9.13441C14.0147 7.68583 15.2847 6.60765 16.8297 6.33646C17.2643 6.26039 17.7397 6.2207 18.2558 6.2207C19.6208 6.24055 20.9859 6.56797 22.2932 7.20296Z" fill="#D82122"/>
<path d="M11.3802 10.9069C9.0644 10.8308 9.8352 8.20487 9.87594 8.05273C9.87594 8.07258 10.0321 10.1165 11.3802 10.9069Z" fill="#D82122"/>
<path d="M13.6587 6.18164C11.876 7.22343 12.2325 9.7105 12.2325 9.7105C10.5279 7.18705 13.5194 6.24117 13.6587 6.18164Z" fill="#D82122"/>
<path d="M10.7272 11.6021C10.8461 11.698 10.9649 11.8733 10.8257 12.1247C10.7476 12.2603 10.6288 12.2404 10.4488 12.1644C10.2111 12.0486 8.78497 11.2383 7.49805 10.4082C8.96494 10.9109 10.4488 11.45 10.6865 11.5657C10.6865 11.5657 10.7069 11.5856 10.7272 11.6021Z" fill="white"/>
</g>
<defs>
<clipPath id="clip0_26761_89033">
<rect width="24" height="22" fill="white" transform="translate(4.5 5.5)"/>
</clipPath>
</defs>
</svg>
