<svg width="269" height="73" viewBox="0 0 269 73" fill="none" xmlns="http://www.w3.org/2000/svg">
<g filter="url(#filter0_d_25284_86622)">
<path d="M32.8539 28.1883L39.0409 14.465L45.2278 1.76177C45.5405 1.1436 45.8529 0.710889 46.1652 0.463623C46.5403 0.154541 47.0714 0 47.7589 0H59.6641C60.5391 0 60.9766 0.185449 60.9766 0.556346C61.039 0.927247 60.9766 1.29815 60.7891 1.66905L39.8846 41.077V63.1456C39.8846 63.8254 39.7595 64.3199 39.5096 64.6292C39.2596 64.8765 38.6973 65 37.8223 65H27.6043C26.2919 65 25.6357 64.382 25.6357 63.1456V41.2625L4.16874 1.76177C3.98125 1.45268 3.95 1.08179 4.07499 0.649076C4.26248 0.216358 4.69994 0 5.38739 0H17.1989C18.0738 0 18.6676 0.154541 18.98 0.463623C19.355 0.772704 19.6987 1.29814 20.0112 2.03994L26.2919 14.9287L32.2915 28.1883H32.8539Z" fill="black"/>
<path d="M85 63.0499C85 63.8546 84.8368 64.3811 84.5098 64.6287C84.2484 64.8763 83.6276 65 82.6473 65H72.2548C71.4706 65 70.8822 64.8763 70.4902 64.6287C70.1632 64.319 70 63.7928 70 63.0499V1.95C70 1.20714 70.1632 0.711906 70.4902 0.464285C70.8822 0.154762 71.4706 0 72.2548 0H82.6473C83.6276 0 84.2484 0.12381 84.5098 0.37143C84.8368 0.619048 85 1.14524 85 1.95V63.0499Z" fill="black"/>
<path d="M147 62.8675C147 63.609 146.875 64.1656 146.625 64.5363C146.375 64.8454 145.874 65 145.124 65H117.355C113.853 65 110.976 64.5055 108.724 63.5164C106.536 62.5273 104.784 61.2292 103.471 59.6221C102.158 58.0147 101.251 56.1911 100.751 54.1512C100.25 52.1113 100 50.0405 100 47.9386V17.1541C100 14.9287 100.313 12.796 100.938 10.7561C101.564 8.71612 102.533 6.89255 103.846 5.28531C105.222 3.67808 107.005 2.41084 109.194 1.48359C111.383 0.494531 114.072 0 117.262 0H144.185C144.936 0 145.405 0.154541 145.593 0.463623C145.843 0.772704 145.968 1.35996 145.968 2.22539V10.107C145.968 10.9106 145.843 11.4669 145.593 11.776C145.342 12.0233 144.873 12.1469 144.185 12.1469H120.357C117.918 12.1469 116.292 12.7033 115.479 13.816C114.666 14.9287 114.26 16.2886 114.26 17.8959V25.0357H141.183C141.934 25.0357 142.403 25.1902 142.591 25.4993C142.841 25.8084 142.966 26.3956 142.966 27.261V34.4936C142.966 35.2354 142.841 35.7917 142.591 36.1628C142.403 36.4718 141.934 36.6261 141.183 36.6261H114.26V47.1968C114.26 49.3605 114.76 50.8441 115.76 51.6476C116.824 52.3895 118.356 52.7602 120.357 52.7602H145.124C145.937 52.7602 146.437 52.9149 146.625 53.2239C146.875 53.4712 147 54.0586 147 54.9857V62.8675Z" fill="black"/>
<path d="M174.637 65C171.078 65 168.154 64.5055 165.866 63.5164C163.641 62.5273 161.862 61.2292 160.527 59.6221C159.193 58.0147 158.271 56.1911 157.763 54.1512C157.254 52.1113 157 50.0405 157 47.9386V1.94722C157 1.20542 157.159 0.710889 157.477 0.463623C157.858 0.154541 158.43 0 159.193 0H169.298C170.252 0 170.855 0.123633 171.109 0.370898C171.427 0.618166 171.586 1.14361 171.586 1.94722V46.9186C171.586 49.2678 172.158 50.8441 173.302 51.6476C174.51 52.4512 176.067 52.8531 177.974 52.8531H202.189C202.888 52.8531 203.364 52.9766 203.619 53.2239C203.873 53.4094 204 53.9348 204 54.8004V63.0527C204 64.3508 203.396 65 202.189 65H174.637Z" fill="black"/>
<path d="M217.608 65C215.365 65 213.869 64.5672 213.122 63.7019C212.374 62.7746 212 61.3218 212 59.3439V5.74892C212 3.77081 212.374 2.31812 213.122 1.39087C213.869 0.463623 215.365 0 217.608 0H235.088C240.572 0 245.214 0.865429 249.016 2.59629C252.817 4.32716 255.902 6.64528 258.27 9.55064C260.638 12.456 262.351 15.8868 263.411 19.8431C264.47 23.7375 265 27.8484 265 32.1755C265 36.4409 264.533 40.5516 263.598 44.5079C262.663 48.464 261.074 51.9567 258.831 54.9857C256.587 58.0147 253.596 60.4565 249.857 62.3109C246.181 64.1035 241.6 65 236.116 65H217.608ZM250.325 32.1755C250.325 29.3318 250.075 26.7047 249.577 24.2939C249.078 21.883 248.175 19.8122 246.866 18.0813C245.62 16.2886 243.906 14.8978 241.725 13.9087C239.544 12.8578 236.802 12.3324 233.499 12.3324H226.208V52.575H233.779C237.02 52.575 239.7 52.0804 241.818 51.0914C243.999 50.0405 245.713 48.6186 246.959 46.826C248.206 45.0334 249.078 42.9005 249.577 40.4278C250.075 37.8934 250.325 35.1425 250.325 32.1755Z" fill="black"/>
</g>
<defs>
<filter id="filter0_d_25284_86622" x="0" y="0" width="269" height="73" filterUnits="userSpaceOnUse" color-interpolation-filters="sRGB">
<feFlood flood-opacity="0" result="BackgroundImageFix"/>
<feColorMatrix in="SourceAlpha" type="matrix" values="0 0 0 0 0 0 0 0 0 0 0 0 0 0 0 0 0 0 127 0" result="hardAlpha"/>
<feOffset dy="4"/>
<feGaussianBlur stdDeviation="2"/>
<feComposite in2="hardAlpha" operator="out"/>
<feColorMatrix type="matrix" values="0 0 0 0 0 0 0 0 0 0 0 0 0 0 0 0 0 0 0.25 0"/>
<feBlend mode="normal" in2="BackgroundImageFix" result="effect1_dropShadow_25284_86622"/>
<feBlend mode="normal" in="SourceGraphic" in2="effect1_dropShadow_25284_86622" result="shape"/>
</filter>
</defs>
</svg>
