<svg width="1600" height="897" viewBox="0 0 1600 897" fill="none" xmlns="http://www.w3.org/2000/svg">
<g filter="url(#filter0_f_1448_56872)">
<path d="M2198.39 391.619C2262.54 181.788 2031.48 -74.8637 1682.29 -181.628C1333.1 -288.393 1080.26 -275.643 1016.11 -65.8115C951.952 144.02 1112.65 432.614 1461.84 539.379C1811.03 646.143 2134.23 601.45 2198.39 391.619Z" fill="url(#paint0_radial_1448_56872)" fill-opacity="0.5"/>
</g>
<g filter="url(#filter1_f_1448_56872)">
<path d="M530.827 326.579C530.827 550.87 298.051 732.693 10.907 732.693C-276.237 732.693 -463.443 644.661 -463.443 420.37C-463.443 196.079 -276.237 -38 10.9069 -38C298.05 -38 530.827 102.288 530.827 326.579Z" fill="url(#paint1_radial_1448_56872)"/>
</g>
<defs>
<filter id="filter0_f_1448_56872" x="896.809" y="-352.885" width="1417.74" height="1053.59" filterUnits="userSpaceOnUse" color-interpolation-filters="sRGB">
<feFlood flood-opacity="0" result="BackgroundImageFix"/>
<feBlend mode="normal" in="SourceGraphic" in2="BackgroundImageFix" result="shape"/>
<feGaussianBlur stdDeviation="52.7316" result="effect1_foregroundBlur_1448_56872"/>
</filter>
<filter id="filter1_f_1448_56872" x="-645.812" y="-220.369" width="1359.01" height="1135.43" filterUnits="userSpaceOnUse" color-interpolation-filters="sRGB">
<feFlood flood-opacity="0" result="BackgroundImageFix"/>
<feBlend mode="normal" in="SourceGraphic" in2="BackgroundImageFix" result="shape"/>
<feGaussianBlur stdDeviation="91.1844" result="effect1_foregroundBlur_1448_56872"/>
</filter>
<radialGradient id="paint0_radial_1448_56872" cx="0" cy="0" r="1" gradientUnits="userSpaceOnUse" gradientTransform="translate(1443.12 17.6375) rotate(44.9199) scale(643.02 467.065)">
<stop stop-color="#5FA4F8"/>
<stop offset="1" stop-color="#D0E4FD" stop-opacity="0"/>
</radialGradient>
<radialGradient id="paint1_radial_1448_56872" cx="0" cy="0" r="1" gradientUnits="userSpaceOnUse" gradientTransform="translate(-123.134 466.423) rotate(-27.9002) scale(585.179 479.948)">
<stop stop-color="#9EB3EE"/>
<stop offset="1" stop-color="#F4F6FD" stop-opacity="0"/>
</radialGradient>
</defs>
</svg>
