<svg width="212" height="37" viewBox="0 0 212 37" fill="none" xmlns="http://www.w3.org/2000/svg">
<path d="M58.7998 10.2618L47.3998 25.9471H46.0998L34.8998 10.2618V36.4757H28.2998V0.37793H35.8998L46.8998 15.8484L57.8998 0.37793H65.4998V36.3682H58.8998V10.2618H58.7998Z" fill="black"/>
<path d="M152.4 23.5836C159.1 22.187 161.3 17.245 161.3 12.3031C161.3 6.07192 156.9 0.37793 148.7 0.37793C143.1 0.37793 137.6 0.37793 132 0.37793V36.4757H138.6V18.2119V13.27V6.71652H148.7C152.9 6.71652 154.7 9.61724 154.7 12.5179C154.7 15.4186 152.9 18.3193 148.7 18.3193H140.9L155.2 36.3682H163.1V35.9385L152.4 23.5836Z" fill="black"/>
<path d="M11 0.270508H0L11 14.6666V0.270508Z" fill="black"/>
<path d="M102.1 0.37793H94.9002L79.2002 36.3682H86.3002L98.5002 7.8983L110.6 36.3682H117.8L102.1 0.37793Z" fill="black"/>
<path d="M196.2 0.37793H189L173.3 36.3682H180.4L192.6 7.8983L204.7 36.3682H212L196.2 0.37793Z" fill="black"/>
</svg>
