<svg width="180" height="37" viewBox="0 0 180 37" fill="none" xmlns="http://www.w3.org/2000/svg">
<g clip-path="url(#clip0_27022_89083)">
<path d="M10.8712 15.1524L17.874 8.14995L24.8805 15.1561L28.9551 11.0814L17.874 0L6.79655 11.0777L10.8712 15.1524Z" fill="#F3BA2F"/>
<path d="M7.99373 18.0297L3.91911 13.9551L-0.155706 18.0299L3.91891 22.1045L7.99373 18.0297Z" fill="#F3BA2F"/>
<path d="M10.8712 20.9077L17.874 27.9102L24.8802 20.9043L28.9571 24.9767L28.9551 24.979L17.874 36.0601L6.79627 24.9827L6.79057 24.977L10.8712 20.9077Z" fill="#F3BA2F"/>
<path d="M31.8293 22.1061L35.9041 18.0312L31.8295 13.9566L27.7547 18.0315L31.8293 22.1061Z" fill="#F3BA2F"/>
<path d="M22.0071 18.0274H22.0088L17.874 13.8926L14.8183 16.9482H14.8181L14.4672 17.2994L13.7429 18.0237L13.7372 18.0294L13.7429 18.0353L17.874 22.1664L22.0088 18.0316L22.0108 18.0294L22.0071 18.0274Z" fill="#F3BA2F"/>
<path d="M42.2563 8.73828H51.1186C53.3181 8.73828 54.9814 9.30276 56.1086 10.4317C56.981 11.3061 57.417 12.3898 57.417 13.6825V13.7372C57.417 14.2834 57.3495 14.7662 57.2137 15.1848C57.0781 15.604 56.897 15.9814 56.6706 16.3183C56.4447 16.6555 56.1821 16.9515 55.8836 17.2061C55.5849 17.4613 55.2639 17.68 54.9202 17.8617C56.0258 18.2809 56.8961 18.8497 57.5307 19.5691C58.1649 20.2888 58.4825 21.2859 58.4825 22.5604V22.6148C58.4825 23.4891 58.3144 24.2538 57.9781 24.9097C57.6417 25.5651 57.1598 26.1116 56.5324 26.5488C55.905 26.9859 55.1506 27.3135 54.2688 27.5322C53.3871 27.7506 52.4099 27.8597 51.3376 27.8597H42.2563V8.73828ZM50.2326 16.4687C51.1616 16.4687 51.8992 16.3098 52.4452 15.9908C52.9915 15.6721 53.2646 15.1575 53.2646 14.4475V14.3928C53.2646 13.7557 53.0276 13.2687 52.5543 12.9314C52.0807 12.5945 51.3977 12.4259 50.5057 12.4259H46.3535V16.4687H50.2326V16.4687ZM51.3527 24.1724C52.2814 24.1724 53.0094 24.0043 53.538 23.6671C54.066 23.3302 54.3303 22.8065 54.3303 22.0962V22.0418C54.3303 21.4044 54.0842 20.8991 53.5927 20.5255C53.1008 20.1526 52.3088 19.9658 51.216 19.9658H46.3535V24.1727H51.3527V24.1724Z" fill="#F3BA2F"/>
<path d="M63.7605 8.73828H67.9676V27.8603H63.7605V8.73828Z" fill="#F3BA2F"/>
<path d="M74.3395 8.73828H78.218L87.1782 20.5121V8.73828H91.3304V27.8603H87.7521L78.4914 15.7043V27.8603H74.3395V8.73828Z" fill="#F3BA2F"/>
<path d="M104.067 8.60156H107.946L116.141 27.86H111.743L109.994 23.5714H101.909L100.16 27.86H95.8709L104.067 8.60156ZM108.492 19.8559L105.951 13.6551L103.411 19.8559H108.492Z" fill="#F3BA2F"/>
<path d="M120.682 8.73828H124.562L133.521 20.5121V8.73828H137.673V27.8603H134.095L124.834 15.7043V27.8603H120.682V8.73828V8.73828Z" fill="#F3BA2F"/>
<path d="M152.813 28.1875C151.411 28.1875 150.109 27.9323 148.907 27.4228C147.705 26.9133 146.667 26.2164 145.793 25.3329C144.918 24.4497 144.235 23.4071 143.744 22.2052C143.252 21.003 143.007 19.7191 143.007 18.3532V18.2988C143.007 16.9329 143.252 15.6539 143.744 14.4608C144.235 13.2681 144.918 12.2208 145.793 11.3194C146.667 10.418 147.714 9.70744 148.934 9.18853C150.154 8.66961 151.502 8.41016 152.977 8.41016C153.869 8.41016 154.684 8.48335 155.421 8.6286C156.159 8.77471 156.828 8.97464 157.43 9.22954C158.031 9.48472 158.586 9.7943 159.096 10.1583C159.605 10.5228 160.079 10.9233 160.516 11.3604L157.84 14.4471C157.092 13.7736 156.332 13.245 155.558 12.8628C154.784 12.4806 153.915 12.2892 152.95 12.2892C152.148 12.2892 151.406 12.4441 150.724 12.7537C150.041 13.0633 149.453 13.4911 148.961 14.0373C148.47 14.5836 148.087 15.2167 147.814 15.9358C147.541 16.6555 147.405 17.4248 147.405 18.2441V18.2985C147.405 19.1179 147.541 19.8923 147.814 20.6203C148.087 21.3491 148.465 21.9862 148.948 22.5324C149.43 23.0787 150.013 23.5116 150.696 23.8303C151.379 24.1493 152.13 24.3082 152.95 24.3082C154.043 24.3082 154.966 24.108 155.722 23.7073C156.478 23.3071 157.229 22.7606 157.976 22.0682L160.653 24.7727C160.161 25.301 159.65 25.7746 159.123 26.193C158.595 26.6123 158.017 26.9717 157.388 27.2724C156.76 27.5726 156.072 27.8007 155.326 27.9551C154.579 28.1097 153.742 28.1875 152.813 28.1875Z" fill="#F3BA2F"/>
<path d="M165.604 8.73828H180V12.4809H169.756V16.3599H178.771V20.1022H169.756V24.118H180.137V27.8603H165.604V8.73828Z" fill="#F3BA2F"/>
</g>
<defs>
<clipPath id="clip0_27022_89083">
<rect width="180" height="36.0593" fill="white"/>
</clipPath>
</defs>
</svg>
