<svg width="140" height="36" viewBox="0 0 140 36" fill="none" xmlns="http://www.w3.org/2000/svg">
<path d="M0 26.6104H59.66V35.3104H0V26.6104Z" fill="#7ADD93"/>
<path d="M0 0.780273H5.5L16 15.5803V0.780273H20V22.3803H16.2L4 5.18027V22.4803H0V0.780273ZM22.6 14.6803C22.6 9.78027 25.8 6.48027 30 6.48027C34.9 6.48027 37.7 10.4803 37.2 15.5803H26.4C26.6 18.6803 28.2 19.8803 30.2 19.8803C32.4 19.8803 33.4 18.3803 34 17.0803L37.4 18.3803C36.4 20.7803 34.2 22.8803 30.2 22.8803C25.6 22.8803 22.6 19.8803 22.6 14.6803V14.6803ZM33.5 12.8803C33.4 10.5803 32 9.38027 30.1 9.38027C28.2 9.38027 26.8 10.6803 26.5 12.8803H33.5ZM37.9 7.08027H41.8L43.4 12.7803C44.4 16.5803 44.8 17.9803 45 18.8803C45.2 18.0803 45.6 16.6803 46.5 13.3803L48.3 7.18027H52.7L54.6 13.6803C55.4 16.7803 55.8 18.0803 56.1 18.8803C56.3 18.0803 56.7 16.7803 57.8 12.4803L59.3 7.18027H63.2L58.2 22.5803H53.7L51.7 15.5803C51 12.8803 50.6 11.8803 50.4 10.9803C50.2 11.9803 49.9 12.8803 49.1 15.5803L47.1 22.5803H42.9L37.9 7.08027ZM71 0.780273H87.2V4.18027H75V10.2803H84.7V13.8803H75V22.4803H71V0.780273V0.780273ZM86.8 14.6803C86.8 9.88027 90 6.48027 94.6 6.48027C99.2 6.48027 102.4 9.78027 102.4 14.6803C102.4 19.5803 99.1 22.8803 94.6 22.8803C90.1 22.8803 86.8 19.3803 86.8 14.6803V14.6803ZM98.4 14.7803C98.4 11.3803 96.9 9.58027 94.6 9.58027C92.3 9.58027 90.7 11.2803 90.7 14.7803C90.7 18.2803 92.3 19.7803 94.6 19.7803C96.9 19.7803 98.4 18.1803 98.4 14.7803ZM104.5 7.08027H108.2V10.4803C108.7 9.28027 110.1 6.78027 113.6 6.78027C114 6.78027 114.3 6.78027 114.6 6.88027V10.7803C114 10.6803 113.5 10.6803 112.9 10.6803C109.6 10.6803 108.2 12.2803 108.2 15.9803V22.4803H104.5V7.08027V7.08027ZM116.2 7.08027H119.9V9.38027C120.7 7.88027 122.3 6.68027 124.5 6.68027C126.7 6.68027 128.2 7.78027 129.1 9.58027C130.2 7.78027 131.8 6.68027 134.3 6.68027C137.4 6.68027 139.5 8.38027 139.5 12.2803V22.5803H135.7V13.1803C135.7 10.7803 134.6 9.88027 132.9 9.88027C129.7 9.88027 129.7 13.1803 129.7 14.9803V22.5803H126V13.1803C126 10.7803 124.9 9.88027 123.2 9.88027C120.1 9.88027 120 13.1803 120 14.9803V22.5803H116.2V7.08027V7.08027Z" fill="black"/>
</svg>
