<svg width="519" height="152" viewBox="0 0 519 152" fill="none" xmlns="http://www.w3.org/2000/svg">
<path d="M174.374 61.3903H194.863V148.823H174.374V61.3903Z" fill="#3B84F4"/>
<path d="M213.477 148.823V132.087L279.981 77.4846H217.081V61.3903H310.048V77.9783L243.396 132.926H310.048V148.872H213.477V148.823Z" fill="#3B84F4"/>
<path d="M402.177 148.823V133.37C399.017 139.048 392.253 145.219 385.44 147.835C378.626 150.304 370.184 151.587 360.062 151.587C348.805 151.587 339.721 149.267 332.908 144.577C326.094 139.936 322.688 133.025 322.688 123.941C322.688 115.252 325.107 108.834 329.995 104.588C334.882 100.244 341.103 97.7258 348.707 96.9359L389.686 93.0357C393.487 92.6902 396.252 91.9002 397.98 90.6166C399.708 89.1849 400.597 87.1115 400.597 84.2974C400.597 81.0391 398.721 78.62 394.919 76.9908C391.216 75.2629 385.094 74.3742 376.553 74.3742C367.863 74.3742 361.297 75.411 356.705 77.4845C352.163 79.558 349.694 82.8657 349.398 87.4077H327.773C327.97 76.9908 332.364 69.6348 340.955 65.2903C349.645 60.8471 361.395 58.6255 376.207 58.6255C391.463 58.6255 402.917 60.5015 410.521 64.303C418.223 68.0056 422.074 74.6705 422.074 84.2974V148.823H402.177ZM401.683 104.934C400.399 105.921 397.931 106.612 394.376 107.057L357.791 111.105C353.446 111.549 350.089 112.734 347.719 114.659C345.349 116.634 344.164 119.596 344.164 123.595C344.164 128.236 345.843 131.593 349.2 133.666C352.558 135.592 357.495 136.579 364.012 136.579C374.43 136.579 383.317 134.506 390.673 130.408C398.029 126.162 401.732 119.399 401.732 110.068V104.934H401.683Z" fill="#3B84F4"/>
<path d="M518.004 61.3903H465.966H445.97V77.4846V148.823H466.459V108.834L466.607 77.4846H518.004V61.3903Z" fill="#3B84F4"/>
<path d="M109.548 24.9065L74.9385 145.021L40.1804 24.9065H0.979004V148.823H21.2216V28.5598L56.029 148.823H93.7986L128.507 28.5105V148.823H148.75V24.9065H109.548Z" fill="#3B84F4"/>
<path d="M184.692 49.5912C182.52 29.7449 180.101 27.3258 160.253 25.1535C159.957 25.1042 159.957 24.7092 160.253 24.6598C180.101 22.4876 182.52 20.0685 184.692 0.222161C184.742 -0.0740536 185.137 -0.0740536 185.186 0.222161C187.359 20.0685 189.778 22.4876 209.625 24.6598C209.922 24.7092 209.922 25.1042 209.625 25.1535C189.778 27.3258 187.359 29.7449 185.186 49.5912C185.186 49.8874 184.742 49.8874 184.692 49.5912Z" fill="black"/>
</svg>
