<?xml version="1.0" encoding="UTF-8"?><svg xmlns="http://www.w3.org/2000/svg" viewBox="0 0 218.24 68.58"><defs><style>.d{fill:#103460;}</style></defs><g id="a"/><g id="b"><g id="c"><g><g><path class="d" d="M103.94,54.27h1.55l3.7,9.87,3.73-9.87h1.55l-4.53,11.3h-1.47l-4.53-11.3Z"/><path class="d" d="M125.97,65.77c-1.61,0-2.93-.54-3.93-1.61-1.01-1.08-1.51-2.49-1.51-4.25s.51-3.17,1.54-4.24c1.03-1.07,2.36-1.6,3.99-1.6s2.94,.5,3.9,1.51,1.45,2.26,1.45,3.75c0,.4-.03,.77-.08,1.12h-9.31c.06,1.3,.45,2.32,1.18,3.06,.73,.75,1.66,1.12,2.77,1.12,.87,0,1.61-.2,2.22-.6,.61-.4,1.04-.93,1.27-1.57h1.55c-.37,.97-.98,1.76-1.82,2.39-.84,.63-1.92,.94-3.23,.94Zm3.95-6.48c0-1.24-.38-2.23-1.13-2.97-.75-.74-1.68-1.11-2.79-1.11s-2.04,.36-2.77,1.09c-.74,.72-1.14,1.72-1.21,2.99h7.91Z"/><path class="d" d="M138.91,54.27v1.84c.76-1.37,2.01-2.05,3.75-2.05,1.26,0,2.3,.41,3.15,1.23,.84,.82,1.26,2,1.26,3.55v6.73h-1.43v-6.46c0-1.24-.3-2.19-.9-2.84-.6-.65-1.42-.97-2.46-.97s-1.86,.32-2.46,.97c-.6,.65-.9,1.59-.9,2.84v6.46h-1.45v-11.3h1.45Z"/><path class="d" d="M159.26,55.41h-3.13v7.49c0,.57,.11,.96,.33,1.19s.61,.34,1.18,.34h1.61v1.14h-1.92c-1.77,0-2.65-.89-2.65-2.67v-7.49h-1.57v-1.14h1.57v-2.84h1.45v2.84h3.13v1.14Z"/><path class="d" d="M173.47,54.27h1.45v11.3h-1.45v-1.84c-.76,1.37-2.01,2.05-3.75,2.05-1.26,0-2.3-.41-3.15-1.23-.84-.82-1.26-2-1.26-3.55v-6.73h1.43v6.46c0,1.24,.3,2.19,.9,2.84s1.42,.97,2.46,.97,1.86-.32,2.46-.97,.9-1.59,.9-2.84v-6.46Z"/><path class="d" d="M182.42,54.27v1.86c.62-1.38,1.79-2.07,3.5-2.07v1.51h-.41c-.99,0-1.76,.27-2.29,.81-.53,.54-.8,1.46-.8,2.77v6.42h-1.45v-11.3h1.45Z"/><path class="d" d="M197.41,65.77c-1.61,0-2.93-.54-3.93-1.61-1.01-1.08-1.51-2.49-1.51-4.25s.51-3.17,1.54-4.24c1.03-1.07,2.36-1.6,3.99-1.6s2.94,.5,3.9,1.51c.97,1.01,1.45,2.26,1.45,3.75,0,.4-.03,.77-.08,1.12h-9.31c.06,1.3,.45,2.32,1.18,3.06,.73,.75,1.66,1.12,2.77,1.12,.87,0,1.61-.2,2.22-.6,.61-.4,1.04-.93,1.27-1.57h1.55c-.37,.97-.98,1.76-1.82,2.39-.84,.63-1.92,.94-3.23,.94Zm3.95-6.48c0-1.24-.38-2.23-1.13-2.97-.75-.74-1.68-1.11-2.79-1.11s-2.04,.36-2.77,1.09c-.74,.72-1.14,1.72-1.21,2.99h7.91Z"/><path class="d" d="M208.9,57.39c0-.94,.39-1.73,1.16-2.37s1.76-.96,2.96-.96,2.13,.31,2.8,.94c.67,.63,1.04,1.49,1.11,2.6h-1.49c-.03-.69-.26-1.26-.7-1.71-.44-.45-1.06-.67-1.84-.67s-1.4,.19-1.85,.58c-.45,.39-.67,.85-.67,1.4s.17,.98,.5,1.29c.33,.32,.75,.53,1.25,.64,.5,.11,1.05,.24,1.64,.39,.59,.15,1.13,.31,1.64,.49,.5,.17,.92,.48,1.25,.93,.33,.45,.5,1.02,.5,1.73,0,.91-.38,1.66-1.14,2.24-.76,.58-1.76,.87-2.99,.87s-2.21-.32-2.93-.95c-.72-.63-1.11-1.5-1.18-2.59h1.49c.03,.7,.28,1.28,.75,1.72,.47,.44,1.11,.66,1.94,.66s1.46-.18,1.91-.53c.46-.35,.68-.8,.68-1.36s-.17-.99-.5-1.3c-.33-.32-.75-.53-1.25-.65-.5-.12-1.05-.25-1.64-.4-.59-.15-1.13-.31-1.63-.48-.5-.16-.92-.46-1.25-.89-.33-.43-.5-.97-.5-1.61Z"/></g><g><path class="d" d="M127.14,8.53h8.68V44.27h-8.68l-14.52-22.49v22.49h-8.68V8.53h8.68l14.52,22.49V8.53Z"/><path class="d" d="M147.05,39.42c-3.54-3.43-5.3-7.79-5.3-13.07s1.77-9.64,5.3-13.07c3.54-3.43,7.86-5.15,12.97-5.15,3.96,0,7.48,1.05,10.56,3.15,3.08,2.1,5.23,5.01,6.45,8.73h-10.35c-1.35-2.61-3.52-3.91-6.5-3.91s-5.32,.93-7.03,2.79c-1.71,1.86-2.56,4.35-2.56,7.46s.85,5.6,2.56,7.46c1.71,1.86,4,2.79,6.88,2.79,2.06,0,3.75-.52,5.05-1.55,1.3-1.03,2.17-2.41,2.61-4.14h-10.05v-6.6h19.39v6.6c-.64,3.25-2.42,6.28-5.33,9.09-1.39,1.35-3.1,2.45-5.15,3.3-2.05,.85-4.22,1.27-6.52,1.27-5.11,0-9.43-1.72-12.97-5.15Z"/><path class="d" d="M188.26,39.42c-3.54-3.43-5.3-7.79-5.3-13.07s1.77-9.64,5.3-13.07c3.54-3.43,7.86-5.15,12.97-5.15,3.96,0,7.48,1.05,10.56,3.15,3.08,2.1,5.23,5.01,6.45,8.73h-10.35c-1.35-2.61-3.52-3.91-6.5-3.91s-5.32,.93-7.03,2.79c-1.71,1.86-2.56,4.35-2.56,7.46s.85,5.6,2.56,7.46c1.71,1.86,4.05,2.79,7.03,2.79s5.14-1.3,6.5-3.91h10.35c-1.22,3.72-3.37,6.63-6.45,8.73-3.08,2.1-6.6,3.15-10.56,3.15-5.11,0-9.43-1.72-12.97-5.15Z"/></g><g><polygon class="d" points="10.67 6.16 0 0 0 56.27 10.67 62.42 21.33 68.58 21.33 12.32 10.67 6.16"/><polygon class="d" points="42.67 6.16 32 0 32 56.27 42.67 62.42 53.34 68.58 53.34 12.32 42.67 6.16"/><polygon class="d" points="74.67 6.16 64 0 64 56.27 74.67 62.42 85.34 68.58 85.34 12.32 74.67 6.16"/></g></g></g></g></svg>