<svg width="447" height="151" viewBox="0 0 447 151" fill="none" xmlns="http://www.w3.org/2000/svg">
<path d="M176.433 33.5052H194.471V105.651H212.509V15.4688H194.471C184.55 15.4688 176.433 23.5853 176.433 33.5052Z" fill="black"/>
<path d="M230.547 105.652H248.585V69.5784C248.585 59.6585 240.467 51.542 230.547 51.542V105.652Z" fill="black"/>
<path d="M266.623 51.542V105.652H284.66V69.5784H302.698V87.6149C302.698 97.5351 310.817 105.652 320.735 105.652V69.5784C320.735 59.6585 312.62 51.542 302.698 51.542H266.623Z" fill="black"/>
<path d="M428.963 51.5417H410.925V33.5052C410.925 23.5853 402.81 15.4688 392.888 15.4688V87.6146H356.813V69.5781H374.851V51.5417H356.813C346.891 51.5417 338.773 59.6582 338.773 69.5781V87.6146C338.773 97.5348 346.891 105.651 356.813 105.651H410.925V69.5781H428.963V87.6146C428.963 97.5348 437.081 105.651 447 105.651V69.5781C447 59.6582 438.885 51.5417 428.963 51.5417Z" fill="black"/>
<path d="M230.547 33.5052H248.585C248.585 23.5853 240.467 15.4688 230.547 15.4688V33.5052Z" fill="black"/>
<path fill-rule="evenodd" clip-rule="evenodd" d="M204.555 123.688V135.345H202.903L196.41 127.268V135.345H194.471V123.688H196.124L202.616 131.798V123.688H204.555ZM241.248 135.345H234.249V123.688H241.079V125.603H236.323V128.5H240.573V130.416H236.323V133.43H241.248V135.345ZM270.941 125.603H274.769V135.345H276.843V125.603H280.671V123.688H270.941V125.603ZM324.816 123.688H326.807L323.434 135.345H321.494L318.645 126.918L315.846 135.345H313.89L310.364 123.688H312.692L315.069 131.998L317.7 123.688H319.759L322.455 132.014L324.816 123.688ZM358.22 125.42C357.075 126.574 356.501 128.001 356.501 129.699C356.501 131.487 357.082 132.936 358.239 134.046C359.397 135.156 360.863 135.712 362.638 135.712C364.404 135.712 365.871 135.146 367.041 134.013C368.211 132.88 368.794 131.443 368.794 129.699C368.794 127.923 368.211 126.474 367.041 125.353C365.883 124.242 364.417 123.688 362.638 123.688C360.863 123.688 359.39 124.265 358.22 125.42ZM359.824 132.631C359.069 131.854 358.695 130.877 358.695 129.699C358.695 128.5 359.066 127.518 359.805 126.752C360.56 125.986 361.503 125.603 362.638 125.603C363.752 125.603 364.691 125.986 365.456 126.752C366.22 127.529 366.604 128.512 366.604 129.699C366.604 130.877 366.242 131.854 365.525 132.631C364.816 133.408 363.855 133.797 362.638 133.797C361.515 133.797 360.576 133.408 359.824 132.631ZM400.563 131.015V135.379H398.488V123.721C399.072 123.721 399.708 123.715 400.395 123.704C401.078 123.693 401.643 123.688 402.08 123.688C404.935 123.688 406.364 124.886 406.364 127.285C406.364 128.173 406.133 128.906 405.671 129.483C405.212 130.038 404.682 130.416 404.086 130.616L407.78 135.379H405.268L402.014 131.015H400.563ZM401.98 125.603C401.924 125.603 401.833 125.608 401.708 125.619C401.587 125.619 401.412 125.625 401.187 125.636H400.563V129.1H401.911C402.576 129.1 403.116 128.939 403.531 128.617C403.958 128.295 404.17 127.856 404.17 127.302C404.17 126.169 403.44 125.603 401.98 125.603ZM437.474 135.345H439.546V129.333L444.37 135.345H447L441.839 129.117L446.697 123.688H444.201L439.546 129.217V123.688H437.474V135.345Z" fill="black"/>
<path d="M96.3192 25.9225C89.3483 24.476 81.7196 24.8704 81.7196 24.8704C81.7196 24.8704 79.2207 36.4438 63.7007 39.4686C63.832 39.4686 84.2188 46.4392 96.3192 25.9225Z" fill="black"/>
<path d="M71.3295 28.8164C74.3544 25.2656 73.1707 20.0049 73.1707 20.0049L64.3586 33.0249C64.2269 33.0249 67.5152 33.1565 71.3295 28.8164Z" fill="black"/>
<path d="M41.7358 99.9677L42.7879 94.707C42.7879 94.707 38.4475 102.335 38.0532 103.387C37.6585 104.571 38.3162 106.675 40.026 106.543C41.7358 106.412 43.8403 103.913 43.8403 102.072C43.8403 99.7046 41.7358 99.9677 41.7358 99.9677Z" fill="black"/>
<path fill-rule="evenodd" clip-rule="evenodd" d="M62.9117 50.7796C67.5151 51.7002 68.8303 57.0924 66.3314 59.9857C63.8322 62.7474 57.5189 66.6931 53.8363 67.6137C53.0472 70.6385 46.3393 69.3233 48.8382 59.7226C48.8382 59.7226 50.0219 64.3257 51.2057 63.9311C52.3895 63.5367 65.8053 42.4941 65.8053 42.4941C65.8053 42.4941 64.0952 48.0176 62.9117 50.7796ZM61.7283 53.4102L54.889 65.1148C54.889 65.1148 61.2022 62.2215 63.7011 58.5392C65.674 55.3829 61.7283 53.4102 61.7283 53.4102Z" fill="black"/>
<path fill-rule="evenodd" clip-rule="evenodd" d="M119.862 16.3231C119.862 16.3231 126.439 16.5861 133.278 17.3752C117.89 5.27572 103.29 1.7248 91.4529 1.7248C75.2562 1.7248 64.2482 8.33972 63.4529 8.8176L63.4378 8.82668L68.5673 0.672668C68.5673 0.672668 48.0492 -1.30007 40.8152 20.4001C38.9737 15.797 37.2639 9.0897 37.2639 9.0897C37.2639 9.0897 26.6104 18.4273 31.6084 33.9463C19.3764 29.4747 1.88345 23.2934 1.22583 23.1619C0.305145 23.0303 0.0420888 23.425 0.0420888 23.425C0.0420888 23.425 -0.220967 23.8197 0.568201 24.4771C2.01496 25.6608 29.6355 46.0456 35.6857 49.9913C34.3703 54.7257 34.3703 56.9616 35.6857 59.1974C37.5269 62.2222 37.6586 63.8002 37.3956 66.0361C37.1325 68.2719 34.765 87.6049 34.2389 89.9722C34.0266 90.9276 33 92.8686 31.8684 95.0083C30.1963 98.1698 28.2949 101.765 28.4518 103.255C28.7148 105.754 32.1344 116.407 35.1597 117.59C37.3956 118.38 42.9197 120.089 46.6024 120.089C47.9175 120.089 49.1013 119.826 49.6276 119.3C51.8635 117.328 52.5209 116.933 54.0994 116.933H54.4941C54.7951 116.933 55.1238 116.96 55.4802 116.99L55.4804 116.99C55.9021 117.026 56.3624 117.064 56.8613 117.064C58.9658 117.064 61.728 116.67 63.7009 114.829C65.0648 113.465 66.8963 111.867 68.6169 110.366L68.617 110.366L68.6171 110.366C70.5465 108.683 72.3363 107.122 73.1707 106.149C75.1435 103.65 76.1956 100.23 75.6696 96.8109C75.2752 93.6545 76.985 90.8928 78.9579 88.1308C81.4568 84.8428 86.0602 78.9247 86.0602 78.9247C95.1356 85.7637 100.791 96.1534 100.791 107.727C100.791 128.243 82.9035 144.814 60.8073 144.814C57.3876 144.814 54.0994 144.42 50.8111 143.631C60.9386 147.182 69.488 148.365 76.459 148.365C91.3213 148.365 99.213 142.973 99.213 142.973C99.213 142.973 96.4507 146.524 91.979 150.601H92.1104C116.706 147.182 128.675 126.928 128.675 126.928C128.675 126.928 127.754 133.504 126.57 137.975C158.488 114.007 154.052 84.167 153.684 81.6923C153.68 81.6619 153.676 81.6357 153.673 81.6136C153.669 81.5888 153.667 81.5693 153.665 81.5552C153.827 81.799 155.146 83.3998 156.533 85.0838C157.39 86.1239 158.273 87.1958 158.926 87.9992C164.187 33.8147 119.862 16.3231 119.862 16.3231ZM69.488 102.861C69.083 103.367 67.6638 104.653 66.312 105.879C65.9083 106.244 65.5106 106.605 65.1477 106.938C64.5992 107.44 64.0349 107.943 63.4768 108.44L63.4767 108.44L63.4765 108.44C62.4284 109.374 61.4023 110.288 60.5443 111.146C60.0182 111.672 58.9658 111.935 57.3876 111.935H55.9408H55.1515H54.6254H53.4416C55.4145 109.305 61.2017 103.255 63.1748 101.94C65.542 100.362 66.7258 98.7836 65.279 96.0219C63.8322 93.2599 60.0182 93.9176 60.0182 93.9176C60.0182 93.9176 62.2541 92.997 64.2269 92.997C61.728 92.3393 58.5714 92.997 57.1246 94.4435C56.0723 95.4081 55.8384 98.0092 55.6046 100.61C55.4876 101.911 55.3707 103.211 55.1515 104.307C54.5628 107.369 52.7082 109.06 49.8716 111.647C49.5404 111.949 49.1958 112.263 48.8382 112.593C46.9971 114.302 45.6816 114.829 44.6295 114.829C42.3937 114.434 39.7631 113.777 37.9216 113.119C36.6065 111.409 34.6333 105.754 34.1073 103.387C34.3914 102.44 35.2889 100.744 36.0638 99.2786C36.3654 98.7085 36.6484 98.1736 36.8695 97.7315L37.0901 97.3089L37.0901 97.3089C38.5337 94.5444 39.3809 92.922 39.6314 91.4187C40.1575 89.1829 41.8673 75.3737 42.525 69.5871C44.2348 71.8229 46.6024 75.5052 46.0763 77.8726C49.8906 72.4804 47.1284 67.2197 45.8133 65.1155C44.6295 63.0112 43.0511 58.8027 44.3665 54.3311C45.6816 49.8598 50.4167 37.497 50.4167 37.497C50.4167 37.497 51.9948 40.2591 54.231 39.7328C56.4669 39.2069 74.4858 12.1146 74.4858 12.1146C74.4858 12.1146 79.3526 22.7672 74.2228 30.5268C68.962 38.2864 63.8322 39.7328 63.8322 39.7328C63.8322 39.7328 71.0662 41.0481 77.7741 36.1821C80.536 42.6264 83.1666 49.3335 83.2982 50.2541C83.2313 50.4103 83.0243 50.9033 82.7241 51.6182L82.7217 51.6239L82.7209 51.6258C81.2495 55.1304 77.5529 63.9346 77.1164 64.5896C76.8534 64.8524 75.0122 65.3786 73.6967 65.6417C71.4609 66.2992 70.1454 66.6938 69.6194 67.0882C68.6986 67.8775 64.4899 79.4509 62.5171 85.1059C60.1496 85.7637 57.782 87.0786 56.0722 89.7091C56.9929 89.0513 59.8865 88.657 61.991 88.3939C63.8322 88.2623 69.488 91.2871 70.9348 96.9425V97.2056C71.1978 99.3098 70.5401 101.283 69.488 102.861ZM57.1246 104.439C58.0561 103.093 58.173 101.014 58.2447 99.741V99.7409C58.264 99.3966 58.2801 99.1111 58.3081 98.9152C58.4397 97.9946 58.7028 96.285 59.7549 96.0219C60.8073 95.7588 63.3062 96.1534 63.3062 97.9946C63.3062 99.1719 62.433 99.7256 61.4597 100.343L61.4596 100.343C61.0196 100.622 60.5591 100.914 60.1496 101.283C59.5487 101.883 58.556 102.932 57.8656 103.661L57.8649 103.662L57.8645 103.662C57.4974 104.05 57.2159 104.348 57.1246 104.439ZM109.604 79.3194C110.919 72.6119 111.05 66.8254 110.656 62.0907C115.785 68.9296 118.942 77.2151 119.862 85.7637C119.994 86.8158 121.046 87.868 122.098 88.9201C123.019 89.7091 124.071 90.7612 124.071 91.4187C124.071 94.4435 123.808 97.4684 123.282 100.494C123.157 100.868 122.085 101.479 121.189 101.99L121.046 102.072C119.731 102.729 118.547 103.387 118.284 104.439C115.391 114.566 109.209 123.509 100.923 129.822C113.155 117.064 119.073 96.0219 109.604 79.3194ZM101.317 131.005C109.867 124.429 116.443 115.223 119.336 104.833C119.438 104.528 120.17 104.065 120.861 103.628L120.861 103.628L120.862 103.628C121.064 103.5 121.262 103.374 121.441 103.255C122.756 102.598 124.071 101.808 124.334 100.756C124.861 97.7315 125.124 94.5751 125.124 91.4187C125.124 90.235 123.94 89.0513 122.756 87.868C122.59 87.6687 122.399 87.461 122.206 87.2513C121.634 86.6305 121.046 85.9921 121.046 85.5006C119.994 75.8999 116.18 66.8254 110.261 59.3289C107.673 43.8029 97.4476 38.8414 96.8662 38.5593L96.8454 38.5491L96.8618 38.5735C97.3122 39.2419 103.876 48.9823 99.213 60.3811C94.8636 70.8424 84.4204 70.4829 81.4993 70.3824C81.1521 70.3704 80.9111 70.3621 80.7993 70.3761C79.7469 70.3761 75.6696 75.6368 70.5401 85.369C69.8824 85.1059 67.1205 84.4485 63.9639 84.9744C66.3314 78.3988 69.8824 69.0609 70.5401 68.2719C70.7496 68.0623 72.0436 67.6861 73.2262 67.3422C73.5286 67.2543 73.8236 67.1685 74.0914 67.0882C76.5903 66.4307 77.7741 66.0361 78.1688 65.5101C78.4318 65.1155 79.7469 62.0906 81.0624 58.9343C82.2458 58.9343 85.2711 58.6712 85.5341 58.5396C85.7971 58.2768 88.296 51.8325 88.296 51.0434C88.296 50.3857 83.1666 37.6286 81.1937 32.7626C82.1145 31.7105 83.0352 30.3952 83.956 28.9487C110.919 31.842 131.963 54.7257 131.963 82.4758C131.963 103.781 119.468 122.325 101.317 131.005ZM139.46 119.3C137.487 121.931 135.25 124.692 132.62 127.323C149.587 94.7069 133.409 64.8526 132.752 63.6689C133.935 64.8526 135.119 66.1679 136.171 67.3512C149.192 81.8182 150.771 103.518 139.46 119.3ZM122.361 35.6556C140.906 47.8868 149.324 61.4329 155.243 77.3464C154.98 60.5123 149.324 46.0456 138.407 34.4722C138.313 34.3782 138.286 34.3514 138.231 34.2958L138.144 34.2091C128.543 24.0822 114.469 19.3478 100.528 21.3205C95.2667 21.9781 90.0055 23.0301 85.9282 24.3453L85.9272 24.3455C85.2701 24.477 84.6127 24.6085 83.9553 24.8715H84.2184C85.2708 24.74 104.473 23.8194 122.361 35.6556Z" fill="black"/>
<path d="M118.152 12.2464C98.5549 8.56393 85.9281 10.4051 76.853 13.8246C76.5899 12.7724 75.6692 10.6682 74.8801 8.95847C72.1179 12.2464 69.2243 16.1918 67.3831 18.6907C62.385 22.1101 60.2805 25.3979 60.2805 25.3979C63.1741 15.5343 71.5918 8.16938 81.8507 6.32814C84.7443 5.80208 87.9009 5.53906 91.3209 5.53906C100.396 5.67056 109.471 7.90634 118.152 12.2464Z" fill="black"/>
<path d="M45.6813 37.4976C30.2926 36.9714 35.422 19.0853 35.6854 18.0332C35.6854 18.1647 36.7375 32.1054 45.6813 37.4976Z" fill="black"/>
<path d="M60.8067 5.27539C48.9694 12.3773 51.3369 29.3429 51.3369 29.3429C40.0256 12.1142 59.8863 5.66993 60.8067 5.27539Z" fill="black"/>
<path d="M41.3409 42.2311C42.13 42.8888 42.9191 44.0722 41.9987 45.7821C41.4723 46.7027 40.6832 46.5711 39.4995 46.0452C37.9213 45.2559 28.4512 39.7325 19.9021 34.0771C29.6349 37.4966 39.4994 41.1789 41.0779 41.968C41.0779 41.968 41.2093 42.0995 41.3409 42.2311Z" fill="black"/>
</svg>
