<svg width="212" height="330" viewBox="0 0 212 330" fill="none" xmlns="http://www.w3.org/2000/svg">
<path d="M0 10.4611C0 4.6836 4.68194 0 10.4574 0L201.543 0C207.318 0 212 4.68359 212 10.4611L212 319.539C212 325.316 207.318 330 201.543 330L10.4574 330C4.68194 330 0 325.316 0 319.539L0 10.4611Z" fill="#183EAD"/>
<path d="M0 10.4611C0 4.6836 4.68194 0 10.4574 0L201.543 0C207.318 0 212 4.68359 212 10.4611L212 319.539C212 325.316 207.318 330 201.543 330L10.4574 330C4.68194 330 0 325.316 0 319.539L0 10.4611Z" fill="url(#paint0_linear_1545_48687)"/>
<path d="M108.3 39.8401L108.3 39.8386C108.285 36.7821 110.735 34.3 113.737 34.3H134.263C137.264 34.3 139.7 36.766 139.7 39.8239V71.1761C139.7 74.234 137.264 76.7 134.263 76.7H113.737C110.736 76.7 108.3 74.234 108.3 71.1761L108.3 39.8401Z" fill="url(#paint1_linear_1545_48687)" stroke="#334463" stroke-width="0.6"/>
<path d="M109.618 64.8499C110.233 64.8499 110.732 64.3514 110.732 63.7363C111.198 63.1809 112.278 61.9387 113.708 60.8928C115.139 59.847 116.667 58.8882 116.667 58.8882C116.737 58.9023 116.81 58.9096 116.885 58.9096C117.5 58.9096 117.999 58.411 117.999 57.796C117.999 57.181 117.5 56.6824 116.885 56.6824C116.27 56.6824 115.771 57.181 115.771 57.796C115.771 57.796 114.309 58.7388 112.878 59.7847C111.448 60.8305 110.329 62.0943 109.863 62.6496C109.791 62.635 109.694 62.6227 109.618 62.6227C109.003 62.6227 108.504 63.1213 108.504 63.7363C108.504 64.3514 109.003 64.8499 109.618 64.8499Z" stroke="#334463" stroke-width="0.6" stroke-miterlimit="10" stroke-linejoin="round"/>
<path d="M108 48C108 48 113.667 46.5 119 48.9949H129C129 48.9949 131.5 47 139.5 47.5" stroke="#334463" stroke-width="0.6" stroke-miterlimit="10" stroke-linejoin="round"/>
<path d="M118.5 62L118.5 61.7C118.42 61.7 118.344 61.7316 118.288 61.7879L118.5 62ZM129 62H129.3C129.3 61.9204 129.268 61.8441 129.212 61.7879C129.156 61.7316 129.08 61.7 129 61.7L129 62ZM110.973 63.7987C113.763 64.0524 115.683 63.6733 116.916 63.219C117.532 62.9921 117.974 62.7472 118.266 62.5554C118.412 62.4595 118.52 62.377 118.594 62.3168C118.63 62.2867 118.658 62.2622 118.678 62.2444C118.688 62.2355 118.695 62.2283 118.701 62.2228C118.704 62.2201 118.706 62.2179 118.708 62.2161C118.709 62.2152 118.71 62.2144 118.711 62.2137C118.711 62.2134 118.711 62.2131 118.711 62.2129C118.712 62.2127 118.712 62.2125 118.712 62.2125C118.712 62.2123 118.712 62.2121 118.5 62C118.288 61.7879 118.288 61.7877 118.288 61.7876C118.288 61.7875 118.288 61.7874 118.288 61.7873C118.289 61.7872 118.289 61.7871 118.289 61.787C118.289 61.7868 118.289 61.7868 118.289 61.7868C118.289 61.787 118.288 61.7876 118.287 61.7886C118.285 61.7907 118.281 61.7947 118.274 61.8003C118.262 61.8115 118.242 61.8295 118.213 61.8531C118.155 61.9003 118.064 61.9702 117.937 62.054C117.682 62.2215 117.28 62.4454 116.709 62.656C115.567 63.0767 113.737 63.4476 111.027 63.2012L110.973 63.7987ZM118.5 62.3L129 62.3L129 61.7L118.5 61.7L118.5 62.3ZM128.7 62V76.5347H129.3V62H128.7Z" fill="#334463"/>
<path d="M129 49V34" stroke="#334463" stroke-width="0.6" stroke-miterlimit="10" stroke-linejoin="round"/>
<path d="M119 49V34" stroke="#334463" stroke-width="0.6" stroke-miterlimit="10" stroke-linejoin="round"/>
<path d="M118.917 62L118.917 76.5347" stroke="#334463" stroke-width="0.6" stroke-miterlimit="10"/>
<path d="M139.64 63.0036L133 63" stroke="#334463" stroke-width="0.6" stroke-miterlimit="10" stroke-linecap="round"/>
<path d="M105.556 200.178C105.164 195.456 101.249 191.731 96.4558 191.691C95.0895 191.691 93.7524 191.98 92.5147 192.56C89.1198 194.154 87.2222 197.537 87.2222 201.235C87.4086 206.251 91.6759 210.371 96.6755 210.371H101.921C102.201 210.371 102.434 210.144 102.434 209.856V206.84C102.434 206.559 102.208 206.325 101.921 206.325H96.4492C94.1591 206.325 92.2151 204.613 91.5161 202.546H104.937C105.303 202.546 105.596 202.272 105.596 201.937C105.59 201.516 105.556 200.178 105.556 200.178ZM101.242 199.209H91.5361C92.3284 196.968 94.5325 195.531 96.8819 195.757C98.919 195.951 100.563 197.356 101.242 199.209Z" fill="white"/>
<path d="M75.4722 191.699C73.7357 191.741 72.0496 192.294 70.6239 193.291V192.241C70.6239 192.156 70.5905 192.075 70.531 192.015C70.4716 191.956 70.391 191.922 70.307 191.922H66.9163C66.8323 191.922 66.7517 191.956 66.6922 192.015C66.6328 192.075 66.5994 192.156 66.5994 192.241V200.725C66.5915 200.868 66.5915 201.012 66.5994 201.155V209.814C66.5994 209.951 66.6523 210.082 66.7469 210.18C66.8416 210.278 66.9705 210.335 67.1064 210.34H70.1168C70.1848 210.34 70.252 210.326 70.3146 210.299C70.3772 210.273 70.4338 210.234 70.4811 210.185C70.5284 210.136 70.5654 210.078 70.5899 210.014C70.6144 209.95 70.626 209.882 70.6239 209.814V200.948C70.6248 200.22 70.7773 199.5 71.0716 198.835C71.3658 198.169 71.7953 197.573 72.3324 197.085C72.8695 196.596 73.5025 196.225 74.1905 195.997C74.8786 195.769 75.6066 195.687 76.3278 195.758C77.64 195.897 78.8539 196.521 79.7327 197.51C80.6115 198.499 81.0922 199.781 81.0811 201.107V209.846C81.0789 209.914 81.0905 209.982 81.115 210.046C81.1395 210.11 81.1765 210.168 81.2238 210.217C81.2711 210.266 81.3277 210.305 81.3903 210.331C81.4529 210.358 81.5201 210.371 81.5881 210.371H84.5826C84.7213 210.371 84.8543 210.316 84.9524 210.218C85.0504 210.119 85.1055 209.985 85.1055 209.846V200.948C85.1024 199.698 84.8478 198.461 84.3571 197.312C83.8665 196.163 83.1497 195.125 82.25 194.262C81.3503 193.398 80.2862 192.726 79.1215 192.285C77.9568 191.845 76.7155 191.646 75.4722 191.699Z" fill="white"/>
<path d="M123.19 191.823C123.143 191.778 123.08 191.753 123.016 191.753C122.951 191.753 122.888 191.778 122.841 191.823L116.424 198.19L110.087 191.823C110.04 191.778 109.977 191.753 109.912 191.753C109.848 191.753 109.785 191.778 109.738 191.823L107.155 194.513C107.111 194.56 107.086 194.623 107.086 194.688C107.086 194.753 107.111 194.816 107.155 194.863L113.493 201.23L107.06 207.693C107.016 207.74 106.991 207.803 106.991 207.868C106.991 207.933 107.016 207.996 107.06 208.043L109.595 210.574C109.624 210.605 109.658 210.63 109.696 210.647C109.734 210.664 109.776 210.672 109.817 210.672C109.859 210.672 109.9 210.664 109.938 210.647C109.977 210.63 110.011 210.605 110.039 210.574L116.377 204.207L122.714 210.574C122.762 210.619 122.824 210.644 122.889 210.644C122.954 210.644 123.016 210.619 123.063 210.574L125.646 207.996C125.69 207.948 125.715 207.886 125.715 207.82C125.715 207.755 125.69 207.693 125.646 207.645L119.308 201.278L125.741 194.911C125.785 194.864 125.81 194.801 125.81 194.736C125.81 194.671 125.785 194.608 125.741 194.561L123.19 191.823Z" fill="white"/>
<path d="M136.068 191.691C134.192 191.666 132.35 192.202 130.777 193.231C129.204 194.261 127.972 195.737 127.236 197.471C126.5 199.206 126.295 201.122 126.646 202.974C126.996 204.827 127.888 206.533 129.206 207.875C130.524 209.217 132.21 210.136 134.049 210.513C135.888 210.89 137.797 210.709 139.534 209.994C141.27 209.278 142.756 208.06 143.801 206.493C144.847 204.927 145.405 203.084 145.405 201.198C145.406 198.699 144.426 196.299 142.679 194.52C140.931 192.741 138.556 191.724 136.068 191.691ZM136.068 206.618C135.328 206.658 134.588 206.546 133.892 206.289C133.196 206.032 132.56 205.635 132.021 205.123C131.483 204.61 131.055 203.993 130.762 203.309C130.469 202.625 130.318 201.888 130.318 201.143C130.318 200.398 130.469 199.661 130.762 198.977C131.055 198.293 131.483 197.676 132.021 197.163C132.56 196.651 133.196 196.254 133.892 195.997C134.588 195.74 135.328 195.628 136.068 195.668C137.463 195.744 138.776 196.353 139.736 197.372C140.697 198.39 141.232 199.74 141.232 201.143C141.232 202.546 140.697 203.896 139.736 204.914C138.776 205.933 137.463 206.542 136.068 206.618Z" fill="white"/>
<path d="M106.041 124.692L125.718 113.273L144.645 124.252C144.872 124.39 145.06 124.584 145.193 124.815C145.326 125.045 145.399 125.306 145.405 125.573V170.35L126.399 181.329C126.159 181.469 125.885 181.543 125.607 181.543C125.329 181.543 125.056 181.469 124.815 181.329L105.994 170.372L86.3598 181.775L67.3537 170.796C67.1271 170.657 66.9386 170.463 66.8058 170.233C66.673 170.002 66.6 169.741 66.5935 169.475L66.5935 124.681L78.7917 131.713L66.6738 124.681L85.6799 113.718C85.903 113.603 86.15 113.544 86.4006 113.544C86.6511 113.544 86.8981 113.603 87.1212 113.718L106.041 124.692Z" fill="white"/>
<path d="M87.1224 113.718L125.721 136.107V158.941L66.675 124.682L85.6811 113.718C85.9043 113.604 86.1512 113.544 86.4018 113.544C86.6523 113.544 86.8993 113.604 87.1224 113.718Z" fill="#D9EEFF"/>
<path d="M125.719 113.272L106.031 124.697L125.719 136.107V113.272Z" fill="#BBDDFF"/>
<path d="M125.719 113.272L144.646 124.252C144.872 124.39 145.061 124.584 145.194 124.815C145.326 125.046 145.399 125.306 145.406 125.573V170.35L125.719 158.941L125.719 113.272Z" fill="#A0CCFF"/>
<path d="M145.406 170.35L126.4 181.33C126.159 181.469 125.886 181.543 125.608 181.543C125.33 181.543 125.057 181.469 124.816 181.33L86.3601 158.941V136.075L145.406 170.35Z" fill="#BBDDFF"/>
<path d="M66.5935 124.682L66.5935 169.475C66.6 169.742 66.673 170.002 66.8058 170.233C66.9386 170.464 67.1271 170.657 67.3537 170.796L86.3598 181.775L86.3598 136.075L66.5935 124.682Z" fill="white"/>
<path d="M86.3601 181.775L106.031 170.35L86.3601 158.941V181.775Z" fill="#D9EEFF"/>
<g clip-path="url(#clip0_1545_48687)">
<path d="M173.343 279.355H154.034V314.214H173.343V279.355Z" fill="#E25011"/>
<path d="M155.252 296.784C155.244 293.432 155.996 290.121 157.451 287.104C158.905 284.087 161.024 281.442 163.647 279.369C160.391 276.792 156.479 275.187 152.358 274.739C148.237 274.291 144.074 275.018 140.344 276.836C136.615 278.653 133.471 281.489 131.27 285.018C129.07 288.547 127.904 292.627 127.904 296.791C127.904 300.955 129.07 305.035 131.27 308.564C133.471 312.093 136.615 314.929 140.344 316.747C144.074 318.565 148.237 319.291 152.358 318.843C156.479 318.395 160.391 316.791 163.647 314.214C161.024 312.138 158.905 309.49 157.45 306.471C155.996 303.451 155.244 300.139 155.252 296.784Z" fill="#D71016"/>
<path d="M199.382 296.784C199.386 300.944 198.225 305.022 196.03 308.55C193.835 312.078 190.695 314.914 186.971 316.733C183.246 318.551 179.087 319.28 174.969 318.834C170.852 318.389 166.942 316.787 163.689 314.213C166.314 312.139 168.436 309.493 169.895 306.475C171.354 303.457 172.112 300.146 172.112 296.791C172.112 293.436 171.354 290.125 169.895 287.107C168.436 284.089 166.314 281.443 163.689 279.368C166.941 276.795 170.85 275.194 174.966 274.748C179.082 274.302 183.24 275.029 186.964 276.846C190.689 278.663 193.828 281.497 196.024 285.023C198.22 288.549 199.384 292.625 199.382 296.784Z" fill="#F29E00"/>
<path d="M196.653 309.617V309.758H196.948V310.475H197.102V309.758H197.382V309.617H196.653ZM198.294 309.617L198.041 310.222L197.789 309.617H197.565V310.489H197.719V309.828L197.957 310.39H198.126L198.364 309.828V310.489H198.518V309.617H198.294Z" fill="#F29E00"/>
</g>
<defs>
<linearGradient id="paint0_linear_1545_48687" x1="166" y1="-26.5" x2="0.11062" y2="330.051" gradientUnits="userSpaceOnUse">
<stop stop-color="#2663FF"/>
<stop offset="1" stop-color="#1E57FF" stop-opacity="0"/>
</linearGradient>
<linearGradient id="paint1_linear_1545_48687" x1="115.033" y1="30.3905" x2="140.354" y2="76.2051" gradientUnits="userSpaceOnUse">
<stop stop-color="#CFCFCF"/>
<stop offset="0.455668" stop-color="#FEFEFE"/>
<stop offset="1" stop-color="#DFDFDF"/>
</linearGradient>
<clipPath id="clip0_1545_48687">
<rect width="71.3999" height="44.3329" fill="white" transform="translate(127.982 274.618)"/>
</clipPath>
</defs>
</svg>
