<svg width="48" height="48" viewBox="0 0 48 48" fill="none" xmlns="http://www.w3.org/2000/svg">
<rect width="48" height="48" rx="12" fill="#1E4DD8"/>
<path fill-rule="evenodd" clip-rule="evenodd" d="M14.6943 20.1832L12.0319 18.6443L13.2679 16.5009L15.9 18.0222L15.9501 15.1499L18.4218 15.1931L18.3478 19.4371L22.7847 22.0017V16.8726L19.0765 14.8147L20.275 12.65L22.7847 14.0428V11H25.2569V14.0779L27.8298 12.65L29.0283 14.8147L25.2569 16.9077V22.0383L29.757 19.4371L29.683 15.1931L32.1548 15.1499L32.2048 18.0222L34.8369 16.5009L36.073 18.6443L33.4105 20.1832L35.9321 21.7001L34.6589 23.8216L30.9627 21.5981L26.5246 24.1634L31.0247 26.7646L34.6589 24.5784L35.9321 26.6999L33.4725 28.1795L36.1046 29.7009L34.8685 31.8443L32.2061 30.3054L32.1548 33.2501L29.683 33.2069L29.7583 28.8905L25.2569 26.2886V31.4923L29.0283 33.5853L27.8298 35.75L25.2569 34.3221V37.4H22.7847V34.3572L20.275 35.75L19.0765 33.5853L22.7847 31.5274V26.3251L18.3466 28.8905L18.4218 33.2069L15.9501 33.2501L15.8987 30.3054L13.2363 31.8443L12.0002 29.7009L14.6323 28.1795L12.1727 26.6999L13.4459 24.5784L17.0801 26.7646L21.5803 24.1634L17.1421 21.5981L13.4459 23.8216L12.1727 21.7001L14.6943 20.1832Z" fill="white"/>
</svg>
