<svg width="623" height="66" viewBox="0 0 623 66" fill="none" xmlns="http://www.w3.org/2000/svg">
<path d="M428.763 21.5658C434.663 18.7232 442.217 19.8291 447 24.2488C446.298 24.8445 445.625 25.4637 444.903 26.0244C444.397 26.1802 444.09 25.6389 443.727 25.4208C442.699 24.5875 441.507 23.9489 440.235 23.5556C437.453 22.625 434.364 22.6016 431.577 23.5284C428.257 24.5992 425.403 27.1887 424.426 30.5103C423.505 33.4152 424.37 36.655 426.316 38.9758C429.724 43.0255 435.867 44.1236 440.77 42.2779C442.217 41.7483 443.392 40.7553 444.656 39.9259C445.597 40.2686 446.219 41.1486 446.984 41.7639C445.701 42.7023 444.493 43.7615 443.018 44.404C438.709 46.46 433.451 46.5457 429.098 44.5675C425.028 42.8308 421.867 39.1276 421.09 34.8248C420.978 33.6216 420.962 32.4105 421.09 31.2073C421.783 26.9901 424.857 23.3804 428.763 21.5658Z" fill="#2810BC"/>
<path d="M211 21.0098C217.331 20.998 223.662 20.9941 229.989 21.0137C229.989 21.9537 229.989 22.8938 230 23.8339C224.637 23.869 219.271 23.8417 213.908 23.8456C213.893 26.58 213.908 29.3145 213.897 32.045C218.907 32.0684 223.917 32.045 228.927 32.0567C228.942 33.028 228.942 33.9993 228.923 34.9706C223.913 34.9667 218.907 34.955 213.897 34.9745C213.916 37.7128 213.878 40.4512 213.92 43.1895C219.278 43.1934 224.637 43.1778 229.996 43.1973C229.989 44.1296 229.989 45.0619 229.989 45.9981C223.662 45.9981 217.335 46.0059 211.004 45.9903C211 37.666 211.008 29.3379 211 21.0098Z" fill="#2810BC"/>
<path d="M238 21.0577C239.299 20.9836 240.606 20.9836 241.909 21.0421C244.445 24.1379 247.09 27.1441 249.637 30.2322C249.909 30.6182 250.289 30.8911 250.746 31.0237C253.492 27.6315 256.365 24.3446 259.18 21.007C260.452 21.007 261.724 21.0031 263 21.0226C259.502 25.1244 256.051 29.273 252.526 33.3475L252.588 33.7063C255.927 37.5858 259.188 41.5356 262.542 45.4034C262.608 45.5516 262.744 45.8518 262.814 46C261.581 45.9922 260.351 45.9922 259.122 45.9844C256.385 42.5259 253.321 39.3326 250.673 35.8078C249.719 36.5838 248.966 37.5624 248.195 38.5099C246.089 40.9897 243.968 43.4539 241.901 45.9649C240.598 46.0117 239.299 46.0078 238 45.9571C240.819 42.7404 243.53 39.4301 246.322 36.19C247.074 35.3244 247.714 34.3418 248.629 33.6283C245.158 29.3783 241.579 25.2141 238 21.0577Z" fill="#2810BC"/>
<path d="M304.006 21.0024C304.978 21.0063 305.954 21.0063 306.929 21.0024C307.121 22.9314 306.855 24.8643 307.007 26.7973C306.941 30.0877 306.922 33.3901 307.023 36.6805C307.093 40.348 310.193 43.2495 313.584 43.9242C315.595 44.2695 317.663 44.0115 319.533 43.1859C322.082 41.9396 324.022 39.2644 323.959 36.3273C323.955 31.219 323.955 26.1107 323.959 21.0063C324.97 20.9944 325.985 20.9904 327 21.0778C326.957 26.4441 327.02 31.8143 326.969 37.1806C326.813 37.9387 326.692 38.7008 326.516 39.4549C324.525 45.5754 317.054 48.4729 311.309 46.262C307.339 44.9165 304.029 41.1061 304.006 36.7361C303.998 31.4928 303.998 26.2456 304.006 21.0024Z" fill="#2810BC"/>
<path d="M341 21.0038C344.325 21.0116 347.65 21.0077 350.975 21.0077C352.688 21.0155 354.439 20.8908 356.102 21.4132C359.504 22.3295 362.421 25.4057 362.495 29.0434C362.701 32.8449 359.691 36.2486 356.129 37.1688C358.331 39.9058 360.413 42.7442 362.542 45.5359C362.658 45.6373 362.887 45.8322 363 45.9297C361.71 46.0232 360.417 46.0154 359.131 45.9531C357.286 43.3603 355.286 40.8806 353.394 38.3229C353.088 37.9525 352.746 37.3754 352.171 37.5509C349.471 37.5431 346.772 37.5548 344.076 37.5509C344.026 40.3542 344.061 43.1575 344.057 45.9609C343.039 45.996 342.022 45.996 341.008 45.996C340.992 37.6639 341.008 29.3358 341 21.0038ZM343.909 27.0901C344.072 29.3202 344.119 31.566 344.002 33.8001L343.793 34.1315C343.898 34.2758 344.103 34.5682 344.204 34.7125C347.778 34.6189 351.359 34.8138 354.933 34.6033C356.102 34.1705 357.31 33.6714 358.145 32.6928C359.462 31.336 359.761 29.2189 359.151 27.4683C358.355 25.5461 356.482 24.3101 354.505 23.8929C351.06 23.7799 347.615 23.9319 344.173 23.8072C343.7 24.8365 343.956 26.0023 343.909 27.0901Z" fill="#2810BC"/>
<path d="M374.003 21C380.332 21.0078 386.66 21.0078 392.989 21C392.996 21.9516 392.996 22.8994 393 23.851C387.714 23.851 382.425 23.851 377.139 23.8471C377.064 23.9485 376.921 24.1474 376.849 24.2449C376.801 26.8307 376.865 29.4204 376.827 32.0062C381.841 32.1154 386.86 32.0296 391.878 32.053C391.904 33.0242 391.904 33.9992 391.863 34.9743C386.848 34.986 381.834 34.9041 376.823 35.0172C376.846 37.3183 376.834 39.6232 376.827 41.9243C376.925 42.3066 376.631 43.0593 377.185 43.1685C382.455 43.2114 387.729 43.1724 393 43.1841C392.996 44.124 392.992 45.0601 392.992 46C386.664 45.9961 380.339 45.9922 374.011 46C373.992 37.6654 374.003 29.3346 374.003 21Z" fill="#2810BC"/>
<path d="M466.419 21.299C466.985 20.7308 468.034 21.1706 468.794 21.046C469.79 20.8125 469.919 21.9101 470.285 22.529C471.607 25.2537 473.014 27.9433 474.372 30.6524C474.549 31.0183 474.73 31.3881 474.915 31.7539C475.497 33.0851 476.241 34.3424 476.904 35.6346C478.499 39.1339 480.469 42.4657 482 45.9922C480.899 45.9922 479.81 45.9883 478.717 46C477.587 43.9409 476.53 41.8468 475.497 39.745C475.32 39.2935 475.011 38.9392 474.617 38.6668C472.479 38.7797 470.337 38.659 468.199 38.7252L467.97 39.1767L467.761 38.7252C465.55 38.7252 463.336 38.6434 461.134 38.768C460.611 39.3635 460.342 40.1109 460.028 40.8154C459.269 42.5591 458.204 44.1628 457.517 45.9338C456.343 46.0195 455.17 46 454 45.9766C454.522 45.0191 455.009 44.0421 455.451 43.0496C459.148 35.8176 462.769 28.5505 466.419 21.299ZM464.224 32.4662C463.65 33.6106 463.191 34.8211 462.428 35.8682C466.133 36.0433 469.851 35.9382 473.564 35.9266C473.13 35.0897 472.72 34.2489 472.306 33.4082C470.884 30.5473 469.409 27.7098 467.99 24.845C466.905 27.4607 465.47 29.9206 464.224 32.4662Z" fill="#2810BC"/>
<path d="M491 21.0127C495.273 20.9932 499.546 21.001 503.818 21.0049C505.219 21.0049 506.584 21.3911 507.877 21.9022C510.202 22.975 512.201 24.9685 512.769 27.4887C513.407 29.9036 512.693 32.5954 511.003 34.4446C509.214 36.4342 506.512 37.5226 503.83 37.5461C500.605 37.5617 497.383 37.5578 494.158 37.5422C494.091 40.3627 494.15 43.1794 494.126 46C493.083 46 492.043 46 491.008 45.9922C491.004 37.6631 491.016 29.3379 491 21.0127ZM494.126 34.6943C497.364 34.6982 500.605 34.6982 503.846 34.6943C506.445 34.7606 509.047 33.0401 509.781 30.559C510.087 29.6968 509.972 28.78 509.777 27.91C509.083 25.698 506.945 24.3092 504.723 23.8723C501.196 23.8216 497.669 23.8645 494.142 23.8489C494.114 27.4614 494.142 31.0778 494.126 34.6943Z" fill="#2810BC"/>
<path d="M524.011 21.0039C525.331 21.0039 526.66 21.0039 527.99 21C527.996 29.3333 528.012 37.6667 527.985 46C526.655 45.9922 525.331 45.9922 524.017 45.9961C523.99 37.6667 524.001 29.3372 524.011 21.0039Z" fill="#2810BC"/>
<path d="M538.004 21.0401C545.997 20.9582 553.995 21.0323 561.988 21.0011C561.988 21.9487 561.992 22.9001 562 23.8477C558.531 23.8516 555.062 23.8555 551.593 23.8477C551.57 31.2253 551.589 38.6068 551.581 45.9883C550.557 45.9922 549.537 45.9922 548.525 46C548.501 38.6146 548.528 31.2331 548.509 23.8477C545.005 23.8321 541.5 23.8984 538 23.8126C538.008 22.8884 538.008 21.9643 538.004 21.0401Z" fill="#2810BC"/>
<path d="M577.611 21C578.604 21.0039 579.601 21.0039 580.602 21.0468C582.443 24.8917 584.445 28.6626 586.307 32.4998C587.014 33.9738 587.858 35.3815 588.514 36.8829C589.981 39.9323 591.706 42.8765 593 46C591.886 45.9961 590.781 45.9922 589.675 46C588.666 43.863 587.5 41.8002 586.483 39.6671C586.302 39.2382 586.053 38.6728 585.478 38.7195C582.487 38.6883 579.496 38.6844 576.51 38.7273C576.232 38.7273 575.677 38.7312 575.4 38.7312C574.315 38.7 573.225 38.6338 572.156 38.7702C571.734 39.2109 571.537 39.7919 571.259 40.3106C570.427 42.2291 569.342 44.0307 568.518 45.9493C567.344 46.0195 566.17 46.0078 565 45.9649C566.475 43.0792 567.963 40.1936 569.398 37.2845C569.937 36.0406 570.648 34.8746 571.235 33.6501C571.408 33.2914 571.585 32.9326 571.77 32.5778C573.072 29.8247 574.556 27.1574 575.854 24.4082C576.385 23.2461 577.012 22.1309 577.611 21ZM579.022 24.8216C577.575 28.1323 575.75 31.2675 574.23 34.5431C573.985 35.0033 573.74 35.4634 573.503 35.9236C577.185 35.9626 580.867 35.9275 584.554 35.9431C584.401 35.6077 584.256 35.2762 584.112 34.9448C582.447 31.5561 580.703 28.2025 579.022 24.8216Z" fill="#2810BC"/>
<path d="M603 21.0117C603.995 21.0039 604.99 21.0039 605.997 21C606.024 28.3956 605.982 35.7911 606.016 43.1867C611.678 43.1984 617.339 43.1711 623 43.2023C622.988 44.1306 622.988 45.0629 622.992 45.9951C616.328 46.0029 609.668 45.999 603.004 45.999C602.996 37.6673 603.004 29.3395 603 21.0117Z" fill="#2810BC"/>
<path d="M176 21.0054C183.66 20.9937 191.325 21.0054 198.989 21.0015C198.992 21.9493 198.996 22.901 199 23.8528C195.686 23.8411 192.373 23.8567 189.059 23.841C189.021 31.2209 189.051 38.5968 189.044 45.9727C188.052 45.9961 187.061 46 186.069 46C186.05 38.6163 186.077 31.2365 186.058 23.8528C182.703 23.8371 179.351 23.8645 176 23.8371C176.004 22.8932 176.004 21.9493 176 21.0054Z" fill="#2810BC"/>
<path d="M269.004 21C277.333 21.0195 285.658 20.9844 293.988 21.0156C293.988 21.9555 293.988 22.8955 294 23.8354C290.354 23.8705 286.711 23.8393 283.069 23.8549C283.04 31.234 283.069 38.617 283.053 46C281.971 45.9961 280.894 45.9961 279.82 45.9766C279.812 38.6014 279.841 31.2223 279.804 23.8432C276.203 23.8588 272.601 23.8471 269 23.851C269 22.8994 269 21.9477 269.004 21Z" fill="#2810BC"/>
<path d="M46.3687 0H101.079C109.674 0.208421 117.788 5.51819 121.569 13.2099C118.1 13.2943 114.627 13.2198 111.158 13.2595C110.384 13.205 109.416 13.4382 108.875 12.7137C106.806 10.7436 104.131 9.29954 101.248 9.10105C97.4517 8.75368 93.6257 8.79338 89.8245 8.94225C86.6684 8.81819 83.5123 8.8033 80.3562 8.87774C77.7212 8.91247 75.0861 8.78841 72.4511 8.91247C68.3075 8.73879 64.1639 8.88766 60.0203 8.8827C56.0603 9.0018 52.0804 8.69909 48.1155 8.86285C44.8651 9.09112 41.5949 10.1332 39.1931 12.411C33.3871 17.9093 33.1737 28.0326 38.5033 33.923C40.9398 36.5779 44.5276 38.151 48.1353 38.0666C59.6183 38.0517 71.1063 38.1013 82.5942 38.0418C83.939 40.8604 83.8299 44.1654 82.6091 47.0039C70.5058 46.9791 58.4025 47.0386 46.3042 46.9791C36.037 46.7161 26.6034 38.8407 24.4845 28.7968C22.9958 22.3407 24.3356 15.2495 28.2559 9.88511C32.3698 4.04436 39.2477 0.347368 46.3687 0Z" fill="#2810BC"/>
<path d="M41.1582 19.1094C51.0731 18.8513 61.0028 19.0697 70.9276 19.0002C74.1036 19.0498 77.3043 18.8265 80.4604 19.2831C89.4324 20.7916 97.0646 27.8234 99.3473 36.6217C100.052 39.748 100.191 42.9785 99.779 46.1594C99.5954 46.8393 99.4714 47.539 99.3572 48.2387C99.0247 49.2758 98.6823 50.313 98.3647 51.3551C94.4246 51.3799 90.4795 51.4246 86.5393 51.3253C89.1545 47.8665 89.5466 43.2912 88.9362 39.1277C87.8593 33.1778 82.6637 28.0268 76.4607 27.9474C64.7991 27.9425 53.1275 27.873 41.4658 27.9822C39.863 25.3124 40.2848 21.9578 41.1582 19.1094Z" fill="#2810BC"/>
<path d="M17.294 19.7253C17.5868 19.6856 18.1624 19.6012 18.4552 19.5615C17.9093 22.7523 18.1624 26.0027 18.6636 29.1787C9.37398 33.3967 8.15323 47.8423 15.9243 54.1147C19.5965 57.2708 24.7326 57.2907 29.3079 57.1071C31.7743 56.8242 34.2555 57.4693 36.7218 57.0128C38.2303 57.2063 39.7588 57.1865 41.2773 57.1716L41.6147 56.9433C43.1233 56.9483 44.6318 57.0525 46.1255 57.251C48.0807 60.6899 50.8299 63.6723 54.0207 65.9997H22.3308C14.8177 65.568 7.6024 61.4045 3.63248 54.9881C1.48872 51.7824 0.446616 47.9762 0 44.185V41.4259C0.243158 37.5105 1.32992 33.5902 3.4191 30.2505C6.47097 25.1095 11.612 21.4323 17.294 19.7253Z" fill="#2810BC"/>
<path d="M95.1987 19.6558C103.66 19.5218 112.12 19.631 120.581 19.5962C122.914 19.626 125.261 19.487 127.583 19.7649C132.035 20.6284 136.476 22.261 139.915 25.303C141.935 27.0299 143.265 29.3672 144.535 31.6598C145.622 33.8532 146.431 36.1607 146.991 38.5427C147.274 41.3663 147.458 44.2693 146.847 47.0631C146.391 49.2069 145.493 51.2067 144.515 53.1569C141.711 58.3377 137.002 62.4614 131.444 64.4414C125.544 66.2775 119.246 65.7714 113.153 65.7118C110.83 65.6225 108.513 65.6076 106.2 65.419C93.9581 65.3992 81.7208 65.419 69.4835 65.4141C67.8013 65.4389 66.1835 64.9278 64.5906 64.4414C58.9583 62.4714 53.5741 58.819 50.9489 53.2959C54.6608 53.2909 58.3777 53.2661 62.0895 53.3108C63.355 54.6506 64.8486 55.7672 66.5408 56.5115C67.1562 56.7299 67.7715 56.9433 68.3819 57.1765C69.7416 57.38 71.1013 57.6678 72.4858 57.6628C89.3431 57.6529 106.2 57.6628 123.063 57.6578C124.383 57.6181 125.688 57.3303 126.973 57.0078C127.464 56.8291 127.956 56.6505 128.447 56.4718C131.97 54.9881 135.017 52.1992 136.357 48.5717C136.575 47.9464 136.784 47.3212 137.022 46.7058C138.004 42.324 137.712 37.3964 135.052 33.6349C132.997 30.5582 129.618 28.6377 126.114 27.675C123.628 27.278 121.122 27.5311 118.621 27.5013C113.123 27.5013 107.625 27.4914 102.126 27.5063C100.121 24.6678 98.2555 21.4819 95.1987 19.6558Z" fill="#2810BC"/>
<path d="M109.654 34.0282C113.421 33.9984 117.197 33.8644 120.959 34.0976C118.532 37.9038 115.52 41.4519 111.565 43.7148C109.749 44.479 107.868 45.0943 106.096 45.9627C106.091 43.0895 105.947 40.2064 105.521 37.3629C106.796 36.1273 108.349 35.2291 109.654 34.0282Z" fill="#2810BC"/>
</svg>
