<svg width="244" height="64" viewBox="0 0 244 64" fill="none" xmlns="http://www.w3.org/2000/svg">
<path d="M86.5231 36.7733C85.6226 29.0238 82.2779 23.3238 76.875 20.1856C70.8288 16.6631 61.6309 16.407 55.0702 19.6733C50.3747 22.0429 46.5155 26.5901 44.7788 31.7778C43.0422 37.1576 43.0422 44.2025 44.7788 49.7104C45.9366 53.2329 47.416 55.7947 49.7959 58.1644C52.626 60.9824 56.3566 62.7756 60.6018 63.352C62.1455 63.5442 66.9052 63.6082 68.5133 63.352C69.2851 63.2239 70.5715 62.9678 71.4077 62.7116C79.1262 60.47 84.4005 54.5779 86.2015 46.1239C86.6518 44.1385 86.7804 39.143 86.5231 36.7733ZM73.3373 46.1239C72.7584 54.2576 70.9575 58.6767 67.6771 60.2138C66.455 60.7902 64.3324 60.7902 63.1746 60.2779C60.2802 58.997 58.2219 55.0262 57.2571 48.7497C56.6139 44.7789 56.5496 35.9407 57.1284 31.6497C57.9646 25.5654 59.7013 21.9789 62.4671 20.762C64.3324 19.9294 66.9052 20.4418 68.5776 21.9148C72.3082 25.2452 74.1735 34.7239 73.3373 46.1239Z" fill="#94A8B6"/>
<path d="M23.2199 5.98266H28.7515C35.1193 5.98266 36.1484 6.11075 38.3996 7.19952C41.68 8.80065 44.0599 11.9389 46.1182 17.3827C46.9543 19.6243 46.9543 19.6243 48.8196 19.0479L50.0417 18.6636L49.9131 10.5939C49.8488 6.1748 49.7201 2.204 49.6558 1.81973L49.5272 1.11523H25.3425C12.028 1.11523 0.900494 1.11523 0.578889 1.17928L0 1.24332L0.064321 2.65232L0.128642 4.06131L1.92963 4.38154C4.30951 4.63772 5.72457 5.34221 6.62506 6.55907C8.55469 9.31301 8.8763 13.0917 8.8763 31.0243C8.8763 50.1097 8.49037 54.785 6.62506 57.1547C5.66025 58.3716 4.8884 58.8199 2.7658 59.2042C-0.064321 59.7165 0.064321 59.6525 0.064321 61.1255C0.064321 61.9581 0.128642 62.3424 0.257284 62.4064C0.578889 62.5345 31.5173 62.5345 31.8389 62.4064C32.2891 62.2143 32.2248 59.9727 31.8389 59.7165C31.6459 59.6525 30.6168 59.3963 29.5233 59.2682C28.4299 59.0761 27.2078 58.8199 26.8219 58.6918C24.7636 57.7952 23.6701 55.3614 23.2199 51.0064C22.8983 47.8682 22.7053 42.0401 22.7053 37.749V33.7782L24.5706 33.8423C28.5585 33.9704 30.6811 34.1625 31.5173 34.5468C33.3183 35.3153 34.7977 37.5569 35.5695 40.6951L35.9554 42.3603L37.3705 42.4243L38.7856 42.4884V31.985V21.4816L37.3705 21.5456L35.9554 21.6097L35.5052 23.2748C34.669 26.4771 33.3826 28.4625 31.453 29.3591C30.6811 29.7434 30.1022 29.8074 28.2369 29.9355C26.9505 29.9996 25.2138 30.0636 24.3133 30.0636H22.7053V24.876C22.7053 19.6883 22.9626 8.60851 23.1556 6.87929L23.2199 5.98266Z" fill="#94A8B6"/>
<path d="M242.876 42.9876C241.396 40.0415 238.695 38.0561 232.97 35.6864C228.339 33.7651 226.024 32.4201 224.544 30.883C223.386 29.6021 223.065 28.5774 223.193 26.7201C223.322 24.9909 223.708 23.9662 224.801 22.8134C226.217 21.3403 228.146 20.828 230.462 21.2763C234.257 22.0448 236.701 24.6707 238.759 30.2426C239.531 32.228 239.595 32.292 240.946 31.7797L241.782 31.4594V29.2179C241.782 28.001 241.718 25.3752 241.654 23.3898L241.525 19.8032L240.882 19.5471C237.408 18.074 230.783 17.1774 226.474 17.5617C221.585 18.01 217.983 19.5471 215.218 22.4291C212.452 25.2471 211.23 28.5774 211.423 32.5482C211.616 35.8145 212.581 38.1842 214.574 40.2336C216.44 42.155 218.048 43.0516 222.55 44.7808C229.819 47.5988 231.748 49.264 231.748 52.7865C231.748 55.7325 230.14 57.9101 227.31 58.8708C226.281 59.255 223.708 59.255 222.293 58.8708C218.691 57.9101 215.925 54.7719 213.545 49.0078L212.966 47.5348L212.259 47.5988C211.873 47.5988 211.358 47.7269 211.037 47.855L210.522 48.1112L210.587 50.673C210.587 52.082 210.651 55.028 210.715 57.2056L210.844 61.1764L211.68 61.4966C213.352 62.2011 218.305 63.2899 221.457 63.6101C221.843 63.6741 223.965 63.6741 226.217 63.6101C230.076 63.546 230.333 63.546 232.263 63.0337C237.987 61.5606 241.654 58.3584 243.326 53.555C243.841 52.082 243.905 51.6337 243.969 49.3921C244.098 46.382 243.841 44.9089 242.876 42.9876Z" fill="#94A8B6"/>
<path d="M208.072 35.516C207.236 27.6385 204.084 22.2587 198.617 19.5688C193.793 17.1351 186.332 17.3272 180.929 19.953C175.783 22.4508 172.245 26.6137 170.251 32.5059C169.222 35.5801 168.901 38.0778 169.029 42.0486C169.093 44.5464 169.222 45.8913 169.479 47.0441C171.538 56.0745 177.713 62.2228 186.46 63.7599C188.39 64.0801 192.699 64.0801 194.693 63.7599C197.459 63.2476 200.675 62.0307 202.669 60.6857C205.113 59.0206 207.622 56.5228 207.622 55.7543C207.622 55.306 206.786 54.2172 206.4 54.2172C206.271 54.2172 205.564 54.6015 204.856 54.9857C202.476 56.5228 200.161 57.1633 196.945 57.1633C192.571 57.1633 189.741 56.0745 186.975 53.2565C185.753 52.0396 185.238 51.3352 184.595 50.1183C183.18 47.4284 182.408 44.2902 182.279 40.7037L182.215 39.1666L195.208 39.1025L208.201 39.0385L208.265 38.1419C208.265 37.8857 208.201 36.6048 208.072 35.516ZM193.471 35.1317C189.805 35.3239 181.958 35.452 181.829 35.2598C181.7 35.0677 182.022 31.9295 182.344 30.3284C183.115 26.4216 184.402 23.6677 186.074 21.9384C186.975 21.0418 187.425 20.7216 188.197 20.5295C188.711 20.4014 189.29 20.2733 189.483 20.2733C190.319 20.2733 191.22 20.6575 191.927 21.362C193.857 23.0913 194.886 26.8699 195.144 32.3778L195.272 35.1317H193.471Z" fill="#94A8B6"/>
<path d="M118.165 17.3052C116.106 17.3052 115.013 17.5614 113.405 18.2659C110.382 19.6108 108.131 21.8524 106.137 25.503L105.493 26.6558L105.558 24.6704C105.622 23.5816 105.686 21.5322 105.751 20.0591L105.815 17.4973H105.365C104.786 17.4973 87.4193 20.9557 86.9047 21.1479C86.5831 21.276 86.5188 21.4681 86.5188 22.3007C86.5188 23.1333 86.5831 23.2614 86.9047 23.3254C87.0977 23.3895 87.9339 23.5176 88.7057 23.6456C90.2494 23.9659 90.6997 24.158 91.3429 24.9906C92.5007 26.5277 92.7579 29.2176 92.7579 40.7457C92.7579 50.1603 92.565 54.8356 92.1147 56.3087C91.5358 58.1019 90.571 58.9985 88.8987 59.3188C88.3198 59.4469 87.6123 59.575 87.2906 59.639L86.6474 59.7671L86.5831 60.9839C86.5188 61.8165 86.5831 62.2649 86.7761 62.3289C86.9047 62.3929 92.8223 62.457 99.9619 62.457L112.955 62.3929L113.019 61.048C113.019 60.2795 113.019 59.703 112.955 59.703C111.926 59.703 108.838 59.2547 108.388 59.0626C106.909 58.4221 106.201 57.1412 105.879 54.5154C105.493 51.3772 105.301 43.6277 105.429 37.2873C105.558 30.8827 105.558 30.8187 105.944 30.4344C106.909 29.4097 109.288 28.6412 111.411 28.6412C113.148 28.6412 114.884 29.0895 116.75 29.9861C117.65 30.4344 118.486 30.7547 118.615 30.6906C118.872 30.6266 123.117 19.4187 123.117 18.8423C122.989 18.0737 120.545 17.3052 118.165 17.3052Z" fill="#94A8B6"/>
<path d="M165.102 33.1113C163.365 25.1057 158.348 19.5978 151.595 18.2529C150.566 18.0607 149.601 17.9967 147.607 18.0607C144.584 18.1888 142.525 18.6371 140.21 19.6619C139.438 19.9821 138.795 20.3023 138.73 20.3023C138.666 20.3023 138.666 15.7551 138.73 10.1832C138.923 2.30562 138.859 0 138.73 0C138.152 0 120.27 3.39439 120.077 3.52248C119.949 3.65057 119.884 4.03484 119.884 4.61125C119.949 5.57193 119.82 5.50788 122.007 6.02024C122.65 6.14833 123.422 6.46856 123.744 6.66069C124.451 7.17305 125.094 8.32587 125.48 9.92699C125.802 11.2079 125.866 12.1045 125.995 20.6225C126.124 29.3327 126.124 38.363 125.866 54.8226L125.738 61.6755L127.024 61.9957C128.889 62.444 134.228 63.2766 135.965 63.4687C138.537 63.7249 144.455 63.6609 146.385 63.4047C154.618 62.1878 160.793 57.4485 163.687 50.1473C164.459 48.226 165.166 45.2159 165.424 43.0383C165.745 40.3484 165.552 35.1608 165.102 33.1113ZM152.045 45.8563C151.209 50.9159 149.794 54.8867 147.735 57.3844C146.771 58.6013 145.098 59.7541 143.812 60.1384C142.976 60.3946 141.175 60.4586 139.631 60.2665C139.245 60.2024 138.923 60.0743 138.795 59.9462C138.473 59.562 138.152 35.8653 138.345 28.9484L138.473 23.4405L139.888 23.0562C141.947 22.4798 144.198 22.5439 145.741 23.3124C148.893 24.7855 151.016 28.5001 152.109 34.5844C152.495 36.5698 152.431 43.4226 152.045 45.8563Z" fill="#94A8B6"/>
</svg>
