<svg width="32" height="32" viewBox="0 0 32 32" fill="none" xmlns="http://www.w3.org/2000/svg">
<path fill-rule="evenodd" clip-rule="evenodd" d="M16 32C24.8366 32 32 24.8366 32 16C32 7.16344 24.8366 0 16 0C7.16344 0 0 7.16344 0 16C0 24.8366 7.16344 32 16 32Z" fill="#1E4DD8"/>
<path d="M16.008 11.4266L19.9917 9.13916L23.8237 11.3384C23.8696 11.3662 23.9077 11.405 23.9346 11.4512C23.9615 11.4974 23.9763 11.5496 23.9776 11.603V20.5727L20.1297 22.7722C20.081 22.8002 20.0257 22.8149 19.9694 22.8149C19.9131 22.8149 19.8578 22.8002 19.809 22.7722L15.9984 20.5771L12.0234 22.8615L8.1754 20.662C8.12951 20.6343 8.09136 20.5955 8.06447 20.5493C8.03757 20.5031 8.02279 20.4509 8.02148 20.3975V11.4245L10.4911 12.833L8.03775 11.4245L11.8857 9.22828C11.9309 9.20534 11.9809 9.19338 12.0316 9.19338C12.0823 9.19338 12.1323 9.20534 12.1775 9.22828L16.008 11.4266Z" fill="white"/>
<path d="M12.1775 9.22778L19.9921 13.7127V18.2868L8.02405 11.4275L11.8857 9.22778C11.9309 9.20483 11.9809 9.19287 12.0316 9.19287C12.0823 9.19287 12.1323 9.20483 12.1775 9.22778Z" fill="#D9EEFF"/>
<path d="M19.9919 9.13867L16.0061 11.4273L19.9919 13.7128V9.13867Z" fill="#BBDDFF"/>
<path d="M19.9918 9.13867L23.8237 11.3381C23.8696 11.3658 23.9078 11.4046 23.9347 11.4508C23.9616 11.4971 23.9763 11.5493 23.9777 11.6027V20.5724L19.9918 18.287V9.13867Z" fill="#A0CCFF"/>
<path d="M23.9779 20.5725L20.1299 22.772C20.0812 22.7999 20.0259 22.8147 19.9696 22.8147C19.9133 22.8147 19.858 22.7999 19.8092 22.772L12.0236 18.2871V13.7065L23.9779 20.5725Z" fill="#BBDDFF"/>
<path d="M8.02148 11.4243V20.3973C8.02279 20.4507 8.03757 20.5029 8.06447 20.5491C8.09136 20.5953 8.12951 20.6341 8.1754 20.6619L12.0234 22.8613V13.7066L8.02148 11.4243Z" fill="white"/>
<path d="M12.0236 22.8613L16.0062 20.5726L12.0236 18.2871V22.8613Z" fill="#D9EEFF"/>
</svg>
