<svg width="132" height="64" viewBox="0 0 132 64" fill="none" xmlns="http://www.w3.org/2000/svg">
<path d="M0.0439453 0.351562V42.322H12.4959V29.1747H26.0699V17.3464H12.6499V11.7401H28.3359L28.1599 0.351562H0.0439453Z" fill="#94A8B6"/>
<path d="M68.178 0.131836L81.004 20.1607L67.276 42.3222H82.148L88.286 33.0223L94.49 42.3222H109.67L95.568 20.3146L108.614 0.131836H93.412L88.616 9.07997L83.138 0.131836H68.178Z" fill="#94A8B6"/>
<path d="M51.216 0C38.368 0 27.962 9.51975 27.962 21.282C27.962 33.0443 38.368 42.5641 51.216 42.5641C64.064 42.5641 74.492 33.0443 74.492 21.282C74.47 9.51975 64.064 0 51.216 0ZM55.242 11.7623C55.242 11.7623 55.242 27.6139 55.242 29.6366C55.242 31.6812 55 33.3301 51.194 33.3301C47.41 33.3301 47.41 31.2195 47.41 31.2195V11.7623C47.41 11.7623 47.234 8.75026 51.37 8.75026C55.506 8.75026 55.242 11.7623 55.242 11.7623Z" fill="#94A8B6"/>
<path d="M125.686 47.5767L111.716 0.131836H125.092L131.384 47.5767H125.686Z" fill="#94A8B6"/>
<path d="M99.2198 20.0288L116.446 47.5767H123.662L108.548 5.93604L99.2198 20.0288Z" fill="#94A8B6"/>
<path d="M112.794 47.5987H0V44.9165H111.1L112.794 47.5987Z" fill="#94A8B6"/>
<path d="M36.6301 59.6468C36.6301 60.834 36.2561 61.8454 35.5081 62.7028C34.7601 63.5603 33.8141 63.978 32.6481 63.978H23.3641C22.1761 63.978 21.2301 63.5603 20.4821 62.7028C19.7341 61.8234 19.3821 60.8121 19.3821 59.6468V49.9292H22.6601V59.6468C22.6601 60.3504 22.8801 60.7021 23.3641 60.7021H32.6261C33.0881 60.7021 33.3081 60.3504 33.3081 59.6468V49.9292H36.6081V59.6468" fill="#94A8B6"/>
<path d="M55.506 59.6688C55.506 60.834 55.154 61.8454 54.45 62.6808C53.68 63.5603 52.712 63.978 51.546 63.978H39.4241V60.7021H51.546C52.008 60.7021 52.228 60.3504 52.228 59.6688C52.228 58.9653 52.008 58.6135 51.546 58.6135H42.7241C41.5581 58.6135 40.5901 58.1738 39.8421 57.3163C39.1161 56.4809 38.7421 55.4915 38.7421 54.3043C38.7421 53.1171 39.1161 52.1058 39.8641 51.2483C40.6121 50.3909 41.5581 49.9512 42.7241 49.9512H54.846V53.249H42.7241C42.2621 53.249 42.0421 53.6008 42.0421 54.3043C42.0421 55.0079 42.2621 55.3596 42.7241 55.3596H51.546C52.712 55.3596 53.68 55.7993 54.45 56.6568C55.132 57.4702 55.506 58.4816 55.506 59.6688Z" fill="#94A8B6"/>
<path d="M60.5 49.9292H57.222V64H60.5V49.9292Z" fill="#94A8B6"/>
<path d="M77.5719 64H74.2939L65.868 54.5242V64H62.59V49.9292H65.868L74.2939 59.339V49.9292H77.5719V64Z" fill="#94A8B6"/>
<path d="M94.666 53.227H82.962V55.3376H93.896V58.6135H82.962V60.7021H94.622V64H79.662V49.9292H94.666V53.227Z" fill="#94A8B6"/>
<path d="M113.498 59.6688C113.498 60.834 113.146 61.8454 112.442 62.6808C111.672 63.5603 110.726 63.978 109.538 63.978H97.4379V60.7021H109.538C110 60.7021 110.22 60.3504 110.22 59.6688C110.22 58.9653 110 58.6135 109.538 58.6135H100.738C99.5719 58.6135 98.6039 58.1738 97.8339 57.3163C97.1079 56.4809 96.7339 55.4915 96.7339 54.3043C96.7339 53.1171 97.1079 52.1058 97.8559 51.2483C98.6039 50.3909 99.5499 49.9512 100.716 49.9512H112.816V53.249H100.716C100.254 53.249 100.034 53.6008 100.034 54.3043C100.034 55.0079 100.254 55.3596 100.716 55.3596H109.538C110.704 55.3596 111.672 55.7993 112.442 56.6568C113.146 57.4702 113.498 58.4816 113.498 59.6688Z" fill="#94A8B6"/>
<path d="M132 59.6688C132 60.834 131.648 61.8454 130.944 62.6808C130.174 63.5603 129.206 63.978 128.062 63.978H115.918V60.7021H128.04C128.502 60.7021 128.722 60.3504 128.722 59.6688C128.722 58.9653 128.502 58.6135 128.04 58.6135H119.218C118.052 58.6135 117.106 58.1738 116.314 57.3163C115.588 56.4809 115.236 55.4915 115.236 54.3043C115.236 53.1171 115.61 52.1058 116.358 51.2483C117.106 50.3909 118.052 49.9512 119.218 49.9512H131.34V53.249H119.218C118.756 53.249 118.536 53.6008 118.536 54.3043C118.536 55.0079 118.756 55.3596 119.218 55.3596H128.04C129.184 55.3596 130.152 55.7993 130.922 56.6568C131.648 57.4702 132 58.4816 132 59.6688Z" fill="#94A8B6"/>
<path d="M15.9281 56.8766C17.0721 57.5802 17.6441 58.6795 17.6441 60.1305C17.6441 61.1858 17.3141 62.0652 16.6321 62.7908C15.9061 63.6042 14.9381 64 13.6841 64H0.0661621V49.9292H13.4421C14.6741 49.9292 15.6641 50.3469 16.3901 51.1384C17.0501 51.8639 17.3801 52.7653 17.3801 53.8206C17.3801 55.1178 16.8961 56.1511 15.9281 56.8766ZM13.4421 55.3596C13.9041 55.3596 14.1461 55.0079 14.1461 54.2823C14.1461 53.5788 13.9261 53.227 13.4421 53.227H3.36616V55.3596H13.4421ZM13.6841 60.7021C14.1681 60.7021 14.4101 60.3504 14.4101 59.6688C14.4101 58.9653 14.1681 58.6135 13.6841 58.6135H3.34416V60.7241H13.6841V60.7021Z" fill="#94A8B6"/>
</svg>
