<svg width="542" height="93" viewBox="0 0 542 93" fill="none" xmlns="http://www.w3.org/2000/svg">
<path d="M21.44 0.337891C24.0512 0.351369 26.6488 0.351369 29.26 0.351369C29.26 4.27354 29.26 8.20919 29.26 12.1314C31.64 12.1179 34.02 12.1179 36.4 12.1179C36.4 8.19572 36.4 4.27354 36.4 0.337891C38.8888 0.351369 41.3912 0.351369 43.88 0.337891C43.88 4.3005 43.88 8.27659 43.8936 12.2392C48.708 12.8457 53.5632 14.3688 57.1672 17.7248C65.2048 24.5853 65.64 38.2657 57.8472 45.4766C65.8304 51.0296 68.36 62.3514 63.5728 70.7483C59.86 77.9188 51.6456 81.194 43.9208 81.6792C43.88 85.4531 43.8664 89.227 43.88 93.0009H36.4C36.4 89.1866 36.4 85.3588 36.3864 81.5444C34.0064 81.5444 31.64 81.5579 29.26 81.5579C29.26 85.3722 29.26 89.1866 29.26 93.0009H21.44C21.44 89.1866 21.44 85.3722 21.4264 81.5579C14.4088 81.5444 7.4048 81.5444 0.387203 81.5579C0.346403 76.4901 0.346403 71.4357 0.373603 66.3814C5.0112 66.3948 9.6488 66.3814 14.2864 66.3679C14.3136 53.3479 14.3136 40.3144 14.2864 27.2944C9.6488 27.2944 5.0112 27.2944 0.373603 27.2944C0.360003 22.2401 0.346403 17.1857 0.360003 12.1314C7.3912 12.1179 14.4224 12.1583 21.4536 12.1044C21.44 8.18224 21.44 4.26006 21.44 0.337891ZM30.2936 27.2944C30.28 31.2166 30.2664 35.1522 30.28 39.0879C34.7544 38.9531 39.256 39.4248 43.6896 38.8183C48.64 37.0257 48.4224 29.0601 43.3088 27.6179C39.0248 26.8766 34.632 27.4696 30.2936 27.2944ZM30.2936 53.577C30.28 57.8496 30.28 62.1088 30.2936 66.3814C35.244 66.2735 40.208 66.6375 45.1584 66.2061C51.224 64.8179 51.2104 54.9518 45.0768 53.6714C40.1536 53.3883 35.2168 53.6579 30.2936 53.577Z" fill="#3147AF"/>
<path d="M452.873 3.58696C455.661 0.756524 460.611 0.621741 463.535 3.34435C466.935 6.51174 470.118 9.89478 473.45 13.1296C469.723 16.863 465.983 20.583 462.202 24.2491C460.91 22.9687 459.618 21.6883 458.34 20.3944C449.514 29.2765 440.334 37.8217 431.861 47.0274C440.674 55.7883 449.5 64.5491 458.354 73.2696C467.098 64.4683 476.17 55.9635 484.67 46.9196C483.405 45.5987 482.14 44.2778 480.862 42.9839C484.574 39.1696 488.342 35.3957 492.231 31.743C495.658 34.9778 498.841 38.4687 502.078 41.9057C505.07 44.8978 504.294 50.1544 501.234 52.8365C488.926 65.4117 476.278 77.65 463.821 90.077C460.815 93.15 455.307 93.0556 452.506 89.7535C440.048 77.34 427.454 65.0748 415.106 52.567C411.774 49.413 411.991 43.7252 415.446 40.733C427.862 28.2926 440.388 15.96 452.873 3.58696Z" fill="#3147AF"/>
<path d="M490.722 3.49147C493.795 0.310603 499.371 0.849733 502.159 4.16539C514.984 17.0506 528.19 29.5854 540.634 42.848C542.497 45.948 541.871 50.3284 539.029 52.6602C527.115 65.141 514.576 77.0019 502.431 89.2536C499.766 92.5289 494.434 93.4858 491.157 90.5745C487.648 87.3397 484.384 83.8623 480.97 80.5332C484.697 76.8267 488.437 73.1202 492.177 69.4271C493.482 70.7076 494.788 71.988 496.107 73.2684C504.974 64.548 513.746 55.7332 522.423 46.8241C513.529 38.1171 505.07 28.9923 496.066 20.3932C487.172 29.208 478.278 38.0093 469.397 46.8241C470.743 48.1719 472.09 49.5197 473.45 50.8676C469.75 54.5876 466.024 58.2671 462.27 61.9467C457.918 56.6362 448.997 52.5523 450.724 44.5058C452.166 40.9206 455.484 38.5754 458.068 35.8258C468.962 25.0567 479.801 14.2336 490.722 3.49147Z" fill="#3147AF"/>
<path d="M71.7736 81.5447C71.7464 57.3917 71.7328 33.2521 71.7872 9.09907C76.8736 9.09907 81.96 9.08559 87.06 9.11255C87.06 33.2521 87.0464 57.3917 87.06 81.5312C81.9736 81.5582 76.8736 81.5447 71.7736 81.5447Z" fill="#3147AF"/>
<path d="M304.211 10.2845C310.862 7.64275 318.328 14.8806 315.798 21.5254C314.275 27.7523 305.462 30.1245 300.974 25.5149C295.97 21.2828 297.846 12.1175 304.211 10.2845Z" fill="#3147AF"/>
<path d="M322.694 9.09961C327.78 9.09961 332.88 9.09961 337.966 9.11309C337.994 33.2527 337.98 57.3922 337.98 81.5318C332.88 81.5587 327.78 81.5453 322.68 81.5453C322.68 57.3922 322.666 33.2527 322.694 9.09961Z" fill="#3147AF"/>
<path d="M346.14 9.11127C351.118 9.08431 356.109 9.09779 361.086 9.11127C361.114 33.2508 361.1 57.3904 361.086 81.53C356.122 81.5569 351.158 81.53 346.194 81.5704C346.072 57.4174 346.167 33.2643 346.14 9.11127Z" fill="#3147AF"/>
<path d="M200.28 12.1309C205.38 12.1309 210.48 12.1309 215.58 12.1443C215.553 25.6765 215.621 39.2087 215.539 52.7409C220.422 45.8939 225.005 38.8178 229.942 31.9978C235.844 32.0248 241.746 31.9978 247.649 32.0113C241.706 40.2869 235.654 48.4683 229.683 56.7035C235.83 64.9926 242.195 73.1065 248.152 81.5304C242.508 81.6113 236.864 81.4361 231.22 81.6517C225.78 74.7509 220.843 67.4726 215.607 60.4235C215.539 67.4591 215.594 74.4948 215.566 81.5304C210.48 81.5574 205.38 81.5439 200.28 81.5439C200.28 58.4017 200.28 35.273 200.28 12.1309Z" fill="#3147AF"/>
<path d="M251.266 12.1579C265.329 12.104 279.378 12.1444 293.44 12.131C293.44 17.2931 293.44 22.4553 293.44 27.6175C284.75 27.6175 276.059 27.6983 267.369 27.5636C267.178 31.9575 267.26 36.3649 267.26 40.7588C275.869 40.7992 284.478 40.7588 293.086 40.7723C293.1 45.9344 293.1 51.1101 293.086 56.2723C284.478 56.2723 275.869 56.2588 267.26 56.2857C267.246 64.6962 267.274 73.1201 267.246 81.5305C261.929 81.5575 256.611 81.544 251.294 81.544C251.253 58.4153 251.294 35.2866 251.266 12.1579Z" fill="#3147AF"/>
<path d="M110.969 31.6475C117.334 29.8953 124.446 30.1918 130.444 33.0762C139.039 36.9444 144.833 45.9344 145.2 55.221C145.785 64.777 140.807 74.6836 132.253 79.347C124.12 84.1049 113.458 84.0644 105.338 79.3066C96.0632 74.1444 91.0448 62.9036 92.772 52.6062C94.064 42.8883 101.449 34.3296 110.969 31.6475ZM113.77 46.3792C105.352 50.234 105.787 64.3053 114.641 67.3649C121.849 70.4783 130.784 64.4401 129.968 56.5688C130.621 48.4683 120.883 42.4436 113.77 46.3792Z" fill="#3147AF"/>
<path d="M154.366 39.52C165.233 26.1631 189.087 28.0904 197.41 43.267C193.004 45.8952 188.57 48.4831 184.096 51.0035C181.199 45.7065 173.978 43.8061 168.796 46.9465C161.765 50.8418 161.71 62.3252 168.633 66.3418C173.787 69.7248 181.172 67.6357 184.218 62.4196C188.611 64.9131 192.99 67.447 197.397 69.9404C189.808 84.0117 168.823 87.1522 157.046 76.5583C146.438 67.5144 145.35 50.0061 154.366 39.52Z" fill="#3147AF"/>
<path d="M374.442 33.8182C384.846 27.5104 400.445 30.3004 406.674 41.1638C402.458 43.6843 398.065 45.8812 393.754 48.2264C391.727 44.4525 386.083 41.7973 382.86 45.7869C383.458 48.8195 386.804 49.0891 389.238 49.8978C395.1 51.4343 401.71 53.0786 405.286 58.4025C409.584 65.5595 407.354 76.3151 399.466 80.0621C387.974 85.696 370.96 83.4047 365.003 70.9508C369.355 68.4438 373.734 65.9638 378.1 63.4569C379.977 68.1608 385.648 70.9104 390.408 68.5786C392.244 68.0395 392.122 65.4247 390.503 64.7777C384.37 61.7586 376.808 61.5834 371.586 56.7582C364.84 50.5851 366.717 38.4143 374.442 33.8182Z" fill="#3147AF"/>
<path d="M299.574 32.0117C304.66 32.0117 309.76 32.0117 314.846 32.0252C314.874 48.5226 314.86 65.0335 314.846 81.5308C309.76 81.5578 304.66 81.5443 299.56 81.5443C299.56 65.0335 299.546 48.5226 299.574 32.0117Z" fill="#3147AF"/>
</svg>
