<?xml version="1.0" encoding="UTF-8"?><svg id="a" xmlns="http://www.w3.org/2000/svg" viewBox="0 0 690.77 104.42"><defs><style>.b{fill:#41b6e6;}.c{fill:#141f2b;}</style></defs><polygon class="c" points="141.97 0 82.46 80.83 22.5 0 0 0 0 104.42 22.35 104.42 22.35 38.71 71.5 104.42 91.34 104.42 140.19 38.56 140.19 104.42 162.54 104.42 162.54 0 141.97 0"/><polygon class="c" points="180.91 0 180.91 104.42 290.76 104.42 290.76 85.43 205.04 85.43 205.04 58.74 286.17 58.74 286.17 39.75 205.04 39.75 205.04 18.84 290.76 18.84 290.76 0 180.91 0"/><polygon class="c" points="300.23 0 300.23 18.84 353.97 18.84 353.97 104.42 378.25 104.42 378.25 18.84 430.8 18.84 430.8 0 300.23 0"/><polygon class="c" points="474.78 0 405.35 104.42 432.29 104.42 483.81 24.92 534.29 104.42 561.53 104.42 492.54 0 474.78 0"/><polygon class="b" points="656.58 0 656.58 69.41 591.74 69.41 645.62 0 619.42 0 563.02 72.97 563.02 88.25 656.58 88.25 656.58 104.42 680.86 104.42 680.86 88.25 690.77 88.25 690.77 69.41 680.86 69.41 680.86 0 656.58 0"/></svg>