<svg width="70" height="29" viewBox="0 0 70 29" fill="none" xmlns="http://www.w3.org/2000/svg">
<path d="M13.4973 6.22917C11.8002 6.22917 10.4312 7.25595 9.54701 7.25595C8.62005 7.25595 7.37935 6.28621 5.91048 6.28621C3.11534 6.28621 0.277416 8.61074 0.277416 12.9603C0.277416 15.6842 1.33272 18.5506 2.63047 20.4188C3.72856 21.9732 4.71256 23.2567 6.11013 23.2567C7.49344 23.2567 8.10666 22.344 9.83223 22.344C11.5721 22.344 11.9714 23.2282 13.4973 23.2282C15.0232 23.2282 16.0357 21.8449 16.9912 20.4758C18.0465 18.8929 18.5029 17.3527 18.5171 17.2814C18.4316 17.2529 15.5223 16.0692 15.5223 12.7321C15.5223 9.85144 17.8041 8.56796 17.9324 8.46813C16.435 6.28621 14.139 6.22917 13.4973 6.22917ZM12.7129 4.38951C13.3975 3.54811 13.8823 2.40724 13.8823 1.25211C13.8823 1.09524 13.8681 0.938367 13.8395 0.810019C12.7272 0.852802 11.3581 1.55159 10.5453 2.50707C9.91779 3.23437 9.31883 4.38951 9.31883 5.54464C9.31883 5.71577 9.34736 5.90117 9.36162 5.95821C9.43292 5.97247 9.54701 5.98673 9.6611 5.98673C10.6736 5.98673 11.9571 5.30221 12.7129 4.38951ZM24.1229 2.4215V23H27.8022V16.2546H32.2658C36.43 16.2546 39.3392 13.4594 39.3392 9.38083C39.3392 5.2309 36.5298 2.4215 32.4227 2.4215H24.1229ZM27.8022 5.50186H31.453C34.1055 5.50186 35.6029 6.85665 35.6029 9.38083C35.6029 11.8337 34.0627 13.2028 31.4387 13.2028H27.8022V5.50186ZM46.2427 20.4758C44.674 20.4758 43.5474 19.6915 43.5474 18.3795C43.5474 17.1102 44.4744 16.3972 46.4566 16.2688L49.9791 16.0407V17.2814C49.9791 19.0925 48.3819 20.4758 46.2427 20.4758ZM45.2017 23.2567C47.241 23.2567 48.9523 22.3725 49.8222 20.8609H50.0646V23H53.473V12.3471C53.473 9.03857 51.2198 7.08482 47.2125 7.08482C43.5046 7.08482 40.9234 8.83891 40.6382 11.5913H43.9752C44.3032 10.536 45.4156 9.96553 47.0413 9.96553C48.9523 9.96553 49.9791 10.8212 49.9791 12.3471V13.6591L45.9575 13.9015C42.1641 14.1297 40.0392 15.7555 40.0392 18.5791C40.0392 21.4313 42.1926 23.2567 45.2017 23.2567ZM57.4102 28.6616C60.9041 28.6616 62.5727 27.3781 63.8989 23.4991L69.532 7.39856H65.7956L62.1591 19.5774H61.9167L58.2659 7.39856H54.3869L59.9629 23.0713L59.7775 23.7558C59.3212 25.1962 58.4798 25.7666 56.9824 25.7666C56.7399 25.7666 56.2123 25.7524 56.0126 25.7096V28.6045C56.2408 28.6473 57.1963 28.6616 57.4102 28.6616Z" fill="black"/>
</svg>
