<svg width="221" height="155" viewBox="0 0 221 155" fill="none" xmlns="http://www.w3.org/2000/svg">
<path d="M0.933594 123.535V98.4961H3.81641L13.9453 113.824L24.1172 98.4961H26.9531V123.535H23.8867V103.984L13.9453 118.797L4 103.984V123.535H0.933594ZM47.8398 113.871H58.8672L53.3281 102.785L47.8398 113.871ZM39.7656 123.535L52.0352 98.4961H54.6211L67.0352 123.535H63.6523L60.25 116.801H46.4141L43.1016 123.535H39.7656ZM87.6992 123.535H85.7461L73.6758 98.4961H77.0586L86.7227 118.562L96.3867 98.4961H99.832L87.6992 123.535ZM112.504 123.535V98.4961H132.203V101.375H115.617V108.715H125.652V111.594H115.617V120.656H133.223V123.535H112.504ZM147.105 123.535V98.4961H148.738L164.992 117.211V98.4961H168.105V123.535H166.516L150.219 104.82V123.535H147.105ZM187.43 99.2734V95.875H195.281V123.535H191.395V99.2734H187.43ZM212.516 99.2734V95.875H220.363V123.535H216.477V99.2734H212.516Z" fill="#6D6D6D"/>
<path d="M43.5078 151.305L44.4102 151.969C43.9961 152.75 43.4297 153.355 42.7148 153.773C41.9961 154.195 41.1836 154.406 40.2695 154.406C38.9219 154.406 37.8086 153.961 36.9297 153.074C36.0547 152.187 35.6133 151.063 35.6133 149.695C35.6133 148.328 36.0547 147.199 36.9336 146.309C37.8164 145.422 38.9258 144.977 40.2656 144.977C41.0977 144.977 41.8555 145.16 42.5391 145.523C43.2227 145.887 43.7812 146.406 44.2109 147.082L43.2734 147.75C42.9922 147.211 42.582 146.789 42.0508 146.484C41.5195 146.184 40.9258 146.031 40.2695 146.031C39.2578 146.031 38.4219 146.379 37.7578 147.07C37.0977 147.762 36.7656 148.637 36.7656 149.695C36.7656 150.754 37.0977 151.629 37.7578 152.32C38.4219 153.012 39.2578 153.355 40.2695 153.355C40.9727 153.355 41.6016 153.18 42.1484 152.832C42.6953 152.484 43.1484 151.977 43.5078 151.305ZM63.457 150.703H67.418L65.4297 146.719L63.457 150.703ZM60.5547 154.172L64.9648 145.18H65.8945L70.3516 154.172H69.1367L67.9141 151.754H62.9453L61.7539 154.172H60.5547ZM88.2812 149.184H92.2539C92.8164 149.184 93.2461 149.059 93.5352 148.809C93.8281 148.559 93.9727 148.191 93.9727 147.711C93.9727 147.238 93.8281 146.871 93.5352 146.609C93.2461 146.344 92.8359 146.215 92.3086 146.215H88.2812V149.184ZM87.1641 154.172V145.18H92.3242C93.1992 145.18 93.8867 145.395 94.3867 145.828C94.8906 146.262 95.1406 146.859 95.1406 147.613C95.1406 148.395 94.8984 149.027 94.4102 149.508C93.9258 149.992 93.2813 150.234 92.4727 150.234H88.2812V154.172H87.1641ZM112.504 154.172V145.129H113.641V154.172H112.504ZM133.41 154.172V146.215H129.621V145.18H138.316V146.215H134.527V154.172H133.41ZM154.93 150.703H158.891L156.902 146.719L154.93 150.703ZM152.031 154.172L156.438 145.18H157.367L161.828 154.172H160.609L159.391 151.754H154.418L153.23 154.172H152.031ZM178.688 154.172V145.18H179.805V153.137H185.68V154.172H178.688Z" fill="#6D6D6D"/>
<path d="M136.84 35.4844C136.84 37.2227 136.84 56.7383 136.762 57.9961C136.602 63.1172 136.437 63.4062 131.215 63.4062H127.52C126.875 63.4062 126.395 63.5039 126.395 63.9883V66.4023C126.395 66.9805 126.637 67.1758 127.039 67.1758C127.437 67.1758 138.77 66.8867 139.492 66.8867C140.215 66.8867 151.145 67.1758 151.867 67.1758C152.43 67.1758 152.59 66.9805 152.59 66.4023V64.1797C152.59 63.6953 152.348 63.4062 151.789 63.4062H148.895C143.672 63.4062 143.348 62.7305 143.27 57.707C143.27 56.4492 143.187 35.9648 143.187 34.8086V30.75C143.187 18.2852 143.43 3.11328 143.43 2.24609C143.43 1.47266 143.348 0.894531 142.867 0.894531C142.465 0.894531 142.145 1.18359 141.742 1.47266L125.109 12.9688C124.547 13.3555 124.465 13.7422 124.629 14.1289L125.27 15.8672C125.43 16.2539 125.754 16.2539 126.074 16.1602L131.699 13.9375C132.984 13.4531 134.191 13.1641 134.914 13.1641C136.437 13.1641 136.762 15.2891 136.84 18.5742C136.922 26.207 136.84 30.75 136.84 32.0039V35.4844Z" fill="#D1A963"/>
<path d="M84.457 35.4844C84.457 37.2227 84.457 56.7383 84.5391 57.9961C84.6992 63.1172 84.8594 63.4062 90.082 63.4062H93.7812C94.4219 63.4062 94.9062 63.5039 94.9062 63.9883V66.4023C94.9062 66.9805 94.6641 67.1758 94.2617 67.1758C93.8594 67.1758 82.5312 66.8867 81.8047 66.8867C81.082 66.8867 70.1562 67.1758 69.4336 67.1758C68.8711 67.1758 68.707 66.9805 68.707 66.4023V64.1797C68.707 63.6953 68.9492 63.4062 69.5117 63.4062H72.4062C77.6289 63.4062 77.9492 62.7305 78.0312 57.707C78.0312 56.4492 78.1094 35.9648 78.1094 34.8086V30.75C78.1094 18.2852 77.8672 3.11328 77.8672 2.24609C77.8672 1.47266 77.9492 0.894531 78.4336 0.894531C78.832 0.894531 79.1562 1.18359 79.5547 1.47266L96.1914 12.9688C96.7539 13.3555 96.832 13.7422 96.6719 14.1289L96.0312 15.8672C95.8672 16.2539 95.5469 16.2539 95.2266 16.1602L89.6016 13.9375C88.3164 13.4531 87.1094 13.1641 86.3867 13.1641C84.8594 13.1641 84.5391 15.2891 84.457 18.5742C84.3789 26.207 84.457 30.75 84.457 32.0039V35.4844Z" fill="#D1A963"/>
</svg>
