<svg width="80" height="32" viewBox="0 0 80 32" fill="none" xmlns="http://www.w3.org/2000/svg">
<path d="M37.3392 15.1613V24.3533H34.4023V1.6543H42.1882C44.1614 1.6543 45.844 2.30762 47.2206 3.61425C48.6279 4.92089 49.3315 6.5162 49.3315 8.40019C49.3315 10.3298 48.6279 11.9251 47.2206 13.2165C45.8593 14.5079 44.1767 15.1461 42.1882 15.1461H37.3392V15.1613ZM37.3392 4.44989V12.3657H42.2493C43.4119 12.3657 44.3908 11.9706 45.1556 11.1958C45.9357 10.4209 46.3334 9.47892 46.3334 8.41538C46.3334 7.36703 45.9357 6.44023 45.1556 5.66537C44.3908 4.86012 43.4272 4.46508 42.2493 4.46508H37.3392V4.44989Z" fill="black"/>
<path d="M57.0097 8.30859C59.1817 8.30859 60.8949 8.88594 62.1492 10.0406C63.4035 11.1953 64.0307 12.7755 64.0307 14.781V24.3529H61.2314V22.1954H61.1091C59.9007 23.973 58.2793 24.8542 56.2601 24.8542C54.5317 24.8542 53.0938 24.3529 51.9313 23.3349C50.7688 22.3169 50.1875 21.0559 50.1875 19.5365C50.1875 17.926 50.7994 16.6498 52.0231 15.7078C53.2468 14.7506 54.8835 14.2796 56.9179 14.2796C58.6617 14.2796 60.0995 14.5987 61.2161 15.2368V14.5683C61.2161 13.5503 60.8184 12.6995 60.0077 11.9854C59.197 11.2713 58.2487 10.9219 57.1626 10.9219C55.5259 10.9219 54.2257 11.6056 53.2774 12.9882L50.6923 11.3777C52.1148 9.32655 54.2257 8.30859 57.0097 8.30859ZM53.2162 19.5821C53.2162 20.3418 53.5374 20.9799 54.1951 21.4813C54.8376 21.9827 55.6024 22.241 56.4743 22.241C57.7133 22.241 58.8146 21.7852 59.7783 20.8736C60.742 19.962 61.2314 18.8984 61.2314 17.6678C60.3137 16.9537 59.0441 16.589 57.4074 16.589C56.2142 16.589 55.22 16.8777 54.4246 17.4399C53.6139 18.0324 53.2162 18.7465 53.2162 19.5821Z" fill="black"/>
<path d="M80 8.80859L70.2104 31.1733H67.1817L70.8222 23.3487L64.3672 8.80859H67.5641L72.2142 19.9606H72.2754L76.8031 8.80859H80Z" fill="black"/>
<path d="M25.6568 13.3086C25.6568 12.3575 25.5711 11.4474 25.412 10.5723H13.1016V15.5861L20.1914 15.5876C19.9038 17.2559 18.9784 18.678 17.5604 19.626V22.8789H21.7807C24.2449 20.6136 25.6568 17.265 25.6568 13.3086Z" fill="#4285F4"/>
<path d="M17.5608 19.627C16.386 20.414 14.8732 20.8744 13.1034 20.8744C9.6847 20.8744 6.78452 18.5862 5.7459 15.502H1.39258V18.8567C3.54936 23.1078 7.98222 26.0249 13.1034 26.0249C16.643 26.0249 19.6166 24.8687 21.781 22.8784L17.5608 19.627Z" fill="#34A853"/>
<path d="M5.33687 13.0129C5.33687 12.1469 5.48219 11.3097 5.74681 10.5227V7.16797H1.39349C0.501716 8.92585 0 10.9101 0 13.0129C0 15.1157 0.503246 17.0999 1.39349 18.8578L5.74681 15.5031C5.48219 14.7161 5.33687 13.8789 5.33687 13.0129Z" fill="#FABB05"/>
<path d="M13.1034 5.15057C15.0353 5.15057 16.7654 5.81149 18.1313 7.10293L21.8713 3.39118C19.5998 1.28992 16.6384 0 13.1034 0C7.98375 0 3.54936 2.91714 1.39258 7.16826L5.7459 10.523C6.78452 7.43871 9.6847 5.15057 13.1034 5.15057Z" fill="#E94235"/>
</svg>
