<svg width="105" height="32" viewBox="0 0 105 32" fill="none" xmlns="http://www.w3.org/2000/svg">
<path d="M12.5393 15.7537L12.2641 15.4721C12.0529 15.2609 11.6944 15.4081 11.6944 15.7089V19.6953C11.6944 19.8808 11.848 20.028 12.0273 20.028H16.015C16.3094 20.028 16.4631 19.6697 16.2518 19.4585C16.1238 19.3305 16.1238 19.1194 16.2518 18.985L20.4892 14.7363C20.6172 14.6083 20.6172 14.3971 20.4892 14.2627L20.1052 13.8788C19.8939 13.6677 20.0475 13.3093 20.342 13.3093H24.3233C24.509 13.3093 24.6562 13.4565 24.6562 13.6421V17.6285C24.6562 17.9228 24.2977 18.0764 24.0865 17.8652L23.8177 17.5965C23.6832 17.4621 23.4784 17.4621 23.344 17.5965L16.1942 24.7375C16.0662 24.8654 15.855 24.8654 15.7206 24.7375L6.97696 15.9904C6.84894 15.8624 6.84254 15.6513 6.97696 15.5169L19.081 3.41692C19.209 3.28894 19.209 3.07139 19.081 2.94341L16.2326 0.0959808C16.1046 -0.0319936 15.8934 -0.0319936 15.759 0.0959808L0.0960132 15.7664C-0.0320044 15.8944 -0.0320044 16.112 0.0960132 16.24L15.7654 31.904C15.8934 32.032 16.111 32.032 16.239 31.904L31.9084 16.24C32.0364 16.112 32.0364 15.9008 31.9084 15.7664L22.6911 6.55229C22.5631 6.42432 22.3519 6.42432 22.2174 6.55229L13.013 15.7537C12.885 15.8816 12.6737 15.8816 12.5393 15.7537ZM84.8692 19.7145C84.466 19.7145 84.1139 19.8616 83.8259 20.1496C83.5379 20.4439 83.3906 20.783 83.3906 21.1798C83.3906 21.7876 83.6979 22.2611 84.3124 22.5939C84.9845 22.7794 85.5221 22.6579 85.9254 22.242C86.2198 21.9476 86.3606 21.5957 86.3606 21.1862C86.3606 20.7702 86.2134 20.4247 85.9254 20.1432C85.6309 19.8616 85.2853 19.7145 84.8692 19.7145ZM61.058 8.45271H59.9506C59.4706 8.45271 59.0865 8.83663 59.0865 9.31654V9.93081C57.9087 8.70866 56.5838 8.10078 55.0924 8.10078C53.3769 8.10078 51.9431 8.74065 50.8038 10.014C49.658 11.2873 49.0883 12.8806 49.0883 14.7874C49.0883 16.7327 49.658 18.3515 50.7974 19.6569C51.9495 20.9302 53.4089 21.5701 55.1692 21.5701C56.5646 21.5701 57.8703 21.0006 59.0801 19.868V21.0838C59.0801 21.6725 59.5602 22.1588 60.1491 22.1588H62.0373V9.44451C62.0437 8.90062 61.602 8.45271 61.058 8.45271ZM58.2672 17.8076C57.5951 18.5563 56.7118 18.9338 55.6236 18.9338C54.5995 18.9338 53.7546 18.5435 53.0825 17.7692C52.4296 17.0014 52.0967 16.0032 52.0967 14.7874C52.0967 13.6485 52.436 12.6823 53.1081 11.908C53.7866 11.1402 54.6379 10.7562 55.6492 10.7562C56.7246 10.7562 57.5951 11.1338 58.2672 11.8952C58.9393 12.6695 59.2785 13.6549 59.2785 14.8514C59.2721 16.048 58.9329 17.0334 58.2672 17.8076ZM49.0883 10.6027V9.34213C49.0883 8.84943 48.6915 8.45271 48.1986 8.45271H47.0337C46.5408 8.45271 46.1439 8.84943 46.1439 9.34213V9.89242C45.0814 8.69586 43.7436 8.09438 42.137 8.09438C40.3063 8.09438 38.8277 8.78544 37.714 10.1612C36.677 11.4601 36.1586 13.0406 36.1586 14.8962C36.1586 16.8094 36.7154 18.4027 37.8356 19.6697C38.9429 20.9302 40.3639 21.5509 42.105 21.5509C43.6284 21.5509 44.979 20.9558 46.1503 19.7592V21.5381C46.1503 24.1808 45.075 25.5053 42.9179 25.5053C41.7465 25.5053 40.8568 25.1086 40.2487 24.3151C40.0951 24.1168 39.9607 23.8608 39.8583 23.5601C39.711 23.1378 39.3142 22.8626 38.8725 22.8626H37.7588C37.1955 22.8626 36.7794 23.4001 36.9203 23.944C37.2275 25.1022 37.8164 26.0428 38.6933 26.7722C39.7943 27.6873 41.1961 28.148 42.8923 28.148C44.9086 28.148 46.4896 27.4825 47.6417 26.158C48.2498 25.4669 48.6595 24.6415 48.8707 23.6817C48.9411 23.3361 48.9987 22.9266 49.0371 22.4723C49.0755 22.018 49.0947 21.4869 49.0947 20.8854V19.0362C48.269 17.846 47.853 16.4319 47.853 14.7746C47.8466 13.1622 48.2626 11.7736 49.0883 10.6027ZM45.3566 17.7053C44.7037 18.5243 43.814 18.9338 42.6875 18.9338C41.5609 18.9338 40.6776 18.5307 40.0439 17.7181C39.4614 16.9758 39.167 16.0288 39.167 14.8642C39.167 13.6869 39.4614 12.7271 40.0439 11.9848C40.6904 11.1594 41.5737 10.7435 42.6875 10.7435C43.7372 10.7435 44.5949 11.121 45.267 11.8824C45.9327 12.6247 46.2655 13.6165 46.2655 14.8514C46.2591 16.0096 45.9583 16.963 45.3566 17.7053ZM73.5717 8.46551V8.45271H67.4653V4.71586C67.4653 4.23595 67.0748 3.84563 66.5947 3.84563H65.4042C64.9177 3.84563 64.5209 4.24235 64.5209 4.72865V8.45271H63.2663V11.1978H64.5209V22.146H66.1979C66.8956 22.146 67.4589 21.5829 67.4653 20.8854V20.879V11.2042H70.4865C70.7233 10.7499 71.0177 10.3275 71.357 9.94361C71.9779 9.25895 72.7204 8.76625 73.5717 8.46551ZM88.6009 3.84563C88.0761 3.84563 87.628 4.03119 87.2568 4.40872C86.8855 4.78624 86.6935 5.22775 86.6935 5.74605C86.6935 6.28994 86.8791 6.74425 87.2568 7.12178C87.6344 7.4993 88.0889 7.68486 88.6202 7.68486C89.1514 7.68486 89.5995 7.4993 89.9643 7.12178C90.342 6.74425 90.5276 6.29634 90.5276 5.75885C90.5276 5.22775 90.342 4.77984 89.9643 4.41512C89.5867 4.03119 89.1322 3.84563 88.6009 3.84563ZM89.1962 9.89882H88.1273C87.5768 9.89882 87.1351 10.3403 87.1351 10.8906V20.2392C87.3592 20.5015 87.468 20.815 87.468 21.1734C87.468 21.5317 87.3592 21.8516 87.1351 22.114V22.6387H89.0298C89.6123 22.6387 90.0796 22.1652 90.0796 21.5893V10.7754C90.0796 10.2891 89.6827 9.89882 89.1962 9.89882ZM103.041 11.7033C101.716 10.4043 100.097 9.75165 98.1959 9.75165C96.3012 9.75165 94.6946 10.3979 93.376 11.6905C92.0574 12.983 91.3981 14.5443 91.3981 16.3871C91.3981 18.3387 92.0446 19.964 93.3376 21.2565C94.6306 22.5619 96.2308 23.221 98.1383 23.221C100.065 23.221 101.697 22.5811 103.022 21.2949C104.334 20.0024 105 18.4027 105 16.4895C105 14.5955 104.347 13.0022 103.041 11.7033ZM100.955 19.4777C100.27 20.22 99.348 20.5847 98.1959 20.5847C97.0501 20.5847 96.1284 20.2136 95.4307 19.4585C94.7522 18.7163 94.4065 17.7053 94.4065 16.4383C94.4065 15.2545 94.7586 14.2819 95.4563 13.5333C96.154 12.7846 97.0629 12.4071 98.1895 12.4071C99.3288 12.4071 100.251 12.7846 100.948 13.5333C101.64 14.2755 101.985 15.2673 101.985 16.5023C101.992 17.7437 101.646 18.7291 100.955 19.4777Z" fill="#DE5959"/>
<path d="M74.6664 18.9595C74.0583 18.3452 73.7191 17.507 73.6422 16.464H82.085C82.4691 16.464 82.7891 16.1568 82.7955 15.7729C82.7955 13.6677 82.2514 12.0233 81.1761 10.8395C80.0815 9.64293 78.5965 9.04785 76.7211 9.04785C74.8648 9.04785 73.3734 9.66213 72.2469 10.8907C71.1267 12.1384 70.5698 13.7701 70.5698 15.7857C70.5698 17.8205 71.1459 19.4522 72.2981 20.6807C73.1046 21.5382 74.0903 22.0884 75.2553 22.3444C75.7481 22.4596 76.2538 22.5172 76.7659 22.5108C78.8654 22.5555 80.6896 22.6003 82.7827 22.6387V22.3316C82.5267 22.05 82.3986 21.7173 82.3986 21.327C82.3986 20.9431 82.5331 20.6167 82.7955 20.3352V19.9641C81.1377 19.9257 77.1307 19.8809 76.9707 19.8809C76.0426 19.8809 75.2681 19.5737 74.6664 18.9595ZM74.2567 13.0726C74.4424 12.7847 74.66 12.5416 74.916 12.3368C75.172 12.132 75.4601 11.9721 75.7737 11.8633C76.0874 11.7545 76.4266 11.6969 76.7851 11.6969C78.3533 11.6969 79.3454 12.484 79.7551 14.0517H73.8343C73.9367 13.6869 74.0775 13.3606 74.2567 13.0726Z" fill="#DE5959"/>
</svg>
