<svg width="130" height="24" viewBox="0 0 130 24" fill="none" xmlns="http://www.w3.org/2000/svg">
<path d="M116.201 19.4006H120.889C121.07 19.9918 121.688 20.5833 122.848 20.5833C124.418 20.5833 124.96 19.6064 124.96 18.1671V17.1397H124.856C124.084 18.0392 123.053 18.7073 121.533 18.7073C118.546 18.7073 115.944 16.4972 115.944 12.181C115.944 8.22403 118.082 5.14101 121.302 5.14101C123.156 5.14101 124.29 5.88601 125.037 7.06797H125.114V5.55234H129.75V17.5251C129.75 19.7348 128.978 21.4562 127.819 22.4844C126.608 23.563 124.882 24 122.925 24C119.241 24 116.665 22.4844 116.201 19.4006ZM125.165 11.9498C125.165 10.2281 124.341 8.84116 122.925 8.84116C121.559 8.84116 120.683 10.0741 120.683 11.9498C120.683 13.7999 121.559 15.1356 122.925 15.1356C124.341 15.1356 125.165 13.7743 125.165 11.9498ZM110.767 7.91625H110.844C111.848 5.98904 113.162 5.26966 114.836 5.26966C115.222 5.26966 115.481 5.32118 115.634 5.39806V9.63741H115.532C112.673 9.12383 110.999 10.4857 110.999 13.5943V19.3752H106.131V5.5526H110.767V7.91625ZM0 0.00238043H9.53042C11.3329 0.00238043 12.7238 0.439336 13.7034 1.23559C14.8102 2.13487 15.4032 3.4711 15.4032 5.06387C15.4032 6.91394 14.6563 8.07027 13.1105 8.78938V8.86678C15.1201 9.53438 16.2782 11.3327 16.2782 13.5169C16.2782 15.5982 15.48 17.2166 14.1661 18.1933C13.0591 18.9898 11.6171 19.3752 9.71103 19.3752H0V0.00238043ZM9.06695 15.0841C10.2259 15.0841 11.0752 14.3903 11.0752 13.1061C11.0752 11.7696 10.148 11.1277 9.04126 11.1277H5.28058V15.0841H9.06695ZM8.57753 7.58154C9.60749 7.58154 10.3543 7.01671 10.3543 5.88601C10.3543 4.78145 9.5818 4.24173 8.55184 4.24173H5.28058V7.58154H8.57753Z" fill="#14171A"/>
<path d="M17.158 0H22.1547V19.3728H17.158V0ZM23.1086 12.4866C23.1086 8.11889 25.9419 5.16426 30.3199 5.16426C34.699 5.16426 37.4808 8.11889 37.4808 12.4866C37.4808 16.8805 34.699 19.809 30.3199 19.809C25.9419 19.809 23.1086 16.8805 23.1086 12.4866ZM32.5355 12.4866C32.5355 10.0717 31.7622 8.55584 30.2685 8.55584C28.7751 8.55584 28.0539 10.0717 28.0539 12.4866C28.0539 14.9277 28.7751 16.4436 30.2685 16.4436C31.7622 16.4436 32.5355 14.9277 32.5355 12.4866ZM38.0494 12.4866C38.0494 8.11889 40.8826 5.16426 45.2606 5.16426C49.6397 5.16426 52.4215 8.11889 52.4215 12.4866C52.4215 16.8805 49.6397 19.809 45.2606 19.809C40.8826 19.809 38.0494 16.8805 38.0494 12.4866ZM47.4762 12.4866C47.4762 10.0717 46.7029 8.55584 45.2092 8.55584C43.7158 8.55584 42.9947 10.0717 42.9947 12.4866C42.9947 14.9277 43.7158 16.4436 45.2092 16.4436C46.7029 16.4436 47.4762 14.9277 47.4762 12.4866ZM53.3755 5.54996H58.012V7.63068H58.089C59.0162 6.01202 60.2779 5.13863 62.2618 5.13863C64.0129 5.13863 65.327 6.01202 65.9968 7.52791H66.0736C67.2071 5.70346 68.6751 5.13863 70.3748 5.13863C73.5947 5.13863 74.9856 7.50228 74.9856 10.6883V19.3726H70.1174V11.5617C70.1174 10.1483 69.6794 9.22344 68.4434 9.22344C67.2328 9.22344 66.6141 10.3541 66.6141 11.8447V19.3726H61.747V11.5617C61.747 10.1483 61.3089 9.22344 60.0729 9.22344C58.8613 9.22344 58.2439 10.3541 58.2439 11.8447V19.3726H53.3755V5.54996ZM80.9391 17.5743H80.888V19.3728H76.2515V0H81.1197V6.9887H81.1968C82.124 5.78138 83.36 5.13863 85.1378 5.13863C88.6151 5.13863 90.6236 8.27291 90.6236 12.4356C90.6236 17.1373 88.4345 19.8352 84.829 19.8352C83.3343 19.8352 81.7895 19.1158 80.9391 17.5743ZM85.6783 12.3844C85.6783 10.1486 84.8547 8.70986 83.3857 8.70986C81.8922 8.70986 80.9391 10.1486 80.9391 12.3844C80.9391 14.5935 81.8922 16.0584 83.3857 16.0584C84.8804 16.0584 85.6783 14.6191 85.6783 12.3844ZM91.2431 12.4356C91.2431 8.11889 94.102 5.11326 98.2493 5.11326C100.31 5.11326 101.907 5.75524 103.118 6.91156C104.715 8.45307 105.436 10.868 105.384 13.7204H96.0859C96.2922 15.442 97.1158 16.3152 98.5836 16.3152C99.4339 16.3152 100.181 15.93 100.491 15.0051H105.177C104.354 18.1647 101.907 19.758 98.4299 19.758C94.1287 19.758 91.2431 16.8552 91.2431 12.4356ZM96.0859 10.9969H100.516C100.438 9.32699 99.511 8.45307 98.3518 8.45307C97.0133 8.45307 96.2665 9.40361 96.0859 10.9969Z" fill="#14171A"/>
</svg>
