<svg width="48" height="48" viewBox="0 0 48 48" fill="none" xmlns="http://www.w3.org/2000/svg">
<rect width="48" height="48" rx="12" fill="#1E4DD8"/>
<path d="M34.8782 26.3308C34.6818 26.0597 30.0003 19.7012 24.0422 19.7012C18.0837 19.7012 13.3162 26.0597 13.1199 26.3308C12.9587 26.5523 12.9587 26.8505 13.1199 27.0716C13.3162 27.3426 18.0837 33.7012 24.0422 33.7012C30.0003 33.7012 34.6818 27.3426 34.8782 27.0715C35.0393 26.8505 35.0393 26.5522 34.8782 26.3308ZM23.999 31.2012C21.5115 31.2012 19.499 29.2012 19.499 26.7012C19.499 24.2452 21.5115 22.2012 23.999 22.2012C26.4865 22.2012 28.499 24.2012 28.499 26.7012C28.499 29.2012 26.4865 31.2012 23.999 31.2012Z" fill="white"/>
<path d="M24.0425 24.7021C22.9634 24.7021 21.999 25.5995 21.999 26.7021C21.999 27.8053 22.9634 28.7021 24.0425 28.7021C25.1212 28.7021 25.999 27.8053 25.999 26.7021C25.999 25.5995 25.1212 24.7021 24.0425 24.7021Z" fill="white"/>
<path fill-rule="evenodd" clip-rule="evenodd" d="M23.9999 18.159C20.1472 18.159 16.9825 20.3392 15.1313 22.1904C14.5064 22.8152 13.4934 22.8152 12.8685 22.1904C12.2437 21.5655 12.2437 20.5525 12.8685 19.9276C15.0173 17.7788 18.9497 14.959 23.9999 14.959C29.0501 14.959 32.9825 17.7788 35.1313 19.9276C35.7561 20.5525 35.7561 21.5655 35.1313 22.1904C34.5064 22.8152 33.4934 22.8152 32.8685 22.1904C31.0173 20.3392 27.8526 18.159 23.9999 18.159Z" fill="white"/>
</svg>
