<?xml version="1.0" encoding="utf-8"?>
<!-- Generator: Adobe Illustrator 24.0.0, SVG Export Plug-In . SVG Version: 6.00 Build 0)  -->
<svg version="1.1" id="Layer_1" xmlns="http://www.w3.org/2000/svg" xmlns:xlink="http://www.w3.org/1999/xlink" x="0px" y="0px"
	 viewBox="0 0 197.69 97.63" style="enable-background:new 0 0 197.69 97.63;" xml:space="preserve">
<style type="text/css">
	.st0{fill:#3A3838;}
	.st1{clip-path:url(#SVGID_2_);fill:url(#SVGID_3_);}
	.st2{fill:#BC9151;}
	.st3{fill:#EEC971;}
	.st4{fill:none;}
	.st5{fill:#FFFFFF;}
	.st6{clip-path:url(#SVGID_5_);fill:url(#SVGID_6_);}
	.st7{clip-path:url(#SVGID_8_);fill:url(#SVGID_9_);}
	.st8{clip-path:url(#SVGID_11_);fill:url(#SVGID_12_);}
	.st9{clip-path:url(#SVGID_14_);fill:url(#SVGID_15_);}
	.st10{clip-path:url(#SVGID_17_);fill:url(#SVGID_18_);}
	.st11{clip-path:url(#SVGID_20_);fill:url(#SVGID_21_);}
	.st12{clip-path:url(#SVGID_23_);fill:url(#SVGID_24_);}
	.st13{clip-path:url(#SVGID_26_);fill:url(#SVGID_27_);}
	.st14{clip-path:url(#SVGID_29_);fill:url(#SVGID_30_);}
	.st15{clip-path:url(#SVGID_32_);fill:url(#SVGID_33_);}
	.st16{clip-path:url(#SVGID_35_);fill:url(#SVGID_36_);}
	.st17{clip-path:url(#SVGID_38_);fill:url(#SVGID_39_);}
</style>
<g>
	<defs>
		<path id="SVGID_25_" d="M19.7,162.67c0,20.31,16.46,36.77,36.77,36.77c12.84,0,24.13-6.58,30.7-16.55h-9.75
			c-5.29,5.49-12.72,8.9-20.95,8.9c-16.08,0-29.11-13.04-29.11-29.12c0-16.08,13.03-29.12,29.11-29.12
			c11.81,0,21.96,7.04,26.53,17.14h8.23c-4.97-14.42-18.65-24.79-34.76-24.79C36.16,125.9,19.7,142.37,19.7,162.67"/>
	</defs>
	<clipPath id="SVGID_2_">
		<use xlink:href="#SVGID_25_"  style="overflow:visible;"/>
	</clipPath>
	
		<linearGradient id="SVGID_3_" gradientUnits="userSpaceOnUse" x1="394.0319" y1="617.3809" x2="394.716" y2="617.3809" gradientTransform="matrix(69.5991 74.1987 74.1987 -69.5991 -73201.1406 13870.1475)">
		<stop  offset="0" style="stop-color:#925F27"/>
		<stop  offset="0.039" style="stop-color:#97652A"/>
		<stop  offset="0.0915" style="stop-color:#A47634"/>
		<stop  offset="0.1517" style="stop-color:#BB9243"/>
		<stop  offset="0.2174" style="stop-color:#DAB959"/>
		<stop  offset="0.283" style="stop-color:#FFE873"/>
		<stop  offset="0.5154" style="stop-color:#EEC971"/>
		<stop  offset="0.7307" style="stop-color:#F3EA87"/>
		<stop  offset="1" style="stop-color:#925F27"/>
	</linearGradient>
	<polygon class="st1" points="57.75,90.21 127.92,165.02 53.18,235.13 -17,160.32 	"/>
</g>
<g>
	<path class="st0" d="M54,30.25l-2.65,12.76h0.09c1.65-1.97,4.16-3.16,6.91-3.16c4.67,0,6.77,3.8,6.77,7.78
		c0,7.27-4.76,15.6-14.82,15.6c-5.31,0-7.96-2.29-7.96-6.27c0-1.37,0.23-2.74,0.5-4.07l4.53-22.65H54z M49.38,53.31
		c-0.09,0.73-0.27,1.51-0.23,2.47c0.05,1.6,1.01,2.47,2.52,2.47c3.8,0,6.54-5.31,6.54-9.24c0-2.15-0.91-3.84-2.93-3.84
		c-2.38,0-4.71,2.42-5.49,6.31L49.38,53.31z"/>
	<path class="st0" d="M63.48,62.73l4.25-22.37h6.59l-4.26,22.37H63.48z M68.65,34.37c0.05-2.24,1.79-3.75,3.8-3.75
		c1.92,0,3.29,1.28,3.29,3.25c0,2.33-1.79,3.71-3.89,3.71C70.02,37.57,68.65,36.33,68.65,34.37"/>
	<path class="st0" d="M72.17,62.73l2.83-15.1c0.55-2.84,0.92-5.31,1.19-7.28h5.86l-0.46,3.71h0.09c2.11-2.93,4.9-4.21,7.87-4.21
		c3.66,0,5.72,2.24,5.72,6.09c0,1.01-0.18,2.7-0.37,3.79l-2.47,13h-6.59l2.33-12.4c0.14-0.78,0.23-1.69,0.23-2.52
		c0-1.56-0.55-2.65-2.2-2.65c-2.15,0-4.67,2.7-5.58,7.64l-1.88,9.93H72.17z"/>
	<path class="st0" d="M118.43,40.36l-2.88,15.1c-0.55,2.84-0.87,5.26-1.19,7.28h-5.81l0.41-3.66h-0.09
		c-2.29,2.93-5.04,4.16-7.73,4.16c-3.57,0-5.72-2.01-5.72-6.27c0-1.23,0.14-2.56,0.46-4.12l2.33-12.49h6.59l-2.24,11.99
		c-0.18,1.01-0.32,2.1-0.32,2.93c0,1.46,0.55,2.61,2.24,2.61c2.24,0,4.53-2.7,5.4-7.18l1.97-10.34H118.43z"/>
	<path class="st0" d="M117.15,56.83c1.28,0.64,3.7,1.56,5.86,1.56c1.88,0,2.84-0.92,2.84-2.01c0-1.1-0.73-1.87-2.79-2.88
		c-2.61-1.28-4.76-3.16-4.76-5.95c0-4.62,4.07-7.69,9.84-7.69c2.61,0,4.67,0.5,5.76,1.15l-1.56,4.67c-0.96-0.46-2.52-1.01-4.48-1.01
		c-1.74,0-2.93,0.78-2.93,1.97c0,0.91,0.91,1.69,2.74,2.56c2.43,1.24,4.99,3.02,4.99,6.13c0,5.12-4.35,7.87-10.25,7.87
		c-2.84,0-5.53-0.73-6.86-1.74L117.15,56.83z"/>
	<path class="st0" d="M156.22,40.36l-2.88,15.1c-0.55,2.84-0.87,5.26-1.19,7.28h-5.81l0.41-3.66h-0.09
		c-2.29,2.93-5.03,4.16-7.73,4.16c-3.57,0-5.72-2.01-5.72-6.27c0-1.23,0.14-2.56,0.46-4.12L136,40.36h6.59l-2.24,11.99
		c-0.19,1.01-0.32,2.1-0.32,2.93c0,1.46,0.55,2.61,2.24,2.61c2.24,0,4.53-2.7,5.4-7.18l1.96-10.34H156.22z"/>
	<g>
		<defs>
			<path id="SVGID_28_" d="M122.84,15.41c2.15,1.61,4.12,3.45,5.89,5.46c4-2.07,8.54-3.25,13.35-3.25
				c16.08,0,29.12,13.04,29.12,29.12c0,16.08-13.04,29.12-29.12,29.12c-4.81,0-9.35-1.18-13.35-3.25c-1.78,2.01-3.75,3.85-5.89,5.46
				c5.6,3.45,12.19,5.44,19.25,5.44c20.31,0,36.77-16.46,36.77-36.77c0-20.31-16.46-36.77-36.77-36.77
				C135.03,9.97,128.44,11.96,122.84,15.41"/>
		</defs>
		<clipPath id="SVGID_5_">
			<use xlink:href="#SVGID_28_"  style="overflow:visible;"/>
		</clipPath>
		
			<linearGradient id="SVGID_6_" gradientUnits="userSpaceOnUse" x1="396.7621" y1="627.195" x2="397.4461" y2="627.195" gradientTransform="matrix(-64.8774 -76.7108 -76.7108 64.8774 74023.1484 -10185.9131)">
			<stop  offset="0" style="stop-color:#925F27"/>
			<stop  offset="0.039" style="stop-color:#97652A"/>
			<stop  offset="0.0915" style="stop-color:#A47634"/>
			<stop  offset="0.1517" style="stop-color:#BB9243"/>
			<stop  offset="0.2174" style="stop-color:#DAB959"/>
			<stop  offset="0.283" style="stop-color:#FFE873"/>
			<stop  offset="0.5154" style="stop-color:#EEC971"/>
			<stop  offset="0.7307" style="stop-color:#F3EA87"/>
			<stop  offset="1" style="stop-color:#925F27"/>
		</linearGradient>
		<polygon class="st6" points="146.2,111.13 86.58,40.64 155.5,-17.65 215.12,52.84 		"/>
	</g>
	<g>
		<defs>
			<path id="SVGID_31_" d="M80.04,15.49c2.14,1.62,4.1,3.45,5.86,5.46c4.04-2.12,8.63-3.33,13.51-3.33
				c11.81,0,21.97,7.03,26.54,17.14h8.23c-4.97-14.42-18.65-24.79-34.77-24.79C92.31,9.97,85.67,11.99,80.04,15.49"/>
		</defs>
		<clipPath id="SVGID_8_">
			<use xlink:href="#SVGID_31_"  style="overflow:visible;"/>
		</clipPath>
		
			<linearGradient id="SVGID_9_" gradientUnits="userSpaceOnUse" x1="392.8009" y1="617.7778" x2="393.485" y2="617.7778" gradientTransform="matrix(69.099 68.3708 68.3708 -69.099 -69287.375 15839.8525)">
			<stop  offset="0" style="stop-color:#925F27"/>
			<stop  offset="0.039" style="stop-color:#97652A"/>
			<stop  offset="0.0915" style="stop-color:#A47634"/>
			<stop  offset="0.1517" style="stop-color:#BB9243"/>
			<stop  offset="0.2174" style="stop-color:#DAB959"/>
			<stop  offset="0.283" style="stop-color:#FFE873"/>
			<stop  offset="0.5154" style="stop-color:#EEC971"/>
			<stop  offset="0.7307" style="stop-color:#F3EA87"/>
			<stop  offset="1" style="stop-color:#925F27"/>
		</linearGradient>
		<polygon class="st7" points="106.83,-17.1 146.57,22.24 107.4,61.83 67.65,22.5 		"/>
	</g>
	<g>
		<defs>
			<path id="SVGID_34_" d="M120.36,66.96c-5.3,5.48-12.72,8.9-20.95,8.9c-4.88,0-9.47-1.21-13.51-3.33
				c-1.76,2.01-3.73,3.85-5.86,5.46c5.63,3.5,12.26,5.52,19.37,5.52c12.84,0,24.13-6.58,30.71-16.55H120.36z"/>
		</defs>
		<clipPath id="SVGID_11_">
			<use xlink:href="#SVGID_34_"  style="overflow:visible;"/>
		</clipPath>
		
			<linearGradient id="SVGID_12_" gradientUnits="userSpaceOnUse" x1="392.8009" y1="617.9631" x2="393.485" y2="617.9631" gradientTransform="matrix(69.099 68.3708 68.3708 -69.099 -69327.4844 15880.3877)">
			<stop  offset="0" style="stop-color:#925F27"/>
			<stop  offset="0.039" style="stop-color:#97652A"/>
			<stop  offset="0.0915" style="stop-color:#A47634"/>
			<stop  offset="0.1517" style="stop-color:#BB9243"/>
			<stop  offset="0.2174" style="stop-color:#DAB959"/>
			<stop  offset="0.283" style="stop-color:#FFE873"/>
			<stop  offset="0.5154" style="stop-color:#EEC971"/>
			<stop  offset="0.7307" style="stop-color:#F3EA87"/>
			<stop  offset="1" style="stop-color:#925F27"/>
		</linearGradient>
		<polygon class="st8" points="104.82,41.92 138.4,75.15 105.35,108.55 71.77,75.32 		"/>
	</g>
	<g>
		<defs>
			<path id="SVGID_37_" d="M19.7,46.74c0,20.31,16.46,36.77,36.77,36.77c12.84,0,24.13-6.58,30.7-16.55h-9.75
				c-5.29,5.49-12.72,8.9-20.95,8.9c-16.08,0-29.11-13.04-29.11-29.12c0-16.08,13.03-29.12,29.11-29.12
				c11.81,0,21.96,7.04,26.53,17.14h8.23C86.26,20.34,72.58,9.97,56.47,9.97C36.16,9.97,19.7,26.43,19.7,46.74"/>
		</defs>
		<clipPath id="SVGID_14_">
			<use xlink:href="#SVGID_37_"  style="overflow:visible;"/>
		</clipPath>
		
			<linearGradient id="SVGID_15_" gradientUnits="userSpaceOnUse" x1="393.2008" y1="618.1606" x2="393.8848" y2="618.1606" gradientTransform="matrix(69.5991 74.1987 74.1987 -69.5991 -73201.1406 13870.1475)">
			<stop  offset="0" style="stop-color:#925F27"/>
			<stop  offset="0.039" style="stop-color:#97652A"/>
			<stop  offset="0.0915" style="stop-color:#A47634"/>
			<stop  offset="0.1517" style="stop-color:#BB9243"/>
			<stop  offset="0.2174" style="stop-color:#DAB959"/>
			<stop  offset="0.283" style="stop-color:#FFE873"/>
			<stop  offset="0.5154" style="stop-color:#EEC971"/>
			<stop  offset="0.7307" style="stop-color:#F3EA87"/>
			<stop  offset="1" style="stop-color:#925F27"/>
		</linearGradient>
		<polygon class="st9" points="57.75,-25.72 127.92,49.09 53.18,119.2 -17,44.39 		"/>
	</g>
</g>
</svg>
