<svg width="28" height="28" viewBox="0 0 28 28" fill="none" xmlns="http://www.w3.org/2000/svg">
<path d="M13.9141 3.34609L13.227 2.05775C12.7117 1.19885 11.5951 0.941183 10.8221 1.37063C9.96319 1.88597 9.70552 2.91664 10.135 3.77554L11.9387 6.86756L6.18405 16.8308H1.71779C0.773006 16.8308 0 17.6038 0 18.5485C0 19.4933 0.773006 20.2663 1.71779 20.2663H17.6933C18.4663 18.8921 17.4356 16.8308 15.7178 16.8308H10.2209L17.7791 3.77554C18.2945 2.91664 17.9509 1.88597 17.092 1.37063C16.319 0.941183 15.2025 1.19885 14.773 2.05775L13.9141 3.34609ZM7.21472 22.07C6.26994 21.0393 5.15337 20.6958 3.69325 21.1252L2.4908 23.2725C1.97546 24.1314 2.23313 25.162 3.09202 25.6774C3.95092 26.1068 5.06748 25.8492 5.49693 24.9903L7.21472 22.07ZM21.7301 16.8308C19.411 12.7939 17.6933 9.8737 16.5767 7.89824C15.4601 8.75713 14.4294 11.2479 15.8896 13.8246C17.3497 16.3154 19.4969 20.0087 22.4172 24.9903C22.8466 25.8492 23.9632 26.1068 24.8221 25.6774C25.5951 25.162 25.9386 24.1314 25.4233 23.2725L23.7055 20.2663H26.2822C27.227 20.2663 28 19.4933 28 18.5485C28 17.6038 27.227 16.8308 26.2822 16.8308H21.7301Z" fill="url(#paint0_linear_52_4971)"/>
<defs>
<linearGradient id="paint0_linear_52_4971" x1="14" y1="1.16663" x2="14" y2="25.8814" gradientUnits="userSpaceOnUse">
<stop stop-color="#0ED1FC"/>
<stop offset="1" stop-color="#0C5CF0"/>
</linearGradient>
</defs>
</svg>
