<svg width="447" height="102" viewBox="0 0 447 102" fill="none" xmlns="http://www.w3.org/2000/svg">
<path d="M0.446252 0.90577C1.4479 0.781342 2.45577 0.656914 3.46986 0.650693C30.6325 0.663136 57.8014 0.669357 84.964 0.650693C86.6314 0.731571 88.4916 0.339622 89.966 1.34749C98.4334 6.59213 106.913 11.8181 115.393 17.0565C117.278 18.307 119.368 19.2714 121.005 20.8703C121.03 21.2809 121.079 22.0959 121.11 22.5003C120.575 23.421 119.767 24.1178 118.628 23.9187C90.1962 23.9374 61.7644 23.9312 33.3326 23.9187C31.9701 24.0556 30.9062 23.1224 29.8299 22.4567C20.3236 16.5588 10.7738 10.7231 1.28614 4.80659C-0.206996 3.99781 -0.275431 2.26826 0.446252 0.90577ZM9.76592 4.91235C17.3685 9.55352 24.9586 14.2258 32.5051 18.9541C33.4944 19.6384 34.6889 19.7006 35.846 19.6571C60.9059 19.5886 85.9719 19.7317 111.032 19.5886C104.275 15.327 97.4504 11.1898 90.6628 6.98408C89.1013 6.05087 87.6019 4.61373 85.6359 4.85636C60.3459 4.91235 35.0559 4.80659 9.76592 4.91235Z" fill="black"/>
<path d="M5.39227 78.7289C6.08907 77.777 7.28358 77.3539 8.43454 77.4224C36.4495 77.4286 64.4707 77.4348 92.4919 77.4161C93.6491 77.273 94.6446 77.9014 95.5964 78.4676C105.097 84.3095 114.553 90.226 124.084 96.0306C124.955 96.5843 125.733 97.2749 126.479 97.9903C126.71 99.7074 125.391 101.194 123.63 100.977C96.2372 101.014 68.8382 100.964 41.4453 101.001C39.8091 100.958 38.0173 101.213 36.574 100.274C26.7006 94.1331 16.8023 88.0299 6.89163 81.9453C5.82155 81.2796 4.79502 80.054 5.39227 78.7289ZM15.4087 81.9204C22.4389 86.4496 29.6433 90.6988 36.7108 95.1658C37.7809 95.7942 38.8323 96.7274 40.1637 96.5656C65.6092 96.5407 91.0548 96.5718 116.5 96.547C108.873 91.856 101.239 87.1713 93.6429 82.4244C92.7532 81.7213 91.5961 81.8644 90.5446 81.8458C65.4973 81.9204 40.4499 81.7649 15.4087 81.9204Z" fill="black"/>
<path d="M162.732 36.3057C165.401 36.3057 168.07 36.3119 170.745 36.3057C170.739 47.0251 170.708 57.7446 170.764 68.4641C168.088 68.3957 165.419 68.4268 162.75 68.433C162.701 57.726 162.744 47.0189 162.732 36.3057Z" fill="black"/>
<path d="M184.376 36.2864C188.196 36.3237 192.016 36.2118 195.83 36.3237C200.247 43.4473 204.365 50.7885 208.602 58.0365C208.459 50.7885 208.44 43.5406 208.316 36.2926C210.836 36.2802 213.349 36.2864 215.869 36.2864C215.881 46.9935 215.862 57.6943 215.881 68.4013C212.708 68.4137 209.542 68.3764 206.375 68.4324C201.572 60.0522 196.483 51.8275 191.811 43.3788C191.636 43.4473 191.294 43.5841 191.126 43.6588L191.829 43.8268C191.667 52.0141 191.941 60.2015 191.904 68.3889C189.378 68.4138 186.858 68.3951 184.339 68.4138C184.426 57.7067 184.351 46.9935 184.376 36.2864Z" fill="black"/>
<path d="M227.926 36.2871C236.686 36.2871 245.445 36.2871 254.211 36.2871C254.211 38.3837 254.211 40.4866 254.211 42.5832C251.181 42.5894 248.152 42.577 245.128 42.6018C245.097 51.1998 245.109 59.804 245.122 68.402C242.44 68.4082 239.759 68.3958 237.084 68.4144C237.146 59.804 237.053 51.1936 237.127 42.5832C234.06 42.5956 230.987 42.5707 227.913 42.6018C227.926 40.499 227.92 38.3962 227.926 36.2871Z" fill="black"/>
<path d="M266.262 36.2933C273.858 36.2809 281.455 36.2933 289.051 36.2871C289.051 38.3837 289.051 40.4866 289.051 42.5832C284.13 42.5894 279.202 42.5769 274.288 42.5956C274.269 45.0095 274.288 47.4234 274.256 49.8373C278.058 49.7876 281.853 49.8435 285.654 49.7938C285.71 51.4362 285.716 53.0725 285.704 54.7149C281.89 54.7336 278.083 54.6962 274.275 54.7398C274.275 57.191 274.275 59.6485 274.275 62.0997C279.321 62.1246 284.372 62.0811 289.424 62.1246C289.443 64.215 289.443 66.3054 289.437 68.402C281.71 68.4082 273.989 68.4082 266.268 68.402C266.256 57.695 266.274 46.9941 266.262 36.2933Z" fill="black"/>
<path d="M301.805 36.2862C307.529 36.3422 313.258 36.1617 318.982 36.3982C322.964 36.6532 327.537 38.2148 329.185 42.2027C330.778 46.1907 329.72 52.1756 325.042 53.4946C327.188 54.0981 328.955 55.7654 329.428 57.9927C329.963 61.4331 329.633 64.9358 329.726 68.4073C327.045 68.4073 324.37 68.3948 321.688 68.4197C321.67 65.3712 321.863 62.3103 321.558 59.2743C321.477 57.7376 320.009 56.6115 318.547 56.5555C315.641 56.2818 312.723 56.4871 309.818 56.4311C309.812 60.4252 309.806 64.4131 309.824 68.4011C307.143 68.4073 304.461 68.3948 301.786 68.4135C301.836 57.7065 301.792 46.9994 301.805 36.2862ZM309.83 42.6009C309.806 45.5996 309.812 48.5983 309.818 51.6033C313.034 51.4788 316.301 51.9206 319.474 51.2922C322.149 50.527 322.46 47.4163 321.987 45.1081C321.141 44.1625 320.226 43.0551 318.889 42.8746C315.896 42.3583 312.842 42.6507 309.83 42.6009Z" fill="black"/>
<path d="M343.103 36.2867C345.771 36.2867 348.44 36.2805 351.109 36.2929C351.103 44.8971 351.109 53.5013 351.109 62.1055C355.981 62.1118 360.858 62.0993 365.736 62.1118C365.724 64.1897 365.73 66.2739 365.748 68.3518C358.196 68.4638 350.637 68.3767 343.078 68.4016C343.127 57.6946 343.084 46.9937 343.103 36.2867Z" fill="black"/>
<path d="M388.276 37.8795C388.562 37.2262 388.78 36.0877 389.776 36.2993C392.83 36.2557 395.885 36.2744 398.94 36.3241C402.984 47.0436 407.133 57.732 411.326 68.3955C408.203 68.4079 405.086 68.4017 401.97 68.4079C401.204 66.2367 400.483 64.0592 399.773 61.8755C395.499 61.8879 391.219 61.8381 386.945 61.9066C386.155 64.0654 385.445 66.2553 384.718 68.4328C381.993 68.383 379.274 68.4017 376.561 68.4142C380.425 58.2173 384.469 48.095 388.276 37.8795ZM388.625 56.8983C391.785 56.8921 394.952 56.9046 398.112 56.8859C396.551 52.1701 394.896 47.4916 393.39 42.7633C391.661 47.4231 390.18 52.1763 388.625 56.8983Z" fill="black"/>
<path d="M413.591 36.2803C417.038 36.2927 420.484 36.2803 423.937 36.2865C426.301 40.5855 428.802 44.8098 431.017 49.1897C433.487 44.9342 435.708 40.5357 438.178 36.2803C441.115 36.2927 444.057 36.2865 447 36.2865C442.913 43.0305 438.334 49.4883 434.389 56.3194C434.221 60.3447 434.352 64.3886 434.339 68.42C431.658 68.3952 428.983 68.4076 426.301 68.4014C426.308 64.2517 426.333 60.102 426.289 55.9461C421.928 49.4759 417.965 42.7443 413.591 36.2803Z" fill="black"/>
<path d="M62.8471 37.605C66.6048 36.8211 70.6487 37.7356 73.691 40.0686C78.0397 43.2664 80.043 49.2328 78.5063 54.409C76.9012 61.1032 69.5164 65.5204 62.8408 64.0522C56.4452 62.839 51.5117 56.4558 52.084 49.942C52.3267 43.9881 57.0674 38.7684 62.8471 37.605Z" fill="black"/>
</svg>
