<svg width="184" height="64" viewBox="0 0 184 64" fill="none" xmlns="http://www.w3.org/2000/svg">
<path fill-rule="evenodd" clip-rule="evenodd" d="M77.0194 37.4301C77.0194 38.4334 77.3086 38.6626 79.1558 38.6626V39.2932H72.7185V38.6626C73.9883 38.6626 74.4219 38.5479 74.4219 37.4588V27.2262C74.4219 26.1369 73.9883 26.0222 72.7185 26.0222V25.3916H83.5145L83.5723 29.2038H83.0528C82.7641 26.3376 82.0425 26.0798 79.3579 26.0798H76.9907V31.755H78.8957C80.7148 31.755 80.8299 31.4683 80.9743 30.0352H81.4943V34.1914H80.9743C80.8299 32.7583 80.7148 32.5001 78.8957 32.5001H76.9907V37.4303L77.0194 37.4301ZM84.9005 39.2932V38.6626C86.1703 38.6626 86.6033 38.5479 86.6033 37.4588V27.2262C86.6033 26.1369 86.1703 26.0222 84.9005 26.0222V25.3916H90.9048V26.0224C89.6344 26.0224 89.2014 26.1371 89.2014 27.2263V37.459C89.2014 38.5481 89.6344 38.6628 90.9048 38.6628V39.2933L84.9005 39.2932ZM104.53 39.5225L94.9456 27.742V37.4016C94.9456 38.5195 95.7251 38.6914 97.0533 38.6914V39.3221H91.973V38.6914C93.3006 38.6914 94.0223 38.5195 94.0223 37.4016V26.6815C93.4158 26.0509 92.9828 26.0222 91.973 26.0222V25.3916H96.476L103.808 34.7645V27.2834C103.808 26.1656 103.029 25.9936 101.701 25.9936V25.3916H106.81V26.0224C105.483 26.0224 104.76 26.1943 104.76 27.3123V39.5228H104.53V39.5225ZM111.371 39.2932H106.319V38.6626C107.647 38.6626 108.254 38.4907 108.687 37.3441L113.248 25.2483H114.517L119.425 37.4301C119.858 38.5194 120.06 38.6339 121.07 38.6339V39.2645H115.21V38.6339C117 38.6339 117.173 38.4907 116.74 37.4301L115.297 33.7327H110.909L109.611 37.3154C109.206 38.4047 109.841 38.6339 111.4 38.6339V39.2932H111.371ZM111.169 33.016H114.98L112.988 28.0287L111.169 33.016ZM134.233 39.5225L124.679 27.742V37.4016C124.679 38.5195 125.458 38.6914 126.786 38.6914V39.3221H121.821V38.6914C123.033 38.6914 123.755 38.5195 123.755 37.4016V26.7102C123.062 26.0796 122.542 26.0222 121.388 26.0222V25.3916H126.18L133.512 34.7645V27.2834C133.512 26.1656 132.732 25.9936 131.405 25.9936V25.3916H136.486V26.0224C135.157 26.0224 134.436 26.1943 134.436 27.3123V39.5228H134.233V39.5225ZM148.407 25.3631H148.753L148.956 29.5191L148.436 29.5478C148.09 27.1689 146.82 25.9076 144.481 25.9076C141.883 25.9076 139.92 28.1147 139.92 31.4969C139.92 35.825 142.663 38.2899 145.549 38.2899C146.791 38.2899 147.917 37.9461 149.014 36.771L149.418 37.1721C148.523 38.4334 146.762 39.4939 144.395 39.4939C140.873 39.4939 137.294 36.8568 137.294 32.4427C137.293 28.172 140.555 25.1624 144.51 25.1624C146.387 25.1624 147.368 25.9649 147.887 25.9649C148.118 25.9649 148.292 25.7643 148.407 25.3631ZM150.572 39.2932V38.6626C151.842 38.6626 152.275 38.5479 152.275 37.4588V27.2262C152.275 26.1369 151.842 26.0222 150.572 26.0222V25.3916H156.576V26.0224C155.306 26.0224 154.873 26.1371 154.873 27.2263V37.459C154.873 38.5481 155.306 38.6628 156.576 38.6628V39.2933L150.572 39.2932ZM162.235 39.2932H157.529V38.6626C158.568 38.6626 159.117 38.4907 159.55 37.3441L164.111 25.2483H165.381L170.288 37.4301C170.721 38.5194 170.923 38.6339 171.934 38.6339V39.2645H166.074V38.6339C167.864 38.6339 168.037 38.4907 167.604 37.4301L166.16 33.7327H161.773L160.474 37.3154C160.07 38.4047 160.705 38.6339 162.264 38.6339V39.2932H162.235ZM162.032 33.016H165.843L163.88 28.0287L162.032 33.016ZM172.915 39.2932V38.6626C174.185 38.6626 174.618 38.5479 174.618 37.4588V27.2262C174.618 26.1369 174.185 26.0222 172.915 26.0222V25.3916H178.89V26.0224C177.621 26.0224 177.216 26.1371 177.216 27.2263V37.545C177.216 38.4621 177.678 38.5768 178.429 38.5768H179.15C181.864 38.5768 182.73 38.1755 183.48 35.1087L184 35.1659L183.567 39.2648H172.915V39.2935V39.2932Z" fill="#94A8B6"/>
<path fill-rule="evenodd" clip-rule="evenodd" d="M85.3908 47.6692L85.4487 51.7107H84.9292C84.6405 48.7297 83.9188 48.3574 81.2343 48.3574H80.3683V59.7076C80.3683 60.7973 80.7721 60.9406 82.5041 60.9406V61.5708H75.6339V60.9406C77.3659 60.9406 77.7989 60.7683 77.7989 59.7076V48.3572H76.9329C74.2483 48.3572 73.5267 48.7297 73.238 51.7107H72.7185L72.7763 47.6692H85.3908ZM86.7477 61.5708V60.9401C88.0181 60.9401 88.4511 60.8257 88.4511 59.7366V49.5038C88.4511 48.4145 88.0181 48.2997 86.7477 48.2997V47.6692H92.7519V48.2999C91.4816 48.2999 91.0485 48.4147 91.0485 49.5039V59.7366C91.0485 60.8257 91.4816 60.9406 92.7519 60.9406V61.5708H86.7477ZM110.823 47.669V48.2999C109.553 48.2999 109.004 48.3574 109.12 49.4752L110.217 59.7941C110.332 60.8542 110.736 60.969 112.006 60.969V61.5997H106.031V60.969C107.272 60.969 107.705 60.8542 107.618 59.7941L106.492 48.9588L102.076 61.8284H101.903L97.5728 48.9305L96.5333 59.7651C96.4182 60.8542 97.1685 60.9685 98.4383 60.9685V61.5997H93.7623V60.9685C95.0321 60.9685 95.4651 60.7683 95.5516 59.7651L96.649 49.4463C96.7641 48.3572 96.216 48.2712 94.9456 48.2712V47.6692H99.853L102.798 57.1564L105.973 47.6692H110.822L110.823 47.669ZM121.994 56.4688H121.475C121.33 55.0356 121.215 54.7775 119.396 54.7775H117.26V59.822C117.26 60.7393 117.722 60.8542 118.472 60.8542H119.627C122.341 60.8542 123.206 60.4527 123.957 57.3861L124.477 57.443L123.986 61.5418H112.959V60.9111C114.229 60.9111 114.662 60.7967 114.662 59.7076V49.5038C114.662 48.4145 114.229 48.2997 112.959 48.2997V47.6692H123.553L123.611 51.1374H123.091C122.774 48.6723 122.138 48.3857 119.367 48.3857H117.289V54.0323H119.425C121.243 54.0323 121.359 53.7457 121.503 52.3126H122.023V56.4688H121.994ZM133.137 58.7044C133.137 57.443 132.328 56.8129 130.943 56.0389L128.72 54.8923C127.046 54.0036 126.065 53.029 126.065 51.2807C126.064 49.1025 127.941 47.4399 130.394 47.4399C132.068 47.4399 132.934 48.2425 133.425 48.2425C133.743 48.2425 133.887 48.0419 134.031 47.6406H134.436L134.638 51.5388L134.118 51.5675C133.83 49.6756 132.473 48.2137 130.568 48.2137C129.124 48.2137 128.171 49.0737 128.171 50.2775C128.171 51.5961 129.182 52.1406 130.308 52.7426L132.213 53.7457C134.003 54.72 135.273 55.6948 135.273 57.5579C135.273 60.0227 133.137 61.7715 130.481 61.7715C128.604 61.7715 127.681 60.8826 127.19 60.8826C126.872 60.8826 126.699 61.1693 126.555 61.5997H126.151L125.862 57.472L126.382 57.4146C126.786 59.9943 128.576 61.0549 130.366 61.0549C131.867 61.0259 133.137 60.3668 133.137 58.7044Z" fill="#94A8B6"/>
<path fill-rule="evenodd" clip-rule="evenodd" d="M0 0H64.4551V64H0V0ZM15.6896 35.2575C15.6896 37.3753 16.2991 37.8592 20.1987 37.8592V39.1902H6.61078V37.8592C9.29156 37.8592 10.2062 37.617 10.2062 35.3181V13.7185C10.2062 11.4194 9.29156 11.1771 6.61078 11.1771V9.84615H29.3999L29.522 17.8931H28.4251C27.8155 11.843 26.2922 11.2989 20.6256 11.2989H15.629V23.2783H19.6502C23.4893 23.2783 23.733 22.6731 24.0378 19.6479H25.1347V28.4212H24.0378C23.733 25.3961 23.4893 24.8513 19.6502 24.8513H15.629V35.258L15.6896 35.2575ZM58.8233 18.3771L58.7021 9.84615H32.074L31.9521 18.3771H33.0488C33.6581 12.0847 35.1814 11.2984 40.8482 11.2984H42.6761V35.258C42.6761 37.4965 41.7623 37.8595 38.1061 37.8595V39.1907H52.6084V37.8595C48.9522 37.8595 48.0992 37.5572 48.0992 35.258V11.2989H49.9271C55.5945 11.2989 57.1177 12.0847 57.727 18.3771H58.8233Z" fill="#94A8B6"/>
</svg>
