<svg width="120" height="27" viewBox="0 0 120 27" fill="none" xmlns="http://www.w3.org/2000/svg">
<g clip-path="url(#clip0_26665_88306)">
<path d="M0 26.9012H103.116V24.2012H0V26.9012Z" fill="#159E49"/>
<path d="M110.263 26.9012H119.118V24.2012H110.263V26.9012Z" fill="#159E49"/>
<path d="M20.0912 20.1107H23.7838V6.21365H20.0912V20.1107ZM19.7338 2.20335C19.7338 1.56806 19.9323 1.05188 20.3691 0.61512C20.7662 0.218061 21.3221 0.0195312 21.9573 0.0195312C22.6323 0.0195312 23.1485 0.218061 23.5456 0.61512C23.9426 1.01218 24.1809 1.52835 24.1809 2.20335C24.1809 2.83865 23.9824 3.35483 23.5456 3.79159C23.1485 4.18865 22.5926 4.38718 21.9573 4.38718C21.3221 4.38718 20.8059 4.18865 20.3691 3.79159C19.9323 3.39453 19.7338 2.83865 19.7338 2.20335Z" fill="#333433"/>
<path d="M32.2809 6.17436H36.0529V8.95377H32.2809V15.6244C32.2809 16.2199 32.4397 16.6964 32.7971 17.0538C33.1544 17.4111 33.5912 17.6097 34.1868 17.6097C34.7029 17.6097 35.2985 17.5302 35.9338 17.3714L36.4103 20.1111C35.3382 20.3891 34.3059 20.5479 33.3132 20.5479C32.6382 20.5479 32.0029 20.4288 31.4471 20.2302C30.8912 20.0317 30.4147 19.7141 29.9779 19.317C29.5809 18.9199 29.2632 18.4435 29.025 17.8876C28.7868 17.3317 28.7073 16.7361 28.7073 16.0611V9.03318H26.1662V6.25377H28.7073V2.16406H32.2412V6.17436H32.2809V6.17436Z" fill="#333433"/>
<path d="M38.2368 10.0259C38.2368 9.43029 38.3559 8.8347 38.6338 8.31852C38.9118 7.80234 39.2691 7.36558 39.7059 6.96852C40.1824 6.61117 40.7382 6.29352 41.3735 6.09499C42.0088 5.89646 42.7632 5.77734 43.5176 5.77734C44.3118 5.77734 45.1456 5.85676 45.9794 6.01558C46.8132 6.1744 47.6868 6.41264 48.5603 6.73029L47.7662 9.35087C47.0912 9.07293 46.4162 8.8744 45.7412 8.71558C45.0662 8.55676 44.4309 8.47734 43.8353 8.47734C43.2 8.47734 42.6838 8.59646 42.2868 8.8744C41.8897 9.15234 41.7309 9.5097 41.7309 9.98617C41.7309 10.4229 41.9294 10.7406 42.2868 10.9391C42.6441 11.1376 43.0809 11.3362 43.6368 11.495C44.1926 11.6538 44.7485 11.8126 45.3838 11.9318C46.0191 12.0906 46.6147 12.3288 47.1309 12.6465C47.6868 12.9641 48.1235 13.4009 48.4809 13.917C48.8382 14.4729 49.0368 15.1876 49.0368 16.0612C49.0368 16.6965 48.9176 17.2523 48.6397 17.8082C48.3618 18.3244 48.0044 18.8009 47.5279 19.1979C47.0515 19.595 46.4956 19.8729 45.7809 20.1112C45.1059 20.3097 44.3515 20.4288 43.5574 20.4288C41.85 20.4288 40.0235 20.0715 38.1176 19.317L38.8721 16.7362C40.5 17.4112 41.9691 17.7288 43.2794 17.7288C43.9544 17.7288 44.5103 17.57 44.9074 17.292C45.3044 17.0141 45.5029 16.617 45.5029 16.1009C45.5029 15.6641 45.3044 15.3465 44.9471 15.1082C44.5897 14.87 44.1529 14.6715 43.5971 14.5126C43.0412 14.3538 42.4853 14.195 41.85 14.0362C41.2147 13.8773 40.6588 13.6391 40.1029 13.3215C39.5471 13.0038 39.1103 12.6068 38.7529 12.0906C38.3956 11.6141 38.2368 10.8994 38.2368 10.0259Z" fill="#333433"/>
<path d="M56.4618 6.17436H60.2338V8.95377H56.4618V15.6244C56.4618 16.2199 56.6206 16.6964 56.9779 17.0538C57.3353 17.4111 57.7721 17.6097 58.3677 17.6097C58.8838 17.6097 59.4794 17.5302 60.1147 17.3714L60.5912 20.1111C59.5191 20.3891 58.4868 20.5479 57.4941 20.5479C56.8191 20.5479 56.1838 20.4288 55.6279 20.2302C55.0721 20.0317 54.5956 19.7141 54.1588 19.317C53.7221 18.9199 53.4441 18.4435 53.2059 17.8876C52.9676 17.3317 52.8882 16.7361 52.8882 16.0611V9.03318H50.347V6.25377H52.8882V2.16406H56.4221V6.17436H56.4618V6.17436Z" fill="#333433"/>
<path d="M66.0706 15.8614C66.0706 16.4172 66.3088 16.8937 66.7456 17.2908C67.2221 17.6878 67.7779 17.8864 68.4529 17.8864C69.4059 17.8864 70.1603 17.5687 70.7559 16.9731C71.3515 16.3775 71.6294 15.5834 71.6294 14.6305V13.7966C70.9544 13.5981 70.2 13.5187 69.3662 13.5187C68.3338 13.5187 67.5397 13.7172 66.9441 14.154C66.3882 14.5511 66.0706 15.1466 66.0706 15.8614ZM62.6162 16.0599C62.6162 14.5908 63.1721 13.4393 64.2838 12.6452C65.3956 11.8511 66.9441 11.454 68.9691 11.454C69.4059 11.454 69.8427 11.4937 70.2794 11.5334C70.7162 11.5731 71.1927 11.6525 71.6294 11.7319V10.9775C71.6294 10.2628 71.3912 9.66723 70.875 9.23047C70.3588 8.7937 69.6838 8.55547 68.8103 8.55547C67.4206 8.55547 65.9118 8.87312 64.2838 9.54812L63.3706 7.00694C65.3559 6.21282 67.3015 5.85547 69.2074 5.85547C70.0809 5.85547 70.8353 5.97459 71.55 6.25253C72.2647 6.49076 72.8603 6.84812 73.3765 7.32459C73.8927 7.76135 74.2897 8.31723 74.5677 8.95253C74.8456 9.58782 75.0044 10.3025 75.0044 11.0569V16.7349C75.0044 17.0525 75.0838 17.2908 75.2427 17.4496C75.4015 17.6481 75.6397 17.7275 75.9574 17.7275C76.1162 17.7275 76.2353 17.7275 76.3941 17.6878C76.5132 17.6878 76.6324 17.6481 76.6721 17.6481L76.9103 20.3084C76.5927 20.3481 76.3147 20.4275 75.9971 20.4672C75.6794 20.5069 75.3618 20.5069 75.0044 20.5069C74.2897 20.5069 73.6941 20.3481 73.1779 19.9908C72.6618 19.6731 72.3044 19.1966 72.0662 18.6011C71.4706 19.1966 70.7559 19.6731 70.0015 19.9908C69.2074 20.3084 68.4132 20.4672 67.5397 20.4672C66.825 20.4672 66.15 20.3481 65.5544 20.1496C64.9588 19.9511 64.4427 19.6334 64.0059 19.2364C63.5691 18.8393 63.2515 18.4025 63.0132 17.8466C62.7353 17.2908 62.6162 16.6952 62.6162 16.0599Z" fill="#333433"/>
<path d="M78.975 6.1347H81.8338L82.2706 8.04058C82.8265 7.32587 83.4618 6.76999 84.2559 6.37293C85.05 5.97587 85.8838 5.77734 86.7971 5.77734C87.8294 5.77734 88.7029 6.01558 89.4971 6.45234C90.2515 6.88911 90.8471 7.5244 91.2441 8.31852C91.8794 7.4847 92.6338 6.8494 93.4677 6.41264C94.3015 5.97587 95.2147 5.77734 96.2471 5.77734C97.0015 5.77734 97.6765 5.89646 98.3118 6.1347C98.9471 6.37293 99.5029 6.73029 99.9397 7.20676C100.416 7.64352 100.774 8.1994 101.012 8.8347C101.25 9.46999 101.409 10.145 101.409 10.8994V20.1112H97.7956V11.495C97.7956 10.7009 97.5574 10.0656 97.0412 9.5494C96.525 9.07293 95.8897 8.79499 95.0956 8.79499C94.1824 8.79499 93.4279 9.11264 92.8324 9.74793C92.2368 10.3832 91.9588 11.1773 91.9588 12.2097V20.1112H88.3456V11.495C88.3456 10.7009 88.1074 10.0656 87.6309 9.5494C87.1544 9.07293 86.5191 8.79499 85.725 8.79499C84.7721 8.79499 84.0177 9.11264 83.4221 9.74793C82.8265 10.3832 82.5485 11.1773 82.5485 12.2097V20.1112H78.9353V6.1347H78.975V6.1347Z" fill="#333433"/>
<path d="M115.147 13.0832C115.147 12.4479 115.068 11.8523 114.869 11.2965C114.71 10.7406 114.432 10.2641 114.115 9.90675C113.797 9.5097 113.44 9.23175 113.003 8.99352C112.566 8.75528 112.09 8.67587 111.574 8.67587C110.621 8.67587 109.866 8.99352 109.231 9.66852C108.635 10.3038 108.318 11.1376 108.318 12.17V14.0362C108.318 14.5523 108.397 15.0288 108.556 15.4259C108.715 15.8626 108.953 16.22 109.231 16.5376C109.509 16.8553 109.866 17.0935 110.263 17.2523C110.66 17.4112 111.097 17.4906 111.574 17.4906C112.09 17.4906 112.566 17.3715 113.003 17.1729C113.44 16.9744 113.797 16.6568 114.115 16.2597C114.432 15.8626 114.671 15.3862 114.869 14.87C115.068 14.3538 115.147 13.7185 115.147 13.0832ZM104.824 6.1347H107.682L108.119 7.92146C108.635 7.24646 109.231 6.73029 109.985 6.33323C110.74 5.97587 111.574 5.77734 112.487 5.77734C113.4 5.77734 114.234 5.97587 115.028 6.33323C115.782 6.69058 116.457 7.20676 117.013 7.84205C117.569 8.47734 118.006 9.23175 118.323 10.145C118.641 11.0185 118.8 12.0112 118.8 13.0832C118.8 14.1553 118.641 15.1479 118.323 16.0215C118.006 16.895 117.569 17.6891 117.013 18.3244C116.457 18.9597 115.782 19.4759 115.028 19.8332C114.274 20.1906 113.4 20.3891 112.487 20.3891C111.653 20.3891 110.859 20.2303 110.184 19.9126C109.469 19.595 108.874 19.1185 108.397 18.4832V26.9406H104.824V6.1347Z" fill="#333433"/>
<path d="M12.15 16.538C11.5941 17.0939 10.8397 17.3321 9.88676 17.3321H5.43971V11.5748H9.88676C10.8 11.5748 11.5544 11.8527 12.15 12.3689C12.7059 12.8851 12.9838 13.5998 12.9838 14.4336C13.0235 15.3071 12.7456 16.0219 12.15 16.538ZM5.43971 3.79244H9.52941C10.3632 3.79244 11.0382 4.03067 11.5941 4.54685C12.15 5.02332 12.3882 5.69832 12.3882 6.49244C12.3882 7.28656 12.1103 7.92185 11.5941 8.39832C11.0382 8.87479 10.3632 9.11303 9.52941 9.11303H5.43971V3.79244ZM15.8029 11.9321C15.2073 11.0983 14.4132 10.5027 13.4206 10.1454C14.2147 9.78803 14.8103 9.27185 15.2868 8.55715C15.7632 7.84244 16.0015 7.00862 16.0015 6.05568C16.0015 5.30126 15.8427 4.62626 15.5647 4.03068C15.2868 3.39538 14.85 2.87921 14.3338 2.44244C13.8176 2.00568 13.1824 1.64832 12.4676 1.41009C11.7529 1.17185 10.9588 1.05273 10.0853 1.05273H0V3.59391C1.54853 3.59391 2.77941 4.8645 2.77941 6.41303C2.77941 7.96156 1.54853 9.23215 0 9.23215V11.5351C1.54853 11.5351 2.77941 12.8057 2.77941 14.3542V14.791C2.77941 16.3395 1.54853 17.6101 0 17.6101V20.1513H10.5221C11.4353 20.1513 12.2294 20.0321 12.9838 19.7542C13.7382 19.516 14.3735 19.1586 14.9294 18.6821C15.4853 18.2057 15.9221 17.6498 16.2 17.0145C16.5176 16.3792 16.6765 15.6645 16.6765 14.8704C16.6765 13.7189 16.3985 12.766 15.8029 11.9321Z" fill="#333433"/>
</g>
<defs>
<clipPath id="clip0_26665_88306">
<rect width="119.118" height="27" fill="white"/>
</clipPath>
</defs>
</svg>
