<svg width="567" height="163" viewBox="0 0 567 163" fill="none" xmlns="http://www.w3.org/2000/svg">
<path fill-rule="evenodd" clip-rule="evenodd" d="M61.6561 134.328H102.024C103.494 134.328 104.686 135.52 104.686 136.991C104.686 138.461 103.494 139.653 102.024 139.653H61.6561C60.1857 139.653 58.9937 138.461 58.9937 136.991C58.9937 135.52 60.1857 134.328 61.6561 134.328Z" fill="#030405"/>
<path d="M101.876 122.031H62.9573C61.4869 122.031 60.2949 123.223 60.2949 124.694C60.2949 126.164 61.4869 127.356 62.9573 127.356H101.876C103.347 127.356 104.539 126.164 104.539 124.694C104.539 123.223 103.347 122.031 101.876 122.031Z" fill="#030405"/>
<path d="M101.876 109.902H62.9573C61.4869 109.902 60.2949 111.094 60.2949 112.565C60.2949 114.035 61.4869 115.227 62.9573 115.227H101.876C103.347 115.227 104.539 114.035 104.539 112.565C104.539 111.094 103.347 109.902 101.876 109.902Z" fill="#030405"/>
<path d="M101.876 97.7734H62.9573C61.4869 97.7734 60.2949 98.9654 60.2949 100.436C60.2949 101.906 61.4869 103.098 62.9573 103.098H101.876C103.347 103.098 104.539 101.906 104.539 100.436C104.539 98.9654 103.347 97.7734 101.876 97.7734Z" fill="#030405"/>
<path d="M101.876 85.6445H62.9573C61.4869 85.6445 60.2949 86.8365 60.2949 88.307C60.2949 89.7774 61.4869 90.9694 62.9573 90.9694H101.876C103.347 90.9694 104.539 89.7774 104.539 88.307C104.539 86.8365 103.347 85.6445 101.876 85.6445Z" fill="#030405"/>
<path d="M101.876 73.5156H62.9573C61.4869 73.5156 60.2949 74.7076 60.2949 76.1781C60.2949 77.6485 61.4869 78.8405 62.9573 78.8405H101.876C103.347 78.8405 104.539 77.6485 104.539 76.1781C104.539 74.7076 103.347 73.5156 101.876 73.5156Z" fill="#030405"/>
<path fill-rule="evenodd" clip-rule="evenodd" d="M58.9937 137.026L58.9937 64.8772C58.9937 63.4398 60.1589 62.2746 61.5962 62.2746C63.0336 62.2746 64.1988 63.4398 64.1988 64.8772V137.026C64.1988 138.464 63.0336 139.629 61.5962 139.629C60.1589 139.629 58.9937 138.464 58.9937 137.026Z" fill="#030405"/>
<path d="M137.338 61.3867H26.6624C25.192 61.3867 24 62.5787 24 64.0491C24 65.5196 25.192 66.7116 26.6624 66.7116H137.338C138.808 66.7116 140 65.5196 140 64.0491C140 62.5787 138.808 61.3867 137.338 61.3867Z" fill="#030405"/>
<path d="M137.338 49.2578H26.6624C25.192 49.2578 24 50.4498 24 51.9202C24 53.3907 25.192 54.5827 26.6624 54.5827H137.338C138.808 54.5827 140 53.3907 140 51.9202C140 50.4498 138.808 49.2578 137.338 49.2578Z" fill="#030405"/>
<path d="M137.338 37.1289H26.6624C25.192 37.1289 24 38.3209 24 39.7913C24 41.2617 25.192 42.4538 26.6624 42.4538H137.338C138.808 42.4538 140 41.2617 140 39.7913C140 38.3209 138.808 37.1289 137.338 37.1289Z" fill="#030405"/>
<path d="M137.338 25H26.6624C25.192 25 24 26.192 24 27.6624C24 29.1328 25.192 30.3249 26.6624 30.3249H137.338C138.808 30.3249 140 29.1328 140 27.6624C140 26.192 138.808 25 137.338 25Z" fill="#030405"/>
<path fill-rule="evenodd" clip-rule="evenodd" d="M134.795 63.5713V27.7764C134.795 26.339 135.96 25.1738 137.397 25.1738C138.835 25.1738 140 26.339 140 27.7764V63.5713C140 65.0086 138.835 66.1738 137.397 66.1738C135.96 66.1738 134.795 65.0086 134.795 63.5713Z" fill="#030405"/>
<path d="M11 0H152C158.075 0 163 4.92487 163 11V152C163 158.075 158.075 163 152 163H11C4.92487 163 0 158.075 0 152V11C0 4.92487 4.92487 0 11 0ZM11 5.3C7.85198 5.3 5.3 7.85198 5.3 11V152C5.3 155.148 7.85198 157.7 11 157.7H152C155.148 157.7 157.7 155.148 157.7 152V11C157.7 7.85198 155.148 5.3 152 5.3H11Z" fill="#030405"/>
<path fill-rule="evenodd" clip-rule="evenodd" d="M238.308 54.4574V120H250.692V54.4404H278V43H211V54.4404H238.308V54.4574ZM287 120H298.485V87.2412C298.485 82.9554 300.03 79.4368 303.013 76.5786C306.104 73.7214 309.859 72.2928 314.386 72.2928C318.694 72.2928 322.337 73.7214 325.208 76.5786C328.079 79.3271 329.515 82.8447 329.515 87.1315V120H341V83.8334C341 77.3488 338.791 72.0714 334.374 67.7837C329.957 63.4978 324.435 61.4088 317.699 61.4088C309.196 61.4088 302.791 64.7069 298.485 71.1925V43H287V120ZM409 90.5C409 81.7856 406.164 74.524 400.493 68.7144C394.931 62.9058 387.951 60 379.554 60C371.157 60 364.068 62.9048 358.397 68.7144C352.836 74.525 350 81.7856 350 90.5C350 99.2144 352.944 106.476 358.724 112.286C364.505 118.094 371.811 121 380.427 121C391.769 121 401.365 115.413 406.601 106.364L395.477 102.901C391.878 107.705 386.861 110.162 380.427 110.162C370.94 110.162 363.414 103.793 361.669 94.7442H408.782C408.891 92.8462 409 91.3933 409 90.5ZM362 86C364.04 78.2277 371.341 71 379.5 71C388.196 71 394.961 78.2268 397 86H362ZM437.309 54.4404V120H449.692V54.4404H477V43H410V54.4404H437.309ZM497 120V63H486V120H497ZM486.19 53.6607C489.343 56.7798 494.482 56.7798 497.635 53.6607C500.788 50.5415 500.788 45.4577 497.635 42.3386C494.482 39.2205 489.343 39.2205 486.19 42.3386C483.27 45.4577 483.27 50.5415 486.19 53.6607ZM567 90.5C567 81.7856 564.164 74.524 558.493 68.7144C552.931 62.9058 545.951 60 537.554 60C529.158 60 522.068 62.9048 516.398 68.7144C510.836 74.525 508 81.7856 508 90.5C508 99.2144 510.944 106.476 516.724 112.286C522.505 118.094 529.811 121 538.426 121C549.768 121 559.365 115.413 564.6 106.364L553.476 102.901C549.877 107.705 544.861 110.162 538.426 110.162C528.939 110.162 521.413 103.793 519.669 94.7442H566.782C566.891 92.8462 567 91.3933 567 90.5ZM537.5 71C546.196 71 552.961 78.4591 555 86H520C522.04 78.4599 529.341 71 537.5 71Z" fill="#030405"/>
</svg>
