<svg width="208" height="61" viewBox="0 0 208 61" fill="none" xmlns="http://www.w3.org/2000/svg">
<g clip-path="url(#clip0_52_5895)">
<path d="M10.4598 55.5441C12.3493 55.5441 14.2738 54.7743 15.8484 53.8296V48.231C13.8189 48.6159 11.7195 48.7909 9.62 49.2457C7.94044 49.5957 6.71576 50.4704 6.71576 52.3949C6.71576 54.7043 8.4653 55.5441 10.4598 55.5441ZM16.0933 58.0285C14.3438 59.883 11.8244 60.8977 9.37507 60.8977C4.44135 60.8977 0.767312 57.5736 0.627349 52.7098C0.522376 48.161 3.95148 45.1518 7.80048 44.627L15.9883 43.4373C15.8134 41.0229 11.9994 40.1481 10.3198 40.1481C8.18538 40.1481 5.56106 40.708 3.70655 41.6177H3.04172V36.0892C5.4211 35.4244 7.80048 34.8645 10.4248 34.8645C16.1283 34.8645 21.6919 36.9989 21.9018 43.2973V60.3029H16.0933V58.0285Z" fill="#000100"/>
<path d="M40.1315 40.568H39.3267C37.2273 39.7282 34.1131 40.603 32.1886 41.7927V60.3029H26.1702V35.3894H32.0136V36.9989C34.533 35.7043 37.2273 34.8645 40.1315 34.8645V40.568Z" fill="#000100"/>
<path d="M68.4043 45.0472C68.4043 43.0878 68.1594 40.4285 65.535 40.5334C63.9604 40.5684 62.6308 41.8631 61.651 42.9478V60.3033H55.7026V45.0472C55.7026 43.1577 55.5276 40.5334 53.0083 40.5334C51.5387 40.5334 49.8591 41.5831 48.8094 42.5279V60.3033H42.756V35.3898H48.6694V37.0693C49.8591 35.8796 51.7486 34.8649 53.4632 34.8649C56.0175 34.8299 58.187 35.8796 59.6916 37.6992C61.3711 36.1946 63.5406 34.7949 65.9549 34.7949C71.2036 34.7949 74.3877 38.8889 74.4227 44.1725V60.3033H68.3693V45.0472H68.4043Z" fill="#000100"/>
<path d="M86.5994 55.5441C88.4889 55.5441 90.4134 54.7743 91.988 53.8296V48.231C89.9586 48.6159 87.8591 48.7909 85.7596 49.2457C84.0801 49.5957 82.8554 50.4704 82.8554 52.3949C82.8554 54.7043 84.6049 55.5441 86.5994 55.5441ZM92.233 58.0285C90.4834 59.883 87.9641 60.8977 85.5147 60.8977C80.581 60.8977 76.907 57.5736 76.767 52.7098C76.662 48.161 80.0911 45.1518 83.9401 44.627L92.128 43.4373C91.953 41.0229 88.139 40.1481 86.4595 40.1481C84.325 40.1481 81.7007 40.708 79.8462 41.6177H79.1814V36.0892C81.5607 35.4244 83.9401 34.8645 86.5644 34.8645C92.268 34.8645 97.8315 36.9989 98.0414 43.2973V60.3029H92.233V58.0285V58.0285Z" fill="#000100"/>
<path d="M124.214 44.1371V60.3029H118.195V44.7669C118.23 42.3875 117.111 40.4281 114.451 40.4281C112.457 40.4281 109.938 41.3378 108.258 42.4575V60.3029H102.205V35.3894H108.048V36.9989C110.322 35.8442 112.842 34.8645 115.326 34.8645C120.575 34.8645 124.214 38.5735 124.214 44.1371Z" fill="#000100"/>
<path d="M134.432 60.3032H128.378V35.3897H134.432V60.3032ZM134.502 32.9753H128.413V27.0269H134.502V32.9753Z" fill="#000100"/>
<path d="M160.92 44.1371V60.3029H154.867V44.7669C154.902 42.3875 153.782 40.4281 151.123 40.4281C149.128 40.4281 146.609 41.3378 144.929 42.4575V60.3029H138.876V35.3894H144.719V36.9989C146.994 35.8442 149.513 34.8645 151.997 34.8645C157.281 34.8645 160.92 38.5735 160.92 44.1371Z" fill="#000100"/>
<path d="M175.826 55.4374C179.255 55.4374 181.495 52.4982 181.495 47.8444C181.495 43.1906 179.22 40.2514 175.826 40.2514C172.467 40.2514 170.158 43.1906 170.158 47.8444C170.158 52.4982 172.432 55.4374 175.826 55.4374ZM175.861 34.8628C182.894 34.8628 187.688 39.9365 187.688 47.8444C187.688 55.7523 182.929 60.826 175.861 60.826C168.793 60.826 163.929 55.7523 163.929 47.8444C163.929 39.9365 168.793 34.8628 175.861 34.8628Z" fill="#000100"/>
<path d="M195.736 16.9483L188.983 1.72726C188.773 1.27238 188.388 0.92247 187.968 0.782506C187.548 0.642543 187.163 0.747515 186.953 1.06243L170.962 26.3958C170.717 26.7807 170.822 27.4106 171.242 27.8654C171.627 28.3553 172.222 28.5653 172.677 28.4253L195.736 16.9483Z" fill="#CC7C2D"/>
<path d="M189.438 32.4133C189.193 32.6932 189.193 33.1481 189.403 33.568C189.613 34.0229 189.997 34.3728 190.417 34.5128L203.959 38.9916C204.379 39.1316 204.729 39.0266 204.939 38.7467C205.149 38.4667 205.148 38.0469 204.974 37.627L199.2 24.7153L189.438 32.4133Z" fill="#918F3C"/>
<path d="M206.549 14.0444C206.164 13.5195 205.534 13.2746 205.079 13.4496L195.736 16.9487L199.2 24.7166L206.723 15.584C207.038 15.1991 206.968 14.5693 206.549 14.0444Z" fill="#000100"/>
</g>
<defs>
<clipPath id="clip0_52_5895">
<rect width="206.856" height="60.1764" fill="white" transform="translate(0.343872 0.72168)"/>
</clipPath>
</defs>
</svg>
